<?xml version="1.0" standalone="no"?>
<!DOCTYPE svg PUBLIC "-//W3C//DTD SVG 1.1//EN" "http://www.w3.org/Graphics/SVG/1.1/DTD/svg11.dtd" >
<svg xmlns="http://www.w3.org/2000/svg">
<metadata>
Copyright (c) 2015 by Fontsmith Ltd. All rights reserved.
</metadata>
<defs>
<font id="CoopBankWeb-BoldItalic" horiz-adv-x="576" >
  <font-face 
    font-family="Coop Bank Web"
    font-weight="700"
    font-style="italic"
    font-stretch="normal"
    units-per-em="1000"
    panose-1="2 0 8 3 5 0 0 9 0 4"
    ascent="770"
    descent="-230"
    x-height="485"
    cap-height="692"
    bbox="-260.143 -257 1055 1045"
    underline-thickness="92"
    underline-position="-8"
    slope="-11"
    unicode-range="U+000D-FB02"
  />
<missing-glyph horiz-adv-x="550" 
d="M28 693h495v-693h-495v693zM444 644h-337l169 -253zM474 94v505l-169 -252zM444 50l-168 252l-169 -252h337zM78 94l168 253l-168 252v-505z" />
    <glyph glyph-name="fi" unicode="fi" horiz-adv-x="603" 
d="M61 402q-14 0 -17.5 4.5t-0.5 20.5l7 38q3 20 22 20h57l5 27q9 48 28 88t48.5 68.5t70 44t92.5 15.5q38 0 75.5 -6.5t60.5 -14.5q15 -5 11 -18l-19 -60q-3 -12 -10.5 -13.5t-16.5 0.5q-17 5 -45.5 9t-56.5 4q-52 0 -78.5 -30t-36.5 -79l-7 -35h292q12 0 17 -4.5t3 -18.5
l-77 -437q-4 -25 -28 -25h-71q-25 0 -21 25l67 377h-196l-103 -571q-2 -14 -9 -21t-21 -7h-72q-24 0 -19 26l103 573h-54z" />
    <glyph glyph-name="fl" unicode="fl" horiz-adv-x="588" 
d="M61 402q-14 0 -17.5 4.5t-0.5 20.5l7 38q3 20 22 20h57l5 27q9 49 27.5 88.5t48 68t69.5 44t91 15.5q16 0 35.5 -2t38 -5t35 -7.5t27.5 -9.5l72 10q26 3 22 -22l-118 -667q-4 -25 -27 -25h-75q-23 0 -19 24l104 591q-8 3 -20.5 5.5t-26 4.5t-27 3t-23.5 1
q-52 0 -76.5 -30.5t-34.5 -78.5l-7 -35h107q20 0 17 -17l-8 -47q-3 -19 -22 -19h-108l-103 -571q-2 -14 -9 -21t-21 -7h-72q-24 0 -19 26l103 573h-54z" />
    <glyph glyph-name="f_f" unicode="ff" horiz-adv-x="678" 
d="M754 707q15 -8 9 -25l-18 -53q-7 -19 -27 -13q-14 5 -29.5 9t-33.5 4q-23 0 -38.5 -8t-26.5 -21.5t-17.5 -32.5t-10.5 -40l-8 -42h111q20 0 17 -17l-8 -47q-3 -19 -23 -19h-111l-103 -571q-2 -14 -9 -21t-21 -7h-72q-24 0 -19 26l103 573h-183l-103 -571q-2 -14 -9 -21
t-21 -7h-72q-24 0 -19 26l103 573h-54q-11 0 -15 2t-4 10q0 3 2 13l7 38q3 20 22 20h56l4 17q10 44 23 85t46 75q26 26 61.5 40.5t82.5 14.5q21 0 47.5 -4.5t44.5 -14.5q16 -9 9 -25l-23 -51q-5 -11 -10.5 -13.5t-16.5 0.5q-10 3 -23 6t-29 3q-40 0 -60.5 -29.5t-28.5 -72.5
l-6 -31h183l6 28q10 45 23 85.5t46 74.5q26 26 61.5 40.5t82.5 14.5q25 0 53.5 -5t48.5 -16z" />
    <glyph glyph-name="f_f_i" unicode="ffi" horiz-adv-x="879" 
d="M437 -169q-2 -14 -9 -21t-21 -7h-72q-24 0 -19 26l103 573h-183l-103 -571q-2 -14 -9 -21t-21 -7h-72q-24 0 -19 26l103 573h-54q-11 0 -15 2t-4 10q0 3 2 13l7 38q3 20 22 20h56l4 17q10 44 23 85t46 75q26 26 61.5 40.5t82.5 14.5q21 0 47.5 -4.5t44.5 -14.5
q16 -9 9 -25l-23 -51q-5 -11 -10.5 -13.5t-16.5 0.5q-10 3 -23 6t-29 3q-40 0 -60.5 -29.5t-28.5 -72.5l-6 -31h183l5 27q9 48 28.5 88t49.5 68.5t71 44t93 15.5q38 0 75.5 -6.5t60.5 -14.5q15 -5 11 -18l-19 -60q-4 -12 -11 -13.5t-16 0.5q-20 5 -43.5 9t-51.5 4
q-59 0 -87 -30t-38 -79l-7 -35h265q12 0 17 -4.5t3 -18.5l-77 -437q-4 -25 -28 -25h-71q-25 0 -21 25l67 377h-169z" />
    <glyph glyph-name="f_f_l" unicode="ff&#xfb02;" horiz-adv-x="891" 
d="M653 485q20 0 17 -17l-8 -47q-3 -19 -22 -19h-100l-103 -571q-2 -14 -9 -21t-21 -7h-72q-24 0 -19 26l103 573h-183l-103 -571q-2 -14 -9 -21t-21 -7h-72q-24 0 -19 26l103 573h-54q-11 0 -15 2t-4 10q0 3 2 13l7 38q3 20 22 20h56l4 17q10 44 23 85t46 75
q26 26 61.5 40.5t82.5 14.5q21 0 47.5 -4.5t44.5 -14.5q16 -9 9 -25l-23 -51q-5 -11 -10.5 -13.5t-16.5 0.5q-10 3 -23 6t-29 3q-40 0 -60.5 -29.5t-28.5 -72.5l-6 -31h183l5 27q9 49 27 88.5t46.5 68t68 44t90.5 15.5q16 0 36 -2t39 -5t36 -7.5t28 -9.5l72 10q26 3 22 -22
l-118 -667q-4 -25 -27 -25h-75q-23 0 -19 24l104 591q-16 5 -42 9.5t-47 4.5q-30 0 -50 -8t-33.5 -22.5t-21.5 -34.5t-13 -44l-7 -35h99z" />
    <glyph glyph-name=".notdef" horiz-adv-x="550" 
d="M28 693h495v-693h-495v693zM444 644h-337l169 -253zM474 94v505l-169 -252zM444 50l-168 252l-169 -252h337zM78 94l168 253l-168 252v-505z" />
    <glyph glyph-name=".null" horiz-adv-x="500" 
 />
    <glyph glyph-name=".null" horiz-adv-x="500" 
 />
    <glyph glyph-name="nonmarkingreturn" unicode="&#xd;" horiz-adv-x="500" 
 />
    <glyph glyph-name="space" unicode=" " horiz-adv-x="230" 
 />
    <glyph glyph-name="nonbreakingspace" unicode="&#xa0;" horiz-adv-x="230" 
 />
    <glyph glyph-name="A" unicode="A" horiz-adv-x="658" 
d="M585 29q2 -11 -3 -20t-18 -9h-89q-16 0 -22 6t-8 18l-26 147h-252l-79 -150q-5 -10 -12 -15.5t-19 -5.5h-89q-12 0 -12 8.5t4 15.5l358 648q5 9 12.5 14.5t18.5 5.5h80q22 0 25 -18zM402 268l-34 211q-3 21 -4.5 41t-3.5 32h-2q-5 -14 -14 -34t-19 -40l-108 -210h185z
" />
    <glyph glyph-name="B" unicode="B" horiz-adv-x="613" 
d="M545 555q0 -36 -13.5 -70.5t-39.5 -60.5q-17 -17 -40 -30t-49 -18v-1q63 -5 101.5 -41.5t38.5 -97.5q0 -43 -16.5 -85t-48.5 -74q-23 -22 -51 -37t-60 -24t-66.5 -12.5t-69.5 -3.5h-186q-16 0 -20 6.5t-1 22.5l112 637q3 16 11 21t24 5h149q106 0 165.5 -34t59.5 -103z
M415 537q0 34 -28.5 45.5t-76.5 11.5h-58l-33 -186h43q38 0 70 9.5t53 32.5q15 17 22.5 40.5t7.5 46.5zM412 230q0 26 -10.5 42.5t-28.5 26.5q-21 11 -46.5 14.5t-57.5 3.5h-66l-39 -218h74q26 0 51.5 2.5t45.5 10.5q37 14 57 46.5t20 71.5z" />
    <glyph glyph-name="C" unicode="C" horiz-adv-x="611" 
d="M593 570q-2 -5 -6 -9t-10 -4q-4 0 -10 4q-35 19 -65 27.5t-69 8.5q-62 0 -108.5 -30.5t-78 -78t-47 -105t-15.5 -110.5q0 -38 9 -70.5t28.5 -56t49.5 -37t71 -13.5q39 0 76 9t73 23q8 4 13 4q7 0 10 -4.5t4 -10.5l12 -63q2 -11 -5 -15.5t-16 -9.5q-43 -20 -98 -30.5
t-103 -10.5q-127 0 -196 71t-69 196q0 85 27.5 166t78.5 144t124.5 101.5t165.5 38.5q45 0 93.5 -9.5t87.5 -32.5q10 -5 11 -11t-3 -14z" />
    <glyph glyph-name="D" unicode="D" horiz-adv-x="707" 
d="M665 432q0 -23 -2.5 -45t-6.5 -44q-15 -84 -50.5 -148t-89 -107.5t-124.5 -65.5t-201 -22h-143q-17 0 -22 6.5t-2 21.5l112 634q3 17 11 23.5t25 6.5h142q69 0 132.5 -9.5t112 -37.5t77.5 -79t29 -134zM525 411q0 49 -14 82.5t-39.5 53t-61.5 28t-81 8.5h-77l-84 -475h77
q46 0 91.5 10.5t83.5 42.5q26 22 45.5 51.5t33 62.5t20 68t6.5 68z" />
    <glyph glyph-name="E" unicode="E" horiz-adv-x="553" 
d="M541 609q-4 -14 -12.5 -17.5t-24.5 -3.5h-251l-32 -181h231q26 0 21 -22l-10 -57q-4 -24 -28 -24h-232l-36 -200h268q25 0 21 -23l-10 -57q-5 -24 -28 -24h-371q-15 0 -20 5t-2 22l113 640q5 25 27 25h377q23 0 17 -21z" />
    <glyph glyph-name="F" unicode="F" horiz-adv-x="547" 
d="M541 609q-4 -14 -12.5 -17.5t-24.5 -3.5h-251l-32 -181h231q26 0 21 -22l-10 -57q-4 -24 -28 -24h-232l-50 -279q-4 -25 -28 -25h-78q-15 0 -20 5t-2 22l113 640q5 25 27 25h377q23 0 17 -21z" />
    <glyph glyph-name="G" unicode="G" horiz-adv-x="694" 
d="M640 653q0 -8 -5 -16l-33 -60q-7 -14 -17 -14q-4 0 -14 4q-23 11 -59.5 20t-71.5 9q-41 0 -80.5 -14.5t-70.5 -42.5q-37 -33 -63 -81t-37 -110q-4 -20 -5.5 -37.5t-1.5 -34.5q0 -85 40.5 -132.5t115.5 -47.5q31 0 62.5 4.5t53.5 12.5l34 191h-89q-20 0 -20 16q0 2 0.5 3
t0.5 3l11 61q2 12 9 16t18 4h194q21 0 21 -15q0 -5 -1 -8l-55 -312q-3 -15 -9 -22.5t-22 -15.5q-23 -11 -51 -19.5t-59 -14.5t-62.5 -9t-59.5 -3q-67 0 -117.5 19t-84.5 54t-51.5 84.5t-17.5 110.5q0 21 2 43t6 45q14 78 50 144.5t88.5 114.5t119.5 75t144 27q48 0 91.5 -9
t85.5 -29q10 -5 10 -14z" />
    <glyph glyph-name="H" unicode="H" horiz-adv-x="703" 
d="M563 25q-4 -25 -28 -25h-79q-26 0 -22 25l50 279h-284l-50 -279q-4 -25 -29 -25h-78q-27 0 -23 25l114 643q2 13 10.5 18.5t20.5 5.5h78q12 0 17.5 -5t3.5 -19l-46 -261h284l46 261q4 24 30 24h79q12 0 17 -5t3 -19z" />
    <glyph glyph-name="I" unicode="I" horiz-adv-x="417" 
d="M400 629q-2 -12 -8 -16.5t-17 -4.5h-57l-92 -524h54q11 0 15 -6t2 -15l-7 -43q-3 -20 -22 -20h-238q-20 0 -17 19l8 45q4 20 24 20h53l92 524h-58q-19 0 -16 20l7 44q2 8 7.5 14t14.5 6h245q11 0 15.5 -5.5t2.5 -13.5z" />
    <glyph glyph-name="J" unicode="J" horiz-adv-x="434" 
d="M333 230q-12 -69 -36.5 -119.5t-68.5 -80.5q-58 -40 -153 -40q-14 0 -32 2t-35 5q-13 2 -12.5 9t2.5 17l15 56q4 18 26 15l28 -4t25 -2q20 0 39.5 6.5t32.5 20.5q26 29 38 93l70 400h-113q-12 0 -15.5 6.5t-1.5 15.5l7 41q3 21 25 21h217q25 0 20 -23z" />
    <glyph glyph-name="K" unicode="K" horiz-adv-x="611" 
d="M319 358l208 -327q7 -11 5.5 -21t-17.5 -10h-100q-18 0 -27 6t-17 19l-167 277h-2l-49 -277q-4 -25 -28 -25h-80q-25 0 -21 25l114 643q4 24 29 24h80q12 0 17 -5t3 -19l-50 -283h2l257 289q16 18 40 18h80q13 0 14 -8.5t-6 -16.5z" />
    <glyph glyph-name="L" unicode="L" horiz-adv-x="508" 
d="M430 24q-2 -14 -9.5 -19t-18.5 -5h-356q-14 0 -19 5.5t-2 22.5l113 639q5 25 28 25h80q14 0 18 -6t2 -20l-98 -559h253q25 0 20 -23z" />
    <glyph glyph-name="M" unicode="M" horiz-adv-x="888" 
d="M754 27q-2 -12 -8.5 -19.5t-19.5 -7.5h-81q-16 0 -19 8t-1 25l57 406h-2l-244 -421q-7 -12 -14.5 -15t-15.5 -3h-35q-11 0 -18 3.5t-10 15.5l-115 420h-2l-82 -414q-3 -17 -10 -21t-21 -4h-68q-15 0 -19.5 6t-1.5 20l137 639q3 16 10 21.5t19 5.5h59q15 0 21 -5.5
t9 -16.5l144 -494h2l298 494q7 11 14.5 16.5t21.5 5.5h59q22 0 19 -22z" />
    <glyph glyph-name="N" unicode="N" horiz-adv-x="742" 
d="M607 27q-3 -17 -10.5 -22t-18.5 -5h-67q-22 0 -34 21l-248 446h-2l-77 -441q-4 -26 -31 -26h-72q-14 0 -20 5t-3 20l113 640q3 16 10.5 21.5t21.5 5.5h65q12 0 18.5 -4t12.5 -15l249 -452h2l78 445q4 26 31 26h75q16 0 18.5 -7.5t0.5 -19.5z" />
    <glyph glyph-name="O" unicode="O" horiz-adv-x="710" 
d="M672 443q0 -82 -26 -163.5t-75 -146t-121 -105t-163 -40.5q-121 0 -182 69.5t-61 190.5q0 48 9 96t26 93.5t42.5 86.5t58.5 75q47 48 110.5 77t137.5 29q62 0 108 -19t76 -53.5t45 -83t15 -106.5zM533 440q0 75 -28.5 115.5t-94.5 40.5q-40 0 -73 -16.5t-58 -43.5
t-43.5 -62.5t-30.5 -73.5t-17.5 -76.5t-5.5 -71.5q0 -72 29.5 -113.5t95.5 -41.5q62 0 105 34.5t70 86t39 111.5t12 111z" />
    <glyph glyph-name="P" unicode="P" horiz-adv-x="571" 
d="M561 516q0 -51 -21 -101t-56 -85q-43 -44 -103 -65.5t-129 -21.5q-30 0 -60 3l-39 -222q-4 -24 -29 -24h-80q-20 0 -20 18q0 6 1 9l112 638q2 14 8.5 20.5t21.5 6.5h144q45 0 90 -7t80.5 -26.5t57.5 -54t22 -88.5zM429 511q0 27 -9 43t-25.5 25t-39 11.5t-48.5 2.5h-53
l-44 -249q14 -1 25 -1h25q32 0 65 10.5t53 31.5q23 22 37 54.5t14 71.5z" />
    <glyph glyph-name="Q" unicode="Q" horiz-adv-x="704" 
d="M681 443q0 -60 -14 -120.5t-41.5 -115t-67.5 -99.5t-91 -75l24 -14t25 -13q22 -11 44.5 -18.5t38.5 -14.5q19 -7 12 -25l-23 -56q-6 -14 -14.5 -16.5t-24.5 1.5q-27 6 -50 16.5t-42.5 22.5t-36 24t-29.5 22q-17 12 -30.5 19.5t-38.5 7.5q-7 0 -13 -0.5t-13 -0.5
q-121 0 -182 69.5t-61 190.5q0 48 9 96t26 93.5t42.5 86.5t58.5 75q47 48 110.5 77t137.5 29q62 0 108 -19t76 -53.5t45 -83t15 -106.5zM542 440q0 75 -28.5 115.5t-94.5 40.5q-41 0 -73.5 -16.5t-57.5 -43.5t-43.5 -62.5t-30.5 -73.5t-17.5 -76.5t-5.5 -71.5
q0 -72 29.5 -113.5t95.5 -41.5q62 0 105 34.5t70 86t39 111.5t12 111z" />
    <glyph glyph-name="R" unicode="R" horiz-adv-x="607" 
d="M563 523q0 -41 -12 -78.5t-34 -69t-53 -56.5t-69 -40l120 -253q3 -8 2 -14q-2 -12 -17 -12h-91q-14 0 -22 4.5t-13 15.5l-103 235h-77l-41 -230q-2 -11 -8 -18t-19 -7h-82q-24 0 -20 25l113 638q3 17 9 23t23 6h148q33 0 65 -3t61 -11t53 -22.5t40 -37.5q27 -39 27 -95z
M431 505q0 50 -34 70t-92 20h-51l-43 -243h62q34 0 63 11t50 31t33 48t12 63z" />
    <glyph glyph-name="S" unicode="S" horiz-adv-x="555" 
d="M507 576q-6 -13 -12 -13.5t-19 4.5q-14 6 -31.5 11t-36 9t-36 6.5t-32.5 2.5q-20 0 -40.5 -5t-37.5 -16t-28 -27.5t-11 -38.5q0 -26 18.5 -42.5t38.5 -27.5l102 -54q48 -25 76 -60t28 -91q0 -58 -24.5 -104t-64.5 -77.5t-91 -48t-104 -16.5q-45 0 -91.5 8t-89.5 24
q-14 5 -14 13t5 19l28 65q5 13 14 15.5t21 -2.5q33 -13 69.5 -21.5t74.5 -8.5q23 0 46.5 6.5t42 19.5t30.5 33t12 46q0 27 -17.5 44t-40.5 30l-118 65q-42 23 -66.5 59t-24.5 84q0 52 24.5 92.5t63 68.5t86 42.5t93.5 14.5q94 0 173 -35q13 -6 15 -12.5t-4 -20.5z" />
    <glyph glyph-name="T" unicode="T" horiz-adv-x="590" 
d="M619 609q-4 -14 -12 -17.5t-22 -3.5h-181l-100 -565q-2 -14 -7 -18.5t-18 -4.5h-88q-14 0 -16.5 4t-0.5 18l100 566h-187q-23 0 -19 24l10 59q3 21 26 21h512q10 0 17 -5t4 -16z" />
    <glyph glyph-name="U" unicode="U" horiz-adv-x="735" 
d="M652 307q-13 -73 -40 -132t-70 -100.5t-102 -64t-136 -22.5q-57 0 -101.5 11t-75.5 36.5t-47.5 66.5t-16.5 100q0 26 2.5 53.5t7.5 53.5l63 359q4 24 30 24h76q14 0 19.5 -6.5t1.5 -26.5l-59 -338q-4 -22 -7 -46.5t-3 -47.5q0 -69 32 -99.5t102 -30.5q51 0 85.5 18.5
t57 49t35 71t20.5 84.5l62 348q4 24 29 24h80q18 0 19 -11.5t-1 -20.5z" />
    <glyph glyph-name="V" unicode="V" horiz-adv-x="667" 
d="M349 22q-11 -22 -35 -22h-67q-26 0 -30 25l-133 639q-2 12 3 20t19 8h88q16 0 23 -5t9 -16l90 -494h3l254 491q7 14 16 19t26 5h70q13 0 15.5 -8t-2.5 -17z" />
    <glyph glyph-name="W" unicode="W" horiz-adv-x="955" 
d="M686 27q-12 -27 -38 -27h-66q-24 0 -27 26l-50 458h-2l-210 -455q-8 -17 -16.5 -23t-22.5 -6h-64q-13 0 -19.5 5.5t-8.5 24.5l-79 633q-2 12 2.5 20.5t18.5 8.5h96q16 0 22.5 -6.5t7.5 -18.5l40 -461h1l209 464q10 22 34 22h67q22 0 24 -21l45 -465h2l203 463
q6 14 15 18.5t20 4.5h86q12 0 13 -8.5t-3 -16.5z" />
    <glyph glyph-name="X" unicode="X" horiz-adv-x="621" 
d="M383 366l154 -337q5 -12 -0.5 -20.5t-19.5 -8.5h-95q-26 0 -35 22l-97 233h-1l-179 -233q-9 -12 -18.5 -17t-25.5 -5h-83q-17 0 -16 9.5t8 18.5l265 328l-140 310q-4 8 1 17t15 9h99q23 0 32 -22l87 -207h1l163 210q8 11 15.5 15t21.5 4h92q15 0 13 -10t-8 -17z" />
    <glyph glyph-name="Y" unicode="Y" horiz-adv-x="607" 
d="M363 286l-46 -263q-5 -23 -27 -23h-84q-23 0 -19 25l46 256l-149 387q-4 10 2 17t17 7h91q28 0 34 -19l94 -283h2l191 281q8 12 16.5 16.5t22.5 4.5h72q16 0 17.5 -7.5t-6.5 -17.5z" />
    <glyph glyph-name="Z" unicode="Z" horiz-adv-x="600" 
d="M603 644q-2 -11 -6.5 -20.5t-13.5 -20.5l-417 -497v-2h332q23 0 19 -23l-10 -57q-5 -24 -26 -24h-487q-10 0 -13.5 6t-1.5 15l5 31q3 16 16 32l419 502v2h-292q-25 0 -21 23l10 61q3 20 24 20h448q14 0 17.5 -6t1.5 -16z" />
    <glyph glyph-name="a" unicode="a" horiz-adv-x="583" 
d="M559 96l-8 -49q-3 -20 -22 -30q-9 -5 -35.5 -15.5t-62.5 -10.5q-39 0 -54.5 21t-16.5 47h-2q-29 -33 -69.5 -52t-82.5 -19q-45 0 -77.5 16t-54 43t-31.5 61.5t-10 72.5q0 66 25.5 129.5t72.5 111.5q35 35 85 55.5t104 20.5q49 0 96.5 -11t98.5 -34q10 -5 14 -10.5
t2 -16.5l-52 -292q-3 -15 -3 -27q0 -19 16 -19q13 0 27.5 5.5t25.5 11.5q4 2 6 2q8 0 8 -9v-2zM402 383q-13 5 -31.5 10.5t-47.5 5.5t-56 -12t-44 -31q-32 -33 -47.5 -80t-15.5 -88q0 -43 20.5 -72t63.5 -29q18 0 36 6.5t33.5 16t27.5 21.5t20 24z" />
    <glyph glyph-name="b" unicode="b" horiz-adv-x="569" 
d="M534 322q0 -68 -20 -129t-58.5 -106.5t-95 -72t-129.5 -26.5q-26 0 -52.5 3.5t-50 8t-43 9.5t-31.5 9q-23 8 -18 36l110 623q2 12 7.5 18.5t17.5 8.5l86 11q11 2 13.5 -5t0.5 -15l-44 -246q27 21 63.5 35t75.5 14q41 0 72.5 -13.5t52.5 -37.5t32 -56t11 -69zM407 306
q0 38 -19.5 64t-61.5 26q-28 0 -60.5 -13t-55.5 -32l-45 -249q14 -5 32.5 -9.5t41.5 -4.5q42 0 73.5 20.5t52.5 52t31.5 70.5t10.5 75z" />
    <glyph glyph-name="c" unicode="c" horiz-adv-x="465" 
d="M475 458q0 -3 -1 -6t-3 -7l-23 -54q-6 -14 -13 -14q-2 0 -12 4q-23 11 -42 16.5t-41 5.5q-41 0 -74 -17.5t-56 -46.5t-35 -65.5t-12 -75.5q0 -52 25 -84t79 -32q32 0 55.5 5.5t52.5 16.5q6 2 10 2q10 0 11 -11l9 -47q0 -2 0.5 -3.5t0.5 -3.5q0 -8 -5 -12.5t-17 -9.5
q-74 -31 -150 -31q-98 0 -148 52t-50 140q0 64 21.5 122t61 101.5t95 69t122.5 25.5q34 0 67 -7t62 -21q10 -6 10 -12z" />
    <glyph glyph-name="d" unicode="d" 
d="M569 715q11 2 13.5 -5t0.5 -15l-119 -670q-2 -13 -5.5 -19t-14.5 -6h-71q-20 0 -20 17v3l2 27q-26 -24 -66.5 -41.5t-79.5 -17.5q-47 0 -79.5 15t-53.5 41t-30.5 61t-9.5 76q0 56 19.5 112.5t55 102.5t85.5 74.5t111 28.5q34 0 64.5 -12.5t47.5 -34.5l39 225q2 12 8 18.5
t18 8.5zM401 353q-11 20 -33 34.5t-51 14.5q-25 0 -47 -10t-40 -27q-29 -29 -47.5 -78t-18.5 -106q0 -42 21.5 -68.5t66.5 -26.5q28 0 60 15.5t51 34.5z" />
    <glyph glyph-name="e" unicode="e" horiz-adv-x="530" 
d="M503 330q0 -8 -1 -19.5t-2 -24.5t-3 -25t-3 -20q-3 -18 -11 -22t-27 -4h-292q0 -3 -0.5 -7.5t-0.5 -9.5q0 -54 31.5 -83.5t86.5 -29.5q32 0 65 6.5t64 17.5q8 3 15 3t9 -12l5 -55q1 -11 -3.5 -15.5t-15.5 -9.5q-40 -16 -84.5 -24t-83.5 -8q-102 0 -159 51.5t-57 142.5
q0 65 21.5 122.5t60.5 100.5t93.5 68t120.5 25q81 0 126 -45t45 -123zM387 325q0 36 -15 58t-56 22q-24 0 -46 -10t-39.5 -26t-30.5 -36t-19 -39h203q3 15 3 31z" />
    <glyph glyph-name="f" unicode="f" horiz-adv-x="374" 
d="M461 692q0 -2 -2 -10l-18 -53q-5 -15 -16 -15q-3 0 -11 2q-14 5 -29.5 9t-33.5 4q-23 0 -38.5 -8t-26.5 -21.5t-17.5 -32.5t-10.5 -40l-8 -42h111q20 0 17 -17l-8 -47q-3 -19 -23 -19h-111l-103 -571q-2 -14 -9 -21t-21 -7h-72q-24 0 -19 26l103 573h-54q-11 0 -15 2
t-4 10q0 3 2 13l7 38q3 20 22 20h56l6 28q10 45 23 85.5t46 74.5q26 26 61.5 40.5t82.5 14.5q25 0 53.5 -5.5t48.5 -15.5q11 -6 11 -15z" />
    <glyph glyph-name="g" unicode="g" horiz-adv-x="574" 
d="M524 450q14 -5 18 -11t2 -17l-71 -389q-23 -122 -89 -187t-192 -65q-37 0 -73 7.5t-70 23.5q-13 6 -13 16q0 6 4 13l26 52q7 14 15 14q7 0 15 -4q26 -11 54 -18.5t54 -7.5q35 0 60 10.5t41.5 28.5t26 42t15.5 52l8 40q-13 -11 -30 -20.5t-36 -16t-38 -10.5t-35 -4
q-92 0 -137 57q-19 24 -27.5 57t-8.5 68q0 66 21.5 123.5t61 100.5t95 67.5t124.5 24.5q18 0 41 -3.5t47 -10t47.5 -15t43.5 -18.5zM412 374q-16 13 -41 19.5t-50 6.5q-36 0 -64 -18t-47 -46.5t-28.5 -62.5t-9.5 -66q0 -22 4 -44.5t18 -38.5q11 -14 29 -20.5t38 -6.5
q29 0 60.5 14.5t50.5 33.5z" />
    <glyph glyph-name="h" unicode="h" horiz-adv-x="581" 
d="M532 376q0 -14 -2 -35t-7 -45l-49 -276q-2 -11 -5.5 -15.5t-13.5 -4.5h-88q-15 0 -15 11v4.5t1 4.5l49 278q2 9 3 17t1 16q0 28 -13.5 44.5t-48.5 16.5q-29 0 -65.5 -14t-63.5 -34l-57 -324q-2 -11 -6.5 -15.5t-15.5 -4.5h-86q-14 0 -14 11q0 2 0.5 3.5t0.5 3.5l117 661
q2 14 8.5 18.5t17.5 6.5l84 10q11 1 13 -5t0 -14l-44 -251q36 26 82 40t86 14q69 0 100 -32.5t31 -89.5z" />
    <glyph glyph-name="i" unicode="i" horiz-adv-x="275" 
d="M268 624q0 -16 -6.5 -29.5t-18 -23.5t-25.5 -16t-29 -6q-23 0 -40.5 13.5t-17.5 37.5q0 16 7 30t18 24t26 15.5t30 5.5q23 0 39.5 -13.5t16.5 -37.5zM214 485q16 1 19.5 -5.5t1.5 -17.5l-77 -437q-4 -25 -30 -25h-70q-25 0 -21 25l77 437q4 23 30 23h70z" />
    <glyph glyph-name="j" unicode="j" horiz-adv-x="315" 
d="M303 623q0 -32 -24.5 -53.5t-55.5 -21.5q-23 0 -40 13.5t-17 37.5q0 32 24.5 54t55.5 22q23 0 40 -14t17 -38zM248 485q14 1 17.5 -5.5t1.5 -16.5l-77 -440q-12 -69 -36 -118t-65 -79q-29 -22 -66 -33t-88 -11q-14 0 -31 2t-34 5q-14 3 -14 14q0 3 2 11l20 56q5 13 15 13
h3q7 -1 13.5 -2t13.5 -1q35 0 66.5 12t48.5 37q19 29 28 77l80 457q2 11 9.5 16.5t18.5 5.5h74z" />
    <glyph glyph-name="k" unicode="k" horiz-adv-x="497" 
d="M499 476q0 -6 -6 -12l-175 -180l117 -253q4 -8 4 -16q0 -15 -21 -15h-86q-14 0 -22.5 4.5t-13.5 16.5l-91 210l-13 -10l-35 -196q-4 -25 -27 -25h-75q-14 0 -17.5 7t-1.5 17l116 656q2 12 8 17t17 7l84 11q10 2 13 -5.5t1 -16.5l-71 -402h2l163 180q8 8 13.5 11t15.5 3
h89q12 0 12 -9z" />
    <glyph glyph-name="l" unicode="l" horiz-adv-x="264" 
d="M261 714q12 1 14.5 -6t0.5 -15l-118 -668q-4 -25 -26 -25h-76q-20 0 -20 18q0 2 0.5 3t0.5 3l116 656q2 13 7.5 17.5t16.5 6.5z" />
    <glyph glyph-name="m" unicode="m" horiz-adv-x="864" 
d="M815 365q0 -19 -2.5 -40t-7.5 -47l-44 -253q-4 -25 -29 -25h-70q-25 0 -21 25l48 274q3 18 3 33q0 28 -12.5 45t-48.5 17q-29 0 -62 -13t-59 -32l-53 -324q-4 -25 -29 -25h-66q-25 0 -21 25l48 274q2 10 3 19.5t1 17.5q0 26 -12.5 42t-46.5 16q-29 0 -60.5 -14.5
t-59.5 -35.5l-56 -319q-4 -25 -30 -25h-70q-25 0 -21 25l77 437q4 23 28 23h65q24 0 21 -19l-3 -25q35 27 76.5 42t80.5 15q46 0 74 -18t41 -47q40 32 88.5 48.5t94.5 16.5q55 0 85.5 -23t41.5 -52q8 -23 8 -58z" />
    <glyph glyph-name="n" unicode="n" horiz-adv-x="577" 
d="M528 365q0 -5 -1 -14t-2 -19.5t-2.5 -20.5t-2.5 -17l-48 -268q-2 -13 -8 -19.5t-20 -6.5h-72q-17 0 -19.5 7.5t-0.5 18.5l48 272q2 10 3 21t1 19q0 27 -14 40.5t-49 13.5q-29 0 -64.5 -14t-62.5 -34l-56 -319q-4 -25 -28 -25h-73q-14 0 -18 6.5t-2 17.5l77 436
q2 12 8.5 18.5t20.5 6.5h65q24 0 21 -19l-4 -26q39 28 84 43t89 15q70 0 100 -35.5t30 -97.5z" />
    <glyph glyph-name="o" unicode="o" horiz-adv-x="565" 
d="M530 302q0 -64 -21 -121t-59.5 -100t-93.5 -68t-123 -25q-50 0 -87 15.5t-61.5 42.5t-36.5 64t-12 79q0 63 21 119t60 98t93.5 67t120.5 25q50 0 87.5 -15t62 -41.5t37 -62.5t12.5 -77zM404 293q0 22 -4 42t-14.5 35t-27.5 24t-42 9q-35 0 -63.5 -17.5t-48.5 -47t-31 -67
t-11 -76.5q0 -23 4 -43t13.5 -35.5t26 -24.5t42.5 -9q40 0 69.5 20t48.5 51t28.5 68t9.5 71z" />
    <glyph glyph-name="p" unicode="p" horiz-adv-x="572" 
d="M537 304q0 -56 -19.5 -112.5t-55 -102.5t-85.5 -74.5t-111 -28.5q-34 0 -64 12.5t-47 34.5l-40 -225q-2 -12 -8 -18.5t-18 -8.5l-85 -11q-11 -2 -13 5t0 15l118 670q2 13 5.5 19t14.5 6h71q23 0 21 -20l-3 -27q26 24 66.5 41.5t79.5 17.5q46 0 79 -15t54 -41t30.5 -61.5
t9.5 -75.5zM410 304q0 42 -22 68.5t-67 26.5q-28 0 -60 -15.5t-51 -34.5l-38 -217q11 -20 33 -34.5t51 -14.5q25 0 47 10t40 27q29 29 48 78t19 106z" />
    <glyph glyph-name="q" unicode="q" horiz-adv-x="568" 
d="M535 441q0 -7 -1 -10l-110 -623q-2 -12 -7.5 -18.5t-17.5 -8.5l-86 -11q-7 0 -12 3t-3 11l45 252q-27 -21 -63.5 -35t-75.5 -14q-41 0 -72.5 13.5t-52.5 37.5t-32 56t-11 69q0 68 20 129t58.5 106.5t95 72t129.5 26.5q26 0 52.5 -3.5t50 -8t43 -9.5t31.5 -9q19 -6 19 -26
zM405 383q-14 5 -32.5 9.5t-41.5 4.5q-42 0 -73.5 -20.5t-52.5 -52t-31.5 -70.5t-10.5 -75q0 -38 19.5 -64t61.5 -26q28 0 60.5 13t55.5 32z" />
    <glyph glyph-name="r" unicode="r" horiz-adv-x="360" 
d="M356 498q6 0 13 -1t14 -3q11 -4 7 -16l-25 -77q-4 -13 -15 -13q-8 0 -16 1.5t-16 1.5q-26 0 -53.5 -12.5t-50.5 -35.5l-56 -318q-5 -25 -29 -25h-73q-20 0 -20 18q0 2 0.5 3.5t0.5 3.5l76 435q2 15 10.5 20t19.5 5h64q24 0 21 -19l-4 -32q28 29 59 46.5t73 17.5z" />
    <glyph glyph-name="s" unicode="s" horiz-adv-x="431" 
d="M420 456q0 -4 -4 -12l-22 -54q-5 -11 -16 -11q-4 0 -10 2q-25 10 -52.5 17t-54.5 7q-12 0 -25 -3.5t-23.5 -10t-17 -17t-6.5 -24.5q0 -12 7.5 -20.5t20 -15.5t28.5 -13.5t33 -13.5q20 -8 39.5 -18t35.5 -24t25.5 -33t9.5 -45q0 -34 -15.5 -65.5t-39.5 -54.5
q-32 -30 -76 -44.5t-92 -14.5q-16 0 -35.5 2.5t-39 7t-37.5 11t-32 14.5q-9 5 -9 13q0 4 4 12l21 51q2 5 6 9.5t10 4.5q3 0 5.5 -0.5t5.5 -1.5q29 -12 58.5 -21.5t61.5 -9.5q14 0 29 3.5t27 11t20 19t8 28.5q0 13 -8.5 23t-22 17.5t-31 14t-35.5 13.5q-20 8 -39.5 17.5
t-34.5 23.5t-24.5 33.5t-9.5 46.5q0 41 19 72.5t49 52.5t67 31.5t73 10.5q34 0 72 -6.5t68 -23.5q9 -5 9 -12z" />
    <glyph glyph-name="t" unicode="t" horiz-adv-x="394" 
d="M373 421q-3 -19 -23 -19h-112l-38 -215q-5 -25 -6 -37t-1 -23q0 -25 12 -34t37 -9q17 0 33 3.5t33 8.5q6 2 10 2q11 0 11 -12l1 -55v-1q0 -13 -13 -18q-32 -13 -62 -18.5t-59 -5.5q-26 0 -49.5 6.5t-41 20t-28 34.5t-10.5 50q0 21 3 39.5t7 40.5l40 223h-48q-8 0 -15 4
t-5 13l9 46q3 20 22 20h51l20 109q2 13 9.5 17.5t19.5 6.5q16 2 38.5 5.5t36.5 3.5q13 0 16.5 -5t1.5 -17l-21 -120h113q7 0 12.5 -4.5t3.5 -12.5z" />
    <glyph glyph-name="u" unicode="u" horiz-adv-x="574" 
d="M462 28q-2 -14 -9 -21t-22 -7h-64q-8 0 -14 4t-6 13q0 7 1 14l2 14q-37 -26 -80 -41.5t-89 -15.5q-63 0 -97 30.5t-34 95.5q0 25 5 53l52 295q4 23 30 23h70q25 0 21 -23l-49 -274q-3 -18 -3 -35q0 -31 15.5 -44.5t45.5 -13.5q31 0 66 14.5t59 33.5l56 319q4 23 29 23h71
q25 0 21 -23z" />
    <glyph glyph-name="v" unicode="v" horiz-adv-x="504" 
d="M521 473q0 -5 -4 -12l-253 -442q-7 -11 -14.5 -15t-18.5 -4h-52q-11 0 -18 3.5t-9 14.5l-93 446q-2 11 2 16t18 5h88q13 0 18 -5t7 -15l35 -233q3 -23 6 -45.5t5 -39.5h1q7 14 17 37.5t21 44.5l119 235q6 13 13.5 17t21.5 4h72q18 0 18 -12z" />
    <glyph glyph-name="w" unicode="w" horiz-adv-x="734" 
d="M755 475q0 -5 -3 -11l-212 -440q-5 -11 -13 -17.5t-22 -6.5h-68q-14 0 -19 6.5t-7 18.5l-33 285h-2l-133 -287q-6 -12 -14 -17.5t-22 -5.5h-67q-12 0 -18.5 6.5t-8.5 17.5l-53 440q-3 21 23 21h82q14 0 18.5 -5t5.5 -14l17 -316h1l148 315q5 11 13 15.5t18 4.5h56
q23 0 24 -17l34 -320h1l131 315q5 11 12 16.5t21 5.5h77q13 0 13 -10z" />
    <glyph glyph-name="x" unicode="x" horiz-adv-x="518" 
d="M535 477q0 -7 -6 -13l-188 -199l125 -238q3 -6 3 -10q0 -7 -5.5 -12t-14.5 -5h-100q-15 0 -21.5 4.5t-10.5 13.5l-67 153h-1l-122 -151q-16 -20 -42 -20h-87q-9 0 -9 7q0 5 3 10t5 8l209 226l-110 212q-2 4 -2 7q0 6 5 10.5t12 4.5h102q22 0 28 -16l57 -126h1l104 125
q14 17 32 17h89q11 0 11 -8z" />
    <glyph glyph-name="y" unicode="y" horiz-adv-x="529" 
d="M558 474q0 -5 -4 -13l-289 -518q-25 -44 -50 -75t-54.5 -50t-64.5 -27.5t-80 -8.5q-14 0 -26.5 1t-25.5 4q-14 3 -13.5 10t3.5 16l17 54q4 11 8 13.5t12 2.5q11 0 20 -1.5t20 -1.5q47 0 73 17t47 52l27 45l-99 469q-2 9 1.5 15.5t15.5 6.5h96q19 0 22 -17l53 -331
l162 325q11 23 34 23h81q14 0 14 -11z" />
    <glyph glyph-name="z" unicode="z" horiz-adv-x="447" 
d="M434 485q11 0 16 -4.5t4 -10.5l-6 -34q-2 -9 -5 -17t-11 -16l-276 -318v-2h216q20 0 17 -17l-8 -47q-3 -19 -23 -19h-339q-11 0 -16 5t-5 13q0 2 1 6.5t5 24.5q2 11 5 17.5t11 16.5l272 318v1h-185q-19 0 -19 14q0 2 1 9.5t6 38.5q2 9 7.5 15t15.5 6h316z" />
    <glyph glyph-name="ampersand" unicode="&#x26;" horiz-adv-x="679" 
d="M671 421q-4 -16 -7.5 -29t-8.5 -27q-22 -63 -53.5 -115t-77.5 -98q23 -26 52.5 -41.5t61.5 -26.5q11 -4 11 -9.5t-4 -15.5l-25 -54q-7 -14 -23 -14q-21 0 -44 7.5t-45.5 19.5t-41.5 27.5t-32 31.5q-53 -40 -112.5 -64.5t-126.5 -24.5q-38 0 -73 10.5t-61.5 31.5t-42.5 52
t-16 72q0 45 17.5 81.5t45.5 66.5t63 53.5t71 43.5q-20 30 -38.5 60t-18.5 68q0 40 18.5 72.5t48.5 56t67 36.5t74 13q28 0 54.5 -7.5t47 -23t33 -38.5t12.5 -54q0 -33 -13.5 -61t-34.5 -51.5t-47.5 -42.5t-51.5 -35l119 -170q32 34 55 74.5t38 84.5l11 41q2 11 6 14.5
t16 3.5h60q20 0 16 -19zM389 565q0 24 -14.5 37t-37.5 13q-29 0 -51 -20t-22 -49q0 -23 14 -44.5t26 -40.5q12 8 27 19t28 24.5t21.5 29t8.5 31.5zM246 331q-20 -13 -41 -28.5t-38 -34.5t-28 -41.5t-11 -48.5q0 -44 29 -67t71 -23q40 0 80 15t70 41z" />
    <glyph glyph-name="at" unicode="@" horiz-adv-x="847" 
d="M809 456q0 -50 -18 -104t-50 -99t-77.5 -74t-100.5 -29q-17 0 -33 4t-28.5 12.5t-19.5 22t-7 33.5h-1q-23 -27 -54 -45t-68 -18q-49 0 -71.5 28.5t-22.5 74.5q0 43 18 90.5t49 87t73 65t89 25.5q24 0 45 -12.5t26 -38.5l8 19q4 8 8 13.5t14 5.5h45q17 0 10 -15l-84 -202
q-5 -13 -11 -31t-6 -32q0 -34 34 -34q37 0 65.5 26t48.5 63t30.5 78.5t10.5 71.5q0 48 -17 83t-46.5 57t-68.5 32.5t-83 10.5q-72 0 -136.5 -31.5t-113.5 -83t-77.5 -118.5t-28.5 -137q0 -51 17.5 -87.5t48 -60t71.5 -34t88 -10.5q46 0 90.5 8.5t87.5 23.5q7 2 11 1t6 -9
l8 -40q1 -5 -1.5 -9t-10.5 -8q-47 -22 -105 -32t-109 -10q-61 0 -118.5 14.5t-101.5 45.5t-71 79.5t-27 117.5q0 63 19 122t52.5 110t79.5 93t100.5 72t114 46.5t121.5 16.5q58 0 109 -16t88.5 -47t59 -78t21.5 -108zM525 413q-2 19 -11.5 32.5t-30.5 13.5q-25 0 -47 -19
t-39 -46.5t-27 -57.5t-10 -51q0 -17 7.5 -31t27.5 -14q10 0 21.5 5t22.5 13t20.5 17t16.5 18z" />
    <glyph glyph-name="exclam" unicode="!" horiz-adv-x="252" 
d="M168 196q-4 -19 -23 -19h-55q-12 0 -15 4.5t-1 15.5l74 476q2 11 6 15t15 4h79q20 0 16 -20zM162 64q0 -31 -24 -53.5t-55 -22.5q-23 0 -40.5 13.5t-17.5 38.5q0 16 6.5 30t18 24t26 16t30.5 6q23 0 39.5 -13.5t16.5 -38.5z" />
    <glyph glyph-name="exclamdown" unicode="&#xa1;" horiz-adv-x="252" 
d="M113.993 290.982q4 18.999 22.998 18.999h54.9971q11.999 0 14.999 -4.5t1 -15.499l-73.9951 -475.971q-2 -11 -6 -14.999q-4 -4 -14.999 -4h-78.9951q-19.999 0 -15.999 19.999zM119.992 422.975q0 30.998 23.999 53.4961q23.999 22.499 54.9971 22.499
q22.998 0 40.4971 -13.499q17.499 -13.5 17.499 -38.498q0 -15.999 -6.5 -29.998q-6.49902 -13.999 -17.999 -23.999q-11.499 -9.99902 -25.998 -15.999q-14.499 -5.99902 -30.498 -5.99902q-22.999 0 -39.498 13.499t-16.499 38.498z" />
    <glyph glyph-name="question" unicode="?" horiz-adv-x="455" 
d="M455 567q0 -54 -28 -97t-66 -77l-86 -77q-12 -11 -21.5 -21t-17 -20.5t-12.5 -23t-9 -29.5q-2 -10 -3 -15.5t-3 -14.5q-2 -7 -4 -11t-10 -4h-66q-13 0 -14.5 7t-1.5 17q0 45 15 84t56 74l86 74q25 21 46 48t21 62q0 18 -7 31t-19 20.5t-27 11t-31 3.5q-27 0 -55.5 -9
t-53.5 -20q-2 -1 -4.5 -2t-5.5 -1q-8 0 -10 9l-14 53q-2 6 0.5 11.5t14.5 12.5q18 10 39 17.5t43 13t44.5 8.5t42.5 3q31 0 60.5 -9t51.5 -26t35.5 -43t13.5 -60zM209 64q0 -32 -24 -54t-55 -22q-23 0 -40.5 13.5t-17.5 38.5q0 16 6.5 30t17.5 24t25.5 16t30.5 6
q23 0 40 -13.5t17 -38.5z" />
    <glyph glyph-name="questiondown" unicode="&#xbf;" horiz-adv-x="455" 
d="M64.9961 -79.9951q0 53.9971 27.998 96.9941t65.9961 76.9951l85.9951 76.9951q11.999 11 21.498 20.999q9.5 9.99902 16.999 20.499q7.5 10.499 12.5 22.998q4.99902 12.499 8.99902 29.498q2 10 3 15.499q1 5.5 3 14.5q1.99902 6.99902 3.99902 10.999t10 4h65.9961
q12.999 0 14.499 -7q1.5 -6.99902 1.5 -16.999q0 -44.9971 -14.999 -83.9951q-15 -38.9971 -55.9971 -73.9951l-85.9951 -73.9951q-24.998 -20.999 -45.9971 -47.9971q-20.998 -26.999 -20.998 -61.9961q0 -17.999 6.99902 -30.999q7 -12.999 18.999 -20.498
q11.999 -7.5 26.998 -11q14.999 -3.49902 30.998 -3.49902q26.999 0 55.4971 8.99902t53.4961 19.999q2 1 4.5 2t5.5 1q7.99902 0 9.99902 -9l13.999 -52.9961q2 -6 -0.5 -11.5q-2.49902 -5.49902 -14.499 -12.499q-17.999 -9.99902 -38.9971 -17.499
q-20.999 -7.49902 -42.998 -12.999q-21.998 -5.5 -44.4971 -8.5q-22.498 -2.99902 -42.4971 -2.99902q-30.998 0 -60.4961 8.99902t-51.4971 25.998t-35.498 42.998q-13.499 25.998 -13.499 59.9961zM310.981 422.975q0 31.998 23.998 53.9961q23.999 21.999 54.9971 21.999
q22.998 0 40.4971 -13.499q17.499 -13.5 17.499 -38.498q0 -15.999 -6.5 -29.998q-6.49902 -13.999 -17.498 -23.999q-11 -9.99902 -25.499 -15.999q-14.499 -5.99902 -30.498 -5.99902q-22.999 0 -39.9971 13.499q-16.999 13.499 -16.999 38.498z" />
    <glyph glyph-name="asterisk" unicode="*" horiz-adv-x="382" 
d="M334 594q2 -11 -1.5 -16.5t-16.5 -7.5l-90 -9l54 -61q9 -11 5.5 -17.5t-13.5 -13.5l-39 -28q-8 -6 -16 -8t-11 12l-21 91l-53 -92q-6 -10 -11 -11t-13 5l-36 31q-10 8 -6.5 15.5t11.5 13.5l78 63l-95 9q-8 1 -9 7t2 11l30 59q9 17 24 7l70 -50l-4 95q-1 10 2 15t14 5h50
q12 0 16.5 -3.5t-0.5 -16.5l-37 -95l85 48q9 5 15.5 5t8.5 -13z" />
    <glyph glyph-name="period" unicode="." horiz-adv-x="234" 
d="M195 66q0 -16 -7 -30.5t-19 -25t-27 -17t-31 -6.5q-24 0 -42 14.5t-18 39.5q0 34 25.5 57t58.5 23q24 0 42 -14.5t18 -40.5z" />
    <glyph glyph-name="comma" unicode="," horiz-adv-x="232" 
d="M202 56q0 -29 -12 -57.5t-31.5 -54.5t-43 -48t-46.5 -36q-13 -8 -20 -8q-6 0 -13 10l-8 12q-3 5 -2 10q1 6 9 12q12 10 24 22.5t20 25.5q4 7 7 14.5t3 15.5q0 9 -4 17.5t-9.5 17t-9.5 17.5t-4 20q0 16 7 30.5t18 24.5t25.5 16t29.5 6q29 0 44.5 -20t15.5 -47z" />
    <glyph glyph-name="colon" unicode=":" horiz-adv-x="285" 
d="M275 442q0 -16 -7 -30.5t-19 -25t-27 -17t-31 -6.5q-24 0 -42 15t-18 40q0 34 25.5 57t58.5 23q25 0 42.5 -15t17.5 -41zM209 68q0 -16 -7 -30.5t-19 -25.5t-27 -17.5t-31 -6.5q-24 0 -42 15t-18 40q0 34 25.5 56.5t58.5 22.5q24 0 42 -14t18 -40z" />
    <glyph glyph-name="semicolon" unicode=";" horiz-adv-x="301" 
d="M284 442q0 -16 -7 -30.5t-19 -25t-27 -17t-31 -6.5q-24 0 -42 15t-18 40q0 17 7 31.5t19 25.5t27 17t31 6q25 0 42.5 -15t17.5 -41zM214 56q0 -29 -12 -57.5t-31.5 -54.5t-43 -48t-46.5 -36q-13 -8 -20 -8q-6 0 -13 10l-8 12q-3 5 -2 10q1 6 9 12q12 10 24 22.5t20 25.5
q4 7 7 14.5t3 15.5q0 9 -4 17.5t-9.5 17t-9.5 17.5t-4 20q0 16 7 30.5t18 24.5t25.5 16t29.5 6q29 0 44.5 -20t15.5 -47z" />
    <glyph glyph-name="ellipsis" unicode="&#x2026;" horiz-adv-x="1015" 
d="M897 67q0 -17 -7 -31.5t-18.5 -25t-26.5 -17t-31 -6.5q-24 0 -42.5 14.5t-18.5 39.5q0 17 7 32t19 25.5t27.5 16.5t31.5 6q24 0 41.5 -14t17.5 -40zM579 66q0 -16 -7 -30.5t-19 -25t-27 -17t-31 -6.5q-24 0 -42 14t-18 40q0 34 25.5 57t58.5 23q24 0 42 -14.5t18 -40.5z
M261 67q0 -17 -7 -31.5t-18.5 -25t-26.5 -17t-31 -6.5q-24 0 -42.5 14.5t-18.5 39.5q0 17 7 32t19 25.5t27.5 16.5t31.5 6q24 0 41.5 -14t17.5 -40z" />
    <glyph glyph-name="periodcentered" unicode="&#xb7;" horiz-adv-x="245" 
d="M197 301q0 -16 -7 -30.5t-19 -25t-27 -17t-31 -6.5q-24 0 -42 14t-18 40q0 34 25.5 57t58.5 23q24 0 42 -14.5t18 -40.5z" />
    <glyph glyph-name="uni22C5" unicode="&#x22c5;" horiz-adv-x="245" 
d="M197 301q0 -16 -7 -30.5t-19 -25t-27 -17t-31 -6.5q-24 0 -42 14t-18 40q0 34 25.5 57t58.5 23q24 0 42 -14.5t18 -40.5z" />
    <glyph glyph-name="bullet" unicode="&#x2022;" horiz-adv-x="519" 
d="M430 294q0 -38 -17 -71.5t-45 -58.5t-63.5 -39.5t-72.5 -14.5q-29 0 -55 9t-45.5 26.5t-31 42t-11.5 54.5q0 38 17.5 72t45.5 59t63.5 39.5t72.5 14.5q29 0 55 -9.5t45.5 -26.5t30.5 -42t11 -55z" />
    <glyph glyph-name="slash" unicode="/" horiz-adv-x="340" 
d="M66 8q-6 -12 -11.5 -16t-18.5 -4h-71q-14 0 -13 8t5 16l327 671q7 14 13.5 18t20.5 4h65q18 0 15.5 -8t-7.5 -19z" />
    <glyph glyph-name="parenleft" unicode="(" horiz-adv-x="342" 
d="M364 693q8 -5 5.5 -12.5t-7.5 -13.5q-45 -51 -83 -105t-65 -113t-42.5 -123t-15.5 -134q0 -72 18.5 -135t53.5 -123q6 -10 2.5 -16.5t-12.5 -11.5l-43 -25q-9 -5 -17 -6t-15 10q-46 75 -72 153t-26 164q0 76 19.5 145.5t53 133t78.5 121.5t96 111q8 8 14.5 10t14.5 -3z
" />
    <glyph glyph-name="brokenbar" unicode="&#xa6;" horiz-adv-x="244" 
d="M238 694q0 -5 -1 -8l-41 -231q-4 -26 -29 -26h-60q-22 0 -22 18q0 5 1 8l41 230q4 24 29 24h61q21 0 21 -15zM159 250q0 -5 -1 -8l-40 -232q-4 -25 -29 -25h-60q-22 0 -22 17q0 5 1 8l40 231q4 24 30 24h61q11 0 15.5 -3t4.5 -12z" />
    <glyph glyph-name="parenright" unicode=")" horiz-adv-x="341" 
d="M298 399q0 -76 -19.5 -145.5t-53 -133t-78.5 -121.5t-96 -111q-8 -8 -14.5 -10t-14.5 3l-43 27q-8 5 -5.5 12.5t7.5 13.5q45 51 83 105t65 113t42.5 123t15.5 134q0 72 -18.5 135t-53.5 123q-6 10 -2.5 16.5t12.5 11.5l43 25q9 5 17 6t15 -10q46 -75 72 -153t26 -164z
" />
    <glyph glyph-name="bracketleft" unicode="[" horiz-adv-x="363" 
d="M390 631q-2 -12 -8 -16.5t-20 -4.5h-93l-116 -659h92q17 0 20 -4t1 -17l-9 -51q-2 -13 -7 -17.5t-22 -4.5h-187q-17 0 -20.5 5.5t-0.5 22.5l140 791q3 19 10 24t21 5h184q17 0 21.5 -4.5t2.5 -18.5z" />
    <glyph glyph-name="backslash" unicode="\" horiz-adv-x="362" 
d="M281 15q2 -11 -0.5 -19.5t-16.5 -8.5h-66q-14 0 -19.5 4t-7.5 18l-90 675q-2 10 2 16.5t15 6.5h70q13 0 18 -4t7 -16z" />
    <glyph glyph-name="bracketright" unicode="]" horiz-adv-x="363" 
d="M204 -114q-3 -19 -10 -24t-21 -5h-184q-17 0 -21 4.5t-2 18.5l9 51q2 12 8 16.5t20 4.5h92l116 659h-91q-17 0 -20 4t-1 17l9 51q2 13 7 17.5t22 4.5h186q17 0 20.5 -5.5t0.5 -22.5z" />
    <glyph glyph-name="braceleft" unicode="{" horiz-adv-x="391" 
d="M413 651q-4 -14 -16 -14h-34q-21 0 -34.5 -8t-22.5 -19.5t-13.5 -24.5t-6.5 -23l-26 -133q-7 -34 -21.5 -59.5t-32.5 -43.5t-37.5 -27.5t-35.5 -10.5v-1q16 -1 32 -9.5t28 -25.5t17 -45t-1 -68l-19 -127q-2 -10 -2 -23t4.5 -24.5t15 -19.5t31.5 -8h30q19 0 16 -15l-8 -42
q-2 -11 -7 -14.5t-16 -3.5h-61q-62 0 -96.5 37t-23.5 108l21 139q8 48 -2.5 74t-42.5 30q-14 2 -16.5 5.5t-0.5 11.5l7 38q3 19 22 20q35 4 54.5 30t27.5 66l28 146q7 35 23.5 62t40 45.5t51.5 28t57 9.5h70q11 0 12.5 -3.5t-0.5 -13.5z" />
    <glyph glyph-name="bar" unicode="|" horiz-adv-x="244" 
d="M116 2q-2 -14 -7 -19t-20 -5h-59q-14 0 -20 4.5t-4 18.5l122 692q4 22 24 22h66q24 0 20 -21z" />
    <glyph glyph-name="braceright" unicode="}" horiz-adv-x="391" 
d="M353 269q-3 -19 -22 -20q-35 -4 -54.5 -30t-27.5 -66l-28 -146q-7 -35 -23.5 -62t-40 -45.5t-51.5 -28t-57 -9.5h-70q-11 0 -12.5 3.5t0.5 13.5l12 44q4 14 16 14h34q21 0 34.5 8t22.5 19.5t13.5 24.5t6.5 23l26 133q7 34 21.5 59.5t32.5 43.5t37.5 27.5t35.5 10.5v1
q-16 1 -32 9.5t-28 25.5t-17 45t1 68l19 127q1 10 1.5 23t-4 24.5t-15 19.5t-31.5 8h-30q-19 0 -16 15l8 42q2 11 7 14.5t16 3.5h61q62 0 96 -37.5t24 -107.5l-21 -139q-8 -48 2.5 -74t42.5 -30q14 -2 16.5 -5.5t0.5 -11.5z" />
    <glyph glyph-name="hyphen" unicode="-" horiz-adv-x="302" 
d="M255 233q-4 -27 -30 -27h-168q-14 0 -18 7t-2 19l12 65q2 13 7.5 18.5t19.5 5.5h168q15 0 19.5 -5.5t2.5 -19.5z" />
    <glyph glyph-name="uni00AD" unicode="&#xad;" horiz-adv-x="302" 
d="M255 233q-4 -27 -30 -27h-168q-14 0 -18 7t-2 19l12 65q2 13 7.5 18.5t19.5 5.5h168q15 0 19.5 -5.5t2.5 -19.5z" />
    <glyph glyph-name="endash" unicode="&#x2013;" horiz-adv-x="515" 
d="M503 233q-4 -27 -30 -27h-451q-14 0 -18 7t-2 19l12 65q2 13 7.5 18.5t19.5 5.5h451q15 0 19.5 -5.5t2.5 -19.5z" />
    <glyph glyph-name="emdash" unicode="&#x2014;" horiz-adv-x="1015" 
d="M1003 233q-4 -27 -30 -27h-951q-14 0 -18 7t-2 19l12 65q2 13 7.5 18.5t19.5 5.5h951q15 0 19.5 -5.5t2.5 -19.5z" />
    <glyph glyph-name="underscore" unicode="_" horiz-adv-x="519" 
d="M508 -121q-2 -11 -5.5 -15t-14.5 -4h-463q-13 0 -16 3.5t-1 11.5l4 26q2 9 6 12t14 3h463q14 0 16.5 -3t0.5 -14z" />
    <glyph glyph-name="dagger" unicode="&#x2020;" horiz-adv-x="527" 
d="M489 380q-2 -11 -7 -14t-15 -3l-146 2l-63 -345q-2 -11 -7 -15.5t-16 -4.5h-68q-10 0 -12 4t0 17l56 344l-145 -2q-11 0 -14 3.5t-1 12.5l11 66q2 10 6.5 13t12.5 3l147 -1l35 213q2 11 6 15t15 4h80q8 0 12.5 -5t2.5 -12l-40 -215l145 1q19 0 16 -16z" />
    <glyph glyph-name="daggerdbl" unicode="&#x2021;" horiz-adv-x="527" 
d="M500 442q-2 -11 -7 -14t-14 -3l-147 2l-19 -101l136 1q11 0 14 -3.5t1 -12.5l-12 -65q-2 -11 -8 -14t-14 -3l-133 2l-39 -211q-2 -11 -7 -15.5t-16 -4.5h-68q-10 0 -12 4t0 17l35 210l-133 -2q-11 0 -14.5 2.5t-1.5 13.5l12 66q2 10 6 13t12 3l134 -1l17 101l-143 -2
q-11 0 -15 2t-2 14l11 65q2 10 5.5 13.5t13.5 3.5l147 -1l24 151q2 11 5.5 15t14.5 4h81q10 0 13 -5.5t2 -10.5l-29 -154l145 1q10 0 14 -3t2 -14z" />
    <glyph glyph-name="section" unicode="&#xa7;" horiz-adv-x="478" 
d="M428 598q-5 -11 -11.5 -11t-15.5 4q-23 10 -49 16t-49 6q-29 0 -48 -11q-28 -17 -28 -48q0 -22 41 -40l83 -37q32 -14 53.5 -40t21.5 -64q0 -5 -0.5 -11t-1.5 -12q-6 -35 -24 -62.5t-44 -46.5q29 -31 29 -78q0 -32 -15.5 -63.5t-38.5 -52.5q-32 -30 -75.5 -44.5
t-91.5 -14.5q-37 0 -76 9t-72 24q-11 5 -10.5 11.5t4.5 14.5l25 50q5 11 10 14t16 -2q30 -13 63 -21t59 -8q42 0 66 22q18 16 18 41q0 17 -12.5 27.5t-37.5 21.5l-74 31q-35 14 -58 41t-23 69q0 5 0.5 11t1.5 12q6 35 25.5 61t46.5 43q-16 15 -25 35t-9 45q0 33 15 63.5
t41 51.5q31 26 71 38t81 12q38 0 72.5 -6.5t66.5 -21.5q10 -5 10 -10t-4 -13zM312 337q4 21 -11 35.5t-44 26.5l-32 13q-37 -14 -43 -46q-6 -35 45 -58l42 -19l3 -1q15 8 26 21t14 28z" />
    <glyph glyph-name="paragraph" unicode="&#xb6;" horiz-adv-x="550" 
d="M403 -120q-2 -10 -6 -15.5t-15 -5.5h-37q-11 0 -14.5 6t-1.5 16l126 711h-80l-125 -707q-2 -12 -7.5 -19t-19.5 -7h-74q-14 0 -17.5 6.5t-1.5 18.5l82 464q-56 7 -93 45.5t-37 96.5q0 41 18 77.5t48 64.5t68 44t78 16h227q15 0 19 -5.5t2 -19.5z" />
    <glyph glyph-name="registered" unicode="&#xae;" horiz-adv-x="846" 
d="M793 410q0 -84 -36.5 -160.5t-96.5 -135t-138 -93t-161 -34.5q-66 0 -122 21.5t-97 60.5t-64 93.5t-23 121.5q0 85 36 162t96 135t138 92t162 34q64 0 120 -22t97.5 -61t65 -93.5t23.5 -120.5zM701 399q0 50 -17 91.5t-47 71.5t-72 46.5t-92 16.5q-65 0 -124.5 -27
t-104.5 -72.5t-71.5 -105.5t-26.5 -125q0 -50 17 -91.5t47.5 -71.5t72.5 -46.5t92 -16.5q65 0 124 27t104 72.5t71.5 105.5t26.5 125zM562 433q0 -5 -0.5 -10.5t-1.5 -10.5q-6 -35 -27.5 -60.5t-53.5 -39.5l59 -124q3 -6 1 -11.5t-10 -5.5h-49q-13 0 -18 11l-51 116h-35
l-20 -113q-1 -6 -3.5 -10t-10.5 -4h-44q-15 0 -12 14l57 321q2 9 5 13t14 4h41q20 0 47.5 -1t52 -9.5t42 -27t17.5 -52.5zM489 422q0 25 -15.5 35.5t-44.5 10.5h-23l-20 -116h20l17 1q26 2 43 16.5t22 41.5q1 4 1 11z" />
    <glyph glyph-name="copyright" unicode="&#xa9;" horiz-adv-x="846" 
d="M793 410q0 -84 -36.5 -160.5t-96.5 -135t-138 -93t-161 -34.5q-66 0 -122 21.5t-97 60.5t-64 93.5t-23 121.5q0 85 36 162t96 135t138 92t162 34q64 0 120 -22t97.5 -61t65 -93.5t23.5 -120.5zM701 399q0 50 -17 91.5t-47 71.5t-72 46.5t-92 16.5q-65 0 -124.5 -27
t-104.5 -72.5t-71.5 -105.5t-26.5 -125q0 -50 17 -91.5t47.5 -71.5t72.5 -46.5t92 -16.5q65 0 124 27t104 72.5t71.5 105.5t26.5 125zM549 458q-7 -13 -19 -7q-17 10 -33.5 14t-34.5 4q-25 0 -45 -10.5t-34 -28t-23 -39t-13 -43.5q-3 -17 -3 -31q0 -44 19 -68.5t57 -24.5
q34 0 74 16q5 2 9.5 2t6.5 -7l6 -30q2 -8 -0.5 -12t-11.5 -8q-50 -20 -104 -20q-68 0 -99.5 36.5t-31.5 96.5q0 25 4 48q7 39 24 72t42.5 58t58.5 39t71 14q50 0 91 -22q8 -4 8.5 -7.5t-3.5 -10.5z" />
    <glyph glyph-name="trademark" unicode="&#x2122;" horiz-adv-x="762" 
d="M629 418q-1 -7 -5.5 -12t-12.5 -5h-37q-10 0 -12.5 5.5t-0.5 13.5l21 139l-84 -147q-4 -7 -9 -9t-10 -2h-18q-12 0 -15 12l-39 148l-28 -144q-2 -10 -7.5 -13t-12.5 -3h-33q-15 0 -12 17l57 258q3 16 19 16h28q14 0 17 -12l52 -188l114 188q4 6 7.5 9t11.5 3h29
q14 0 12 -14zM351 650q-2 -8 -7.5 -10.5t-11.5 -2.5h-64l-39 -221q-3 -15 -17 -15h-43q-14 0 -11 15l39 221h-66q-15 0 -12 14l5 27q3 14 17 14h208q15 0 10 -15z" />
    <glyph glyph-name="quotedblleft" unicode="&#x201c;" horiz-adv-x="442" 
d="M443 679q-2 -6 -9 -12q-12 -10 -24 -22.5t-20 -25.5q-4 -7 -7 -14.5t-3 -15.5q0 -9 4 -17.5t9.5 -17t9.5 -18t4 -19.5q0 -17 -7 -31t-18 -24t-25.5 -16t-29.5 -6q-29 0 -44.5 20t-15.5 47q0 28 12 57t31.5 55t43 48t46.5 36q13 8 20 8q6 0 13 -10l8 -12q3 -5 2 -10z
M252 679q0 -6 -9 -12q-12 -10 -24 -22.5t-20 -25.5q-4 -7 -7 -14.5t-3 -15.5q0 -9 4 -17.5t9.5 -17t9.5 -18t4 -19.5q0 -17 -7 -31t-18 -24t-25.5 -16t-29.5 -6q-28 0 -44 20t-16 47q0 28 12.5 57t31.5 55t42.5 48t46.5 36q14 8 20 8t13 -10l8 -12q4 -4 2 -10z" />
    <glyph glyph-name="quotedblright" unicode="&#x201d;" horiz-adv-x="442" 
d="M437 630q0 -29 -12.5 -57.5t-31.5 -54.5t-43 -48t-46 -36q-14 -8 -20 -8t-13 10l-8 12q-4 4 -2 10q0 6 9 12q12 10 24 22.5t20 25.5q4 7 7 14.5t3 15.5q0 9 -4 17.5t-9.5 17t-9.5 17.5t-4 20q0 16 7 30.5t18 24.5t25.5 16t29.5 6q28 0 44 -20t16 -47zM246 630
q0 -29 -12 -57.5t-31.5 -54.5t-43 -48t-46.5 -36q-13 -8 -20 -8q-6 0 -13 10l-8 12q-3 5 -2 10q1 6 9 12q12 10 24 22.5t20 25.5q4 7 7 14.5t3 15.5q0 9 -4 17.5t-9.5 17t-9.5 17.5t-4 20q0 16 7 30.5t18 24.5t25.5 16t29.5 6q29 0 44.5 -20t15.5 -47z" />
    <glyph glyph-name="quoteleft" unicode="&#x2018;" horiz-adv-x="359" 
d="M347 676q0 -6 -9 -12q-12 -10 -24 -22.5t-20 -25.5q-4 -7 -7 -14.5t-3 -15.5q0 -9 4 -17.5t9.5 -17t9.5 -18t4 -19.5q0 -17 -7 -31t-18 -24t-25.5 -16t-29.5 -6q-28 0 -44 20t-16 47q0 28 12.5 57t31.5 55t42.5 48t46.5 36q14 8 20 8t13 -10l8 -12q4 -4 2 -10z" />
    <glyph glyph-name="quoteright" unicode="&#x2019;" horiz-adv-x="359" 
d="M327 640q0 -29 -12 -57.5t-31.5 -54.5t-43 -48t-46.5 -36q-13 -8 -20 -8q-6 0 -13 10l-8 12q-3 5 -2 10q1 6 9 12q12 10 24 22.5t20 25.5q4 7 7 14.5t3 15.5q0 9 -4 17.5t-9.5 17t-9.5 17.5t-4 20q0 16 7 30.5t18 24.5t25.5 16t29.5 6q29 0 44.5 -20t15.5 -47z" />
    <glyph glyph-name="guillemotleft" unicode="&#xab;" horiz-adv-x="476" 
d="M339 230l57 -123q5 -10 0 -16.5t-14 -11.5l-36 -19q-18 -10 -29 8l-85 145q-5 9 -3 17q2 10 8 16l137 141q5 5 12.5 9.5t15.5 -0.5l35 -23q15 -10 4 -23zM157 230l56 -123q4 -9 -1 -16.5t-13 -11.5l-36 -19q-18 -10 -29 8l-85 145q-5 10 -4 16q1 8 10 17l136 141
q8 9 14.5 12t14.5 -2l34 -23q7 -5 8 -11.5t-4 -12.5z" />
    <glyph glyph-name="guillemotright" unicode="&#xbb;" horiz-adv-x="476" 
d="M431 228q-1 -8 -10 -17l-136 -141q-8 -9 -14.5 -12t-14.5 2l-34 23q-7 5 -8 11.5t4 12.5l101 120l-56 123q-4 9 1 16.5t13 11.5l36 19q18 10 29 -8l85 -145q5 -10 4 -16zM247 227q-2 -10 -8 -16l-137 -141q-5 -5 -12.5 -9.5t-15.5 0.5l-35 23q-15 10 -4 23l102 120
l-57 123q-5 10 0 16.5t14 11.5l36 19q18 10 29 -8l85 -145q5 -9 3 -17z" />
    <glyph glyph-name="guilsinglleft" unicode="&#x2039;" horiz-adv-x="294" 
d="M157 230l56 -123q4 -9 -1 -16.5t-13 -11.5l-36 -19q-18 -10 -29 8l-85 145q-5 10 -4 16q1 8 10 17l136 141q8 9 14.5 12t14.5 -2l34 -23q7 -5 8 -11.5t-4 -12.5z" />
    <glyph glyph-name="guilsinglright" unicode="&#x203a;" horiz-adv-x="294" 
d="M252 228q-1 -8 -10 -17l-136 -141q-8 -9 -14.5 -12t-14.5 2l-34 23q-7 5 -8 11.5t4 12.5l101 120l-56 123q-4 9 1 16.5t13 11.5l36 19q18 10 29 -8l85 -145q5 -10 4 -16z" />
    <glyph glyph-name="quotesinglbase" unicode="&#x201a;" horiz-adv-x="359" 
d="M263 49q0 -29 -12 -57.5t-31.5 -54.5t-43 -48t-46.5 -36q-13 -8 -20 -8q-6 0 -13 10l-8 12q-3 5 -2 10q1 6 9 12q12 10 24 22.5t20 25.5q4 7 7 14.5t3 15.5q0 9 -4 17.5t-9.5 17t-9.5 17.5t-4 20q0 16 7 30.5t18 24.5t25.5 16t29.5 6q29 0 44.5 -20t15.5 -47z" />
    <glyph glyph-name="quotedblbase" unicode="&#x201e;" horiz-adv-x="442" 
d="M406 48q0 -29 -12 -57.5t-31.5 -54.5t-43 -48t-46.5 -36q-13 -8 -20 -8q-6 0 -13 10l-8 12q-3 5 -2 10q1 6 9 12q12 11 24 23t20 25q5 7 8 14.5t3 15.5q0 9 -4.5 17.5t-9.5 17t-9.5 17.5t-4.5 20q0 16 7 30.5t18 24.5t25.5 16t29.5 6q29 0 44.5 -20t15.5 -47zM216 48
q0 -29 -12.5 -57.5t-32 -54.5t-43 -48t-46.5 -36q-13 -8 -20 -8q-6 0 -13 10l-8 12q-2 3 -2 10q1 6 9 12q13 11 24.5 23t19.5 25q5 7 8 14.5t3 15.5q0 9 -4 17.5t-9.5 17t-9.5 17.5t-4 20q0 16 7 30.5t18 24.5t25 16t29 6q29 0 45 -20t16 -47z" />
    <glyph glyph-name="ordfeminine" unicode="&#xaa;" horiz-adv-x="348" 
d="M275 418q-2 -7 -4 -9.5t-9 -2.5h-49q-11 0 -11 8l-1 15q-21 -14 -43 -22t-43 -8q-20 0 -36.5 6t-27.5 18q-16 18 -16 46q0 36 21 62.5t53 40.5q28 12 58 16.5t58 4.5l3 13q5 20 -8.5 29t-32.5 9q-35 0 -85 -22q-11 -6 -14 6l-6 34q-1 10 10 15q29 14 60 21t53 7
q58 0 85 -28.5t16 -86.5zM215 538q-16 0 -28 -1.5t-26 -5.5q-17 -5 -29 -16t-12 -30q0 -22 30 -22q13 0 28.5 6.5t26.5 15.5z" />
    <glyph glyph-name="ordmasculine" unicode="&#xba;" horiz-adv-x="387" 
d="M345 590q0 -39 -13 -74t-36.5 -61.5t-57 -41.5t-73.5 -15q-57 0 -89.5 29t-32.5 87q0 39 13 73.5t36.5 61t56.5 41.5t74 15q57 0 89.5 -29t32.5 -86zM262 582q0 26 -11 43.5t-40 17.5q-23 0 -39.5 -12t-26.5 -30t-14.5 -39.5t-4.5 -40.5q0 -26 11 -43.5t40 -17.5
q23 0 39.5 12t26.5 30t14.5 39.5t4.5 40.5z" />
    <glyph glyph-name="zero" unicode="0" 
d="M549 464q0 -47 -8 -100.5t-24.5 -106.5t-42.5 -101.5t-61.5 -86t-82 -59.5t-103.5 -22q-55 0 -92.5 19.5t-60.5 52.5t-33 77t-10 93q0 47 8.5 100t26 106t44 101.5t63 86t82.5 59.5t103 22q55 0 91.5 -19.5t58.5 -52.5t31.5 -77t9.5 -92zM416 466q0 20 -2.5 42.5
t-11 41.5t-24 31.5t-41.5 12.5q-33 0 -59 -20.5t-45 -53t-32 -73t-21 -81t-11.5 -77.5t-3.5 -61q0 -21 3 -44t11.5 -41.5t25 -30.5t43.5 -12q32 0 57 19.5t44 51.5t31.5 72t20.5 81t11.5 78t3.5 64z" />
    <glyph glyph-name="one" unicode="1" 
d="M358 30q-3 -17 -11 -23.5t-25 -6.5h-65q-20 0 -25 5.5t-2 23.5l92 522l-153 -79q-12 -6 -21.5 -5.5t-14.5 16.5l-15 45q-5 14 0.5 21t17.5 14l219 118q13 7 22.5 9t24.5 2h48q25 0 21 -25z" />
    <glyph glyph-name="two" unicode="2" 
d="M547 512q-8 -43 -32 -83t-59 -79t-78.5 -76t-88.5 -74l-115 -93h265q15 0 20.5 -5.5t3.5 -19.5l-9 -53q-5 -29 -34 -29h-392q-18 0 -23.5 7t-2.5 24l9 48q3 15 7.5 23t17.5 19q55 48 112 92.5t107 88.5q68 60 110 109t50 93q1 5 1.5 10t0.5 10q0 37 -25 54.5t-64 17.5
q-34 0 -74 -12t-78 -32q-22 -13 -31 13l-17 49q-5 13 1 19.5t18 13.5q48 26 105 42t112 16q41 0 75.5 -10t59 -29.5t38.5 -48.5t14 -66q0 -9 -1 -18.5t-3 -20.5z" />
    <glyph glyph-name="three" unicode="3" 
d="M515 560q0 -31 -10.5 -60.5t-29 -54t-43.5 -42.5t-54 -27q47 -13 77 -48t30 -90q0 -45 -19 -87t-51 -74q-42 -43 -100 -66t-119 -23q-48 0 -95.5 10.5t-79.5 28.5q-9 5 -12.5 14t1.5 19l28 54q5 11 14.5 13t19.5 -3q29 -14 61.5 -22.5t70.5 -8.5q35 0 65.5 12t50.5 33
q18 19 28 43t10 50q0 27 -13 44.5t-33 28.5t-45.5 15.5t-50.5 4.5h-18q-14 0 -17.5 8t-1.5 19l7 42q2 12 8 19t20 7h33q28 0 53.5 7t44 21.5t29.5 36.5t11 53t-24 48.5t-64 17.5q-30 0 -64 -9t-68 -26q-11 -5 -18.5 -5.5t-11.5 14.5l-11 49q-2 11 0.5 17.5t13.5 12.5
q46 26 94.5 37.5t102.5 11.5q37 0 69.5 -9.5t57 -27.5t39 -45t14.5 -63z" />
    <glyph glyph-name="four" unicode="4" 
d="M405 25q-2 -14 -11 -19.5t-21 -5.5h-65q-13 0 -18.5 5.5t-3.5 20.5l21 127h-278q-18 0 -21 8.5t-1 22.5l6 34q2 14 6.5 23.5t15.5 26.5l259 398q8 14 16.5 20t23.5 6h74q11 0 17 -6.5t-6 -25.5l-262 -403h169l22 125q3 15 11 20t21 5h64q14 0 20.5 -5t3.5 -20l-22 -125
h75q15 0 20.5 -5.5t3.5 -19.5l-8 -50q-5 -29 -34 -29h-76z" />
    <glyph glyph-name="five" unicode="5" 
d="M544 612q-4 -28 -33 -28h-230l-26 -145h18q48 0 91 -10t75.5 -30.5t51.5 -52t19 -75.5q0 -65 -23.5 -117.5t-64.5 -89.5t-96.5 -56.5t-119.5 -19.5q-49 0 -95 12t-80 32q-13 8 -12.5 16t5.5 20l24 52q6 14 15 14t20 -6q32 -17 71 -25.5t71 -8.5q34 0 62.5 12.5t48.5 34.5
t31.5 51.5t11.5 62.5q0 28 -15 45.5t-38.5 27.5t-52 13t-55.5 3h-72q-19 0 -25 9.5t-3 28.5l49 276q4 20 12.5 27t25.5 7h324q28 0 24 -28z" />
    <glyph glyph-name="six" unicode="6" 
d="M513 607q-7 -18 -21 -18q-5 0 -8 1q-18 4 -37.5 7t-37.5 3q-31 0 -61 -10t-54 -30q-31 -26 -52.5 -66t-35.5 -89q31 21 69.5 31.5t69.5 10.5q80 0 126 -40t46 -120q0 -12 -1.5 -24t-3.5 -26q-9 -50 -32.5 -95t-59 -79.5t-82 -54.5t-101.5 -20q-56 0 -94.5 17t-62 47
t-33.5 69.5t-10 84.5t9 93q7 43 20.5 86.5t32.5 85t44.5 79t57.5 67.5q45 43 101.5 65.5t114.5 22.5q24 0 52.5 -3.5t52.5 -10.5q13 -4 14 -12t-4 -19zM382 260q0 35 -18.5 59t-60.5 24q-26 0 -61.5 -11.5t-63.5 -34.5q-2 -7 -4 -18.5t-3.5 -23.5t-2.5 -24t-1 -19
q0 -59 20.5 -88.5t68.5 -29.5q27 0 48 12t36.5 31.5t25 43t13.5 46.5q3 16 3 33z" />
    <glyph glyph-name="seven" unicode="7" 
d="M576 616q-2 -12 -6.5 -22t-12.5 -23l-359 -545q-11 -17 -21.5 -21.5t-27.5 -4.5h-88q-17 0 -17 12t7 22l369 548h-284q-15 0 -19 7.5t-2 20.5l9 55q2 13 8.5 20t21.5 7h407q15 0 20 -6.5t3 -20.5z" />
    <glyph glyph-name="eight" unicode="8" 
d="M537 560q0 -32 -11.5 -60t-30 -51.5t-43.5 -42.5t-52 -32q45 -20 78.5 -57t33.5 -89q0 -42 -21 -83.5t-51 -71.5q-42 -42 -98.5 -63.5t-117.5 -21.5q-39 0 -77 9t-68 29t-48 51.5t-18 76.5q0 38 13.5 71.5t37 61.5t53.5 49t63 35q-35 19 -56 52.5t-21 73.5q0 41 19 78.5
t48 63.5q37 33 85.5 49.5t99.5 16.5q34 0 67 -8t58.5 -25.5t41 -45t15.5 -66.5zM408 539q0 34 -21.5 50.5t-53.5 16.5q-19 0 -37.5 -7t-32.5 -20t-23 -30t-9 -37q0 -34 23.5 -58t50.5 -38q18 9 36.5 21t33 27t24 33.5t9.5 41.5zM380 214q0 21 -10 38t-25 31t-33.5 24.5
t-35.5 17.5q-23 -10 -46 -24t-42 -32t-31 -40.5t-12 -50.5q0 -43 29 -66.5t70 -23.5q26 0 50.5 9.5t43.5 26t30.5 40t11.5 50.5z" />
    <glyph glyph-name="nine" unicode="9" 
d="M543 487q0 -45 -9 -93q-8 -43 -21 -86.5t-32 -85t-44.5 -79t-57.5 -67.5q-45 -43 -101.5 -65.5t-114.5 -22.5q-23 0 -51.5 3.5t-53.5 10.5q-12 4 -13 12t3 19l19 53q7 18 21 18h4t4 -1q18 -4 37.5 -7t37.5 -3q31 0 61 10t54 30q31 26 52.5 66t35.5 89q-30 -21 -69 -31.5
t-70 -10.5q-80 0 -125.5 40t-45.5 120q0 12 1 24t3 26q9 50 32.5 95t59.5 79.5t82.5 54.5t100.5 20q56 0 94.5 -17t62 -47t33.5 -69.5t10 -84.5zM414 481q0 59 -21 88.5t-69 29.5q-27 0 -48 -12t-36 -31.5t-25 -43t-14 -46.5q-3 -17 -3 -33q0 -35 18.5 -59t60.5 -24
q26 0 61.5 11.5t63.5 34.5q2 7 4.5 18.5t4 23.5t2.5 23.5t1 19.5z" />
    <glyph glyph-name="dollar" unicode="$" 
d="M512 577q-2 -5 -7.5 -9t-11.5 -4q-3 0 -8.5 1.5t-9.5 3.5q-21 10 -49.5 18t-52.5 11l-34 -193l43 -22q48 -25 80 -62t32 -91q0 -15 -3 -33q-8 -45 -29 -80t-51 -60.5t-67 -42t-78 -22.5l-13 -73q-2 -11 -5 -16t-17 -5h-25q-13 0 -15 5t0 16l12 69h-9q-82 3 -160 32
q-15 5 -15 14t5 21l25 61q5 12 14 14.5t20 -2.5q50 -20 109 -28q15 -3 31 -3l37 212l-76 40q-42 22 -65.5 56t-23.5 79q0 16 3 34q7 42 29 74.5t53.5 56t70 37.5t79.5 18l14 79q3 16 17 16h30q11 0 13.5 -3.5t0.5 -13.5l-13 -77q39 -2 72.5 -11t67.5 -25q12 -5 13.5 -12.5
t-3.5 -17.5zM311 597q-36 -7 -61.5 -30t-25.5 -60q0 -26 16 -42.5t42 -30.5zM370 205q0 26 -15.5 45t-37.5 30l-31 -175q30 9 53.5 30t29.5 54q1 5 1 8.5v7.5z" />
    <glyph glyph-name="cent" unicode="&#xa2;" 
d="M466 391q-5 -12 -11 -13.5t-16 3.5q-17 8 -36 13t-41 7l-56 -318q23 2 44.5 7.5t44.5 13.5q9 3 14.5 2t7.5 -13l6 -45q2 -14 -1.5 -19t-17.5 -11q-59 -25 -115 -28l-12 -70q-2 -11 -6.5 -15.5t-18.5 -4.5h-21q-13 0 -15 5t0 17l12 67q-88 7 -134 57.5t-46 135.5
q0 60 19 114t54 96.5t84.5 70t111.5 33.5l14 75q2 11 5.5 14.5t14.5 3.5h26q12 0 14.5 -3.5t0.5 -14.5l-13 -74q27 -2 53.5 -9t49.5 -18q11 -5 10.5 -11t-4.5 -15zM300 397q-32 -9 -55.5 -29.5t-38.5 -48t-22.5 -58.5t-7.5 -61q0 -94 69 -113z" />
    <glyph glyph-name="Euro" unicode="&#x20ac;" 
d="M576 570q-2 -5 -6 -9t-10 -4q-4 0 -10 4q-17 9 -31.5 16t-28.5 11.5t-29.5 6.5t-34.5 2q-42 0 -75 -15t-57.5 -40t-41.5 -59t-27 -71h221q23 0 18 -17l-9 -26q-4 -12 -8 -14.5t-16 -2.5h-218q-2 -11 -3 -22.5t-2 -22.5h220q13 0 17 -3.5t0 -14.5l-7 -22q-5 -14 -8.5 -17
t-16.5 -3h-205q2 -33 11.5 -61t27 -48t44 -31t64.5 -11q39 0 76 9t73 23q8 4 13 4q7 0 10 -4.5t4 -10.5l12 -63q2 -11 -5 -15.5t-16 -9.5q-43 -20 -98 -30.5t-103 -10.5q-125 0 -189 68.5t-66 190.5h-67q-13 0 -15 4.5t0 16.5l4 20q2 13 6 16t17 3h57q1 11 2 22.5t3 22.5
h-56q-12 0 -14.5 3.5t-0.5 14.5l4 24q2 13 6 15.5t16 2.5h58q16 61 46 114.5t73.5 93t100 62.5t126.5 23q45 0 88.5 -9.5t82.5 -32.5q10 -5 11.5 -11t-3.5 -14z" />
    <glyph glyph-name="florin" unicode="&#x192;" 
d="M649 605q-5 -12 -17 -12q-4 0 -10 2q-14 6 -32.5 9.5t-34.5 3.5q-24 0 -42 -10t-32 -26t-24 -36t-17 -39l-43 -117h104q12 0 15 -3t0 -14l-6 -22q-4 -14 -8.5 -16.5t-15.5 -2.5h-111l-110 -299q-17 -45 -39 -84t-52.5 -68.5t-71 -46.5t-93.5 -17q-24 0 -49 5.5t-44 15.5
q-11 6 -6 19l26 59q9 20 27 13q31 -13 63 -13q25 0 43.5 11.5t33 29t24.5 38.5t17 41l108 296h-70q-11 0 -13.5 3.5t-0.5 12.5l7 24q3 11 6.5 14.5t15.5 3.5h78l40 111q16 45 38.5 84t53.5 68.5t71.5 46.5t93.5 17q24 0 51.5 -5.5t46.5 -15.5q11 -5 4 -21z" />
    <glyph glyph-name="sterling" unicode="&#xa3;" 
d="M416 705q32 0 68.5 -6t67.5 -21q12 -6 13.5 -13t-3.5 -16l-26 -51q-5 -9 -10 -11.5t-18 1.5q-23 7 -46.5 11.5t-46.5 4.5q-59 0 -92 -34q-17 -17 -26 -42.5t-16 -63.5l-11 -66h144q13 0 16 -3.5t1 -14.5l-8 -52q-2 -14 -7 -17t-18 -3h-144l-15 -85q-7 -40 -23.5 -69.5
t-45.5 -47.5v-2h284q25 0 21 -23l-10 -57q-5 -24 -28 -24h-422q-26 0 -21 25l8 42q4 22 24 29q41 15 61.5 43.5t28.5 75.5l16 93h-52q-11 0 -14 5t-1 16l8 50q2 12 6 15.5t17 3.5h51l15 81q9 51 29.5 92.5t52.5 71t75 46t97 16.5z" />
    <glyph glyph-name="yen" unicode="&#xa5;" 
d="M369 320h77q13 0 16 -4t1 -14l-4 -26q-2 -12 -7 -14.5t-17 -2.5h-91l-8 -45h94q13 0 15.5 -3t0.5 -15l-4 -22q-2 -14 -6.5 -17.5t-17.5 -3.5h-93l-23 -130q-5 -23 -25 -23h-85q-22 0 -18 25l23 128h-94q-13 0 -15 5t0 17l3 20q2 13 6.5 16t17.5 3h93l8 45h-96
q-12 0 -14.5 3.5t-0.5 14.5l4 24q2 13 6.5 16t16.5 3h76l-133 348q-4 10 1.5 17t16.5 7h93q27 0 33 -19l92 -275h1l186 274q8 12 16 16t22 4h75q15 0 16 -8t-6 -17z" />
    <glyph glyph-name="numbersign" unicode="#" horiz-adv-x="579" 
d="M589 409q-3 -10 -8 -13t-16 -3h-100l-35 -111h98q11 0 12 -4.5t-1 -12.5l-16 -57q-3 -11 -8 -14t-15 -3h-101l-58 -172q-3 -10 -8 -14.5t-16 -4.5h-72q-14 0 -14 5.5t3 14.5l58 171h-102l-60 -172q-4 -10 -9 -14.5t-17 -4.5h-67q-11 0 -14 6t0 15l57 170h-93
q-12 0 -12.5 5.5t1.5 13.5l18 56q3 9 8 12.5t17 3.5h95l35 111h-97q-11 0 -11.5 5t1.5 13l18 57q5 16 21 16h100l63 193q3 9 6.5 12t12.5 3h75q13 0 14.5 -4.5t-1.5 -14.5l-63 -189h100l62 191q3 10 7 13.5t14 3.5h78q10 0 11 -4.5t-1 -12.5l-62 -191h99q9 0 10.5 -3.5
t-0.5 -11.5zM358 393h-100l-36 -111h100z" />
    <glyph glyph-name="percent" unicode="%" horiz-adv-x="755" 
d="M391 584q0 -38 -11.5 -74t-33.5 -65t-54 -46.5t-73 -17.5q-57 0 -87.5 33t-30.5 89q0 37 12.5 73.5t35.5 64.5t55.5 45.5t73.5 17.5q57 0 85 -32.5t28 -87.5zM726 661q0 -8 -7 -15l-606 -655q-9 -9 -14 -9q-7 0 -17 10l-34 32q-5 4 -5 11q0 6 3 11t7 10l596 647q9 9 16 9
t17 -8l36 -29q8 -7 8 -14zM659 191q0 -38 -11.5 -74t-33.5 -65t-54 -46.5t-73 -17.5q-57 0 -87.5 33t-30.5 89q0 37 12.5 73.5t35.5 64.5t55.5 45.5t73.5 17.5q57 0 85 -32.5t28 -87.5zM298 581q0 17 -7 33t-28 16q-20 0 -33.5 -15t-21 -36t-10.5 -43.5t-3 -38.5
q0 -19 9 -31t29 -12q19 0 32 14.5t20 34.5t10 42t3 36zM566 188q0 17 -7 33t-28 16q-20 0 -33.5 -15t-21 -36t-10.5 -43.5t-3 -38.5q0 -19 9 -31t29 -12q19 0 32 14.5t20 34.5t10 42t3 36z" />
    <glyph glyph-name="perthousand" unicode="&#x2030;" horiz-adv-x="1015" 
d="M952 191q0 -38 -11.5 -74t-33 -65t-53.5 -46.5t-73 -17.5q-57 0 -87.5 33t-30.5 89q0 37 12.5 73.5t35.5 64.5t55.5 45.5t73.5 17.5q57 0 84.5 -32.5t27.5 -87.5zM359 584q0 -38 -11.5 -74t-33.5 -65t-54 -46.5t-73 -17.5q-57 0 -87.5 33t-30.5 89q0 37 12.5 73.5
t35.5 64.5t55.5 45.5t73.5 17.5q57 0 85 -32.5t28 -87.5zM81 -9q-9 -10 -14.5 -9t-16.5 10l-36 32q-8 8 -4.5 16.5t9.5 15.5l596 647q9 10 16 9.5t17 -8.5l38 -29q16 -12 1 -29zM627 191q0 -38 -11.5 -74t-33.5 -65t-54 -46.5t-73 -17.5q-57 0 -87.5 33t-30.5 89
q0 37 12.5 73.5t35.5 64.5t55.5 45.5t73.5 17.5q57 0 85 -32.5t28 -87.5zM859 188q0 17 -6.5 33t-27.5 16q-20 0 -33.5 -15t-21.5 -36t-11 -43.5t-3 -38.5q0 -19 9 -31t30 -12q19 0 31.5 14.5t20 34.5t10 42t2.5 36zM266 581q0 17 -7 33t-28 16q-20 0 -33.5 -15t-21 -36
t-10.5 -43.5t-3 -38.5q0 -19 9 -31t29 -12q19 0 32 14.5t20 34.5t10 42t3 36zM534 188q0 17 -7 33t-28 16q-20 0 -33.5 -15t-21 -36t-10.5 -43.5t-3 -38.5q0 -19 9 -31t29 -12q19 0 32 14.5t20 34.5t10 42t3 36z" />
    <glyph glyph-name="plus" unicode="+" horiz-adv-x="538" 
d="M489 238q-4 -27 -30 -27h-140l-27 -152q-2 -14 -9.5 -19t-19.5 -5h-67q-13 0 -17.5 4.5t-2.5 18.5l27 153h-142q-14 0 -18 6.5t-2 18.5l10 56q2 13 7.5 18.5t19.5 5.5h143l27 151q2 15 8.5 20t20.5 5h64q14 0 19.5 -5.5t3.5 -19.5l-27 -151h139q15 0 19.5 -5.5t2.5 -19.5
z" />
    <glyph glyph-name="minus" unicode="&#x2212;" horiz-adv-x="538" 
d="M478 300q0 -6 -1 -9l-9 -53q-4 -27 -30 -27h-353q-22 0 -22 18q0 2 0.5 3.5t0.5 3.5l10 56q2 13 8 18.5t20 5.5h354q22 0 22 -16z" />
    <glyph glyph-name="multiply" unicode="&#xd7;" horiz-adv-x="538" 
d="M476 384q-2 -11 -10 -18l-117 -99l86 -105q6 -8 6 -14q0 -9 -13 -20l-54 -48q-5 -5 -10.5 -7t-10.5 -2q-7 0 -14 8l-87 106l-117 -100q-9 -8 -19 -8t-17 9l-32 40q-7 9 -7 15q0 7 13 18l117 101l-84 104q-8 10 -8 17v2q1 8 13 17l53 45q13 11 21 11t16 -10l87 -104
l115 99q11 10 20 10q8 0 16 -10l32 -38q5 -6 5 -14v-5z" />
    <glyph glyph-name="less" unicode="&#x3c;" horiz-adv-x="538" 
d="M480 501q7 -16 -10 -26l-236 -136l185 -134q17 -12 3 -29l-50 -62q-10 -12 -17 -13t-19 8l-249 188q-6 5 -8.5 10.5t-0.5 16.5l5 26q4 18 21 27l323 187q8 5 15.5 5t12.5 -11z" />
    <glyph glyph-name="divide" unicode="&#xf7;" horiz-adv-x="538" 
d="M371 450q0 -17 -7 -31.5t-18 -25t-26 -17t-31 -6.5q-24 0 -43 15t-19 41q0 17 7 31t19 24.5t27.5 16.5t31.5 6q24 0 41.5 -14t17.5 -40zM486 238q-3 -14 -9 -20.5t-20 -6.5h-396q-14 0 -18 6.5t-2 18.5l10 56q2 13 7.5 18.5t19.5 5.5h396q15 0 19.5 -5.5t2.5 -19.5z
M311 104q0 -16 -7 -30.5t-18.5 -25t-26.5 -17t-31 -6.5q-24 0 -43 14.5t-19 40.5q0 17 7 31.5t19 25t27.5 16.5t31.5 6q24 0 42 -14.5t18 -40.5z" />
    <glyph glyph-name="equal" unicode="=" horiz-adv-x="538" 
d="M463 328q-4 -27 -30 -27h-318q-14 0 -18 6.5t-2 18.5l9 48q2 13 7.5 18.5t19.5 5.5h318q15 0 19.5 -5.5t2.5 -19.5zM434 164q-4 -27 -30 -27h-318q-14 0 -18 6.5t-2 18.5l9 48q2 13 7.5 18.5t19.5 5.5h318q15 0 19.5 -5.5t2.5 -19.5z" />
    <glyph glyph-name="logicalnot" unicode="&#xac;" horiz-adv-x="541" 
d="M477 205q-3 -16 -10 -23t-22 -7h-58q-15 0 -19 6.5t-1 21.5l20 116h-310q-17 0 -20.5 5.5t-1.5 17.5l9 52q4 21 28 21h392q19 0 24 -5t2 -21z" />
    <glyph glyph-name="greater" unicode="&#x3e;" horiz-adv-x="538" 
d="M449 323q-4 -18 -21 -27l-323 -187q-8 -5 -15.5 -5t-12.5 11l-25 57q-7 16 10 26l236 136l-185 134q-17 12 -3 29l50 62q10 12 17 13t19 -8l249 -188q6 -5 8.5 -10.5t0.5 -16.5z" />
    <glyph glyph-name="notequal" unicode="&#x2260;" horiz-adv-x="535" 
d="M167 134h-62q-12 0 -15 7t-1 18l8 48q2 11 7 17t18 6h120l55 72h-162q-12 0 -15.5 7t-1.5 18l9 48q2 11 7 17t18 6h220l65 84q17 24 35 9l15 -10q19 -12 4 -34l-37 -49h68q23 0 20 -23l-9 -48q-2 -13 -8 -19t-20 -6h-126l-55 -72h168q24 0 20 -23l-8 -48q-4 -25 -29 -25
h-226l-68 -87q-9 -11 -17 -11.5t-17 5.5l-17 10q-9 7 -10.5 14t8.5 18z" />
    <glyph glyph-name="approxequal" unicode="&#x2248;" horiz-adv-x="535" 
d="M261 122q-17 14 -30 23.5t-28 9.5q-31 0 -63 -59q-7 -10 -16 -11t-17 7l-29 28q-6 8 -6 16t7 20q30 58 63.5 88.5t71.5 30.5q21 0 42 -10t42 -28l32 -27q32 -28 63 -28q23 0 45 15t46 46q18 18 32 2l23 -30q7 -8 6.5 -16t-8.5 -21q-34 -53 -78 -82t-89 -29q-44 0 -81 31z
M305 347q-17 14 -31.5 21.5t-31.5 7.5q-44 0 -91 -61q-17 -19 -31 -2l-25 30q-12 14 2 36q35 53 78.5 82t88.5 29t83 -33l28 -25q15 -14 28.5 -22.5t27.5 -8.5q33 0 64 61q6 11 15 12.5t17 -6.5l30 -31q7 -8 6.5 -15.5t-8.5 -20.5q-29 -58 -62.5 -88.5t-71.5 -30.5
q-21 0 -41.5 10t-43.5 28z" />
    <glyph glyph-name="plusminus" unicode="&#xb1;" horiz-adv-x="538" 
d="M503 371q-2 -14 -8.5 -20.5t-20.5 -6.5h-140l-26 -144q-2 -14 -9.5 -19t-19.5 -5h-67q-13 0 -17.5 4.5t-2.5 18.5l26 145h-142q-14 0 -18 6.5t-2 18.5l10 56q2 13 7.5 19t19.5 6h143l25 142q2 15 9 20.5t21 5.5h64q14 0 19.5 -5.5t3.5 -19.5l-26 -143h139q15 0 19.5 -5.5
t2.5 -19.5zM394 33q-4 -27 -30 -27h-291q-14 0 -17.5 7t-1.5 19l11 65q2 13 7.5 19t19.5 6h291q15 0 19.5 -5.5t2.5 -19.5z" />
    <glyph glyph-name="lessequal" unicode="&#x2264;" horiz-adv-x="535" 
d="M493 230q-2 -6 -6 -12l-50 -62q-10 -13 -18 -13q-6 0 -16 8l-247 192q-5 5 -8.5 10t-1.5 15l5 26q2 10 8 15.5t14 10.5l324 190q9 6 15 6t11 -9l23 -58q3 -5 1 -12q-2 -9 -11 -14l-236 -139l184 -137q10 -9 9 -17zM455 25q-4 -25 -27 -25h-326q-22 0 -17 25l8 48
q2 11 7 17t18 6h326q23 0 19 -23z" />
    <glyph glyph-name="greaterequal" unicode="&#x2265;" horiz-adv-x="535" 
d="M125 230q1 8 15 17l232 137l-186 139q-10 6 -8 14q1 6 6 12l45 58q6 9 13 9q5 0 13 -6l258 -190q5 -5 9.5 -10.5t2.5 -15.5l-5 -26q-2 -10 -6.5 -15t-11.5 -10l-315 -192q-14 -8 -19 -8q-8 0 -14 13l-27 62q-3 7 -2 12zM99 73q4 23 27 23h325q23 0 18 -23l-8 -48
q-2 -11 -7.5 -18t-18.5 -7h-325q-14 0 -17.5 6t-1.5 19z" />
    <glyph glyph-name="asciicircum" unicode="^" horiz-adv-x="550" 
d="M481 389q8 -18 -9 -26l-63 -30q-9 -5 -15 -4.5t-11 11.5l-95 206l-166 -204q-7 -8 -14.5 -12.5t-17.5 3.5l-49 41q-12 10 -10 16.5t11 17.5l225 267q7 8 13 12.5t16 4.5h26q11 0 16 -5.5t8 -12.5z" />
    <glyph glyph-name="asciitilde" unicode="~" horiz-adv-x="550" 
d="M486 316q5 -9 1 -17.5t-12 -13.5q-34 -23 -67.5 -43.5t-73.5 -20.5q-21 0 -38 8t-33.5 17t-33 17t-35.5 8q-15 0 -40 -10.5t-48 -21.5q-10 -5 -17.5 -7.5t-12.5 11.5l-12 33q-5 12 1.5 18.5t16.5 12.5q29 17 59.5 33.5t62.5 16.5q22 0 42.5 -8t39 -17.5t35.5 -17.5t33 -8
q8 0 19 4t23 10t23 12t19 10q10 5 18 6t15 -10z" />
    <glyph glyph-name="lozenge" unicode="&#x25ca;" horiz-adv-x="517" 
d="M212 335l69 -219l147 220l-69 219zM101 276l-4 22t0 22l3 19q2 12 8.5 24.5t13.5 23.5l212 302q6 11 13 14t18 3h46q11 0 17 -3t8 -13l98 -291q2 -11 4 -23.5t0 -24.5l-3 -19q-2 -11 -8 -22l-12 -22l-213 -303q-7 -11 -13 -14t-17 -3h-46q-11 0 -17.5 3t-8.5 13z" />
    <glyph glyph-name="degree" unicode="&#xb0;" horiz-adv-x="297" 
d="M244 628q0 -22 -9.5 -42t-25 -35t-35.5 -24t-41 -9q-34 0 -56.5 22t-22.5 56q0 22 9.5 41.5t25 34.5t35.5 24t41 9q34 0 56.5 -21.5t22.5 -55.5zM185 618q0 13 -8.5 21t-21.5 8q-17 0 -30 -12t-13 -29q0 -13 9 -21.5t22 -8.5q17 0 29.5 12.5t12.5 29.5z" />
    <glyph glyph-name="quotesingle" unicode="'" horiz-adv-x="355" 
d="M263 542q-2 -8 -6 -13t-15 -5h-51q-10 0 -13 4t-1 15l18 144q3 18 20 18h68q11 0 13.5 -4.5t0.5 -14.5z" />
    <glyph glyph-name="quotedbl" unicode="&#x22;" horiz-adv-x="355" 
d="M313 542q-2 -8 -6 -13t-15 -5h-51q-10 0 -13.5 4t-1.5 15l19 144q2 10 5.5 14t14.5 4h68q11 0 13.5 -4.5t0.5 -14.5zM173 542q-2 -8 -6.5 -13t-15.5 -5h-51q-10 0 -13 4t-1 15l19 144q2 10 5.5 14t14.5 4h67q11 0 13.5 -4.5t0.5 -14.5z" />
    <glyph glyph-name="radical" unicode="&#x221a;" horiz-adv-x="633" 
d="M99 462q4 24 28 24h144q12 0 17 -5t6 -16l43 -313l275 535q7 13 13.5 17t20.5 4h65q13 0 15.5 -6.5t-3.5 -17.5l-364 -667q-6 -11 -12 -14t-17 -3h-49q-11 0 -17.5 3t-8.5 13l-77 374h-68q-14 0 -18 5.5t-2 18.5z" />
    <glyph glyph-name="currency" unicode="&#xa4;" 
d="M273 271q38 0 63.5 26.5t25.5 67.5q0 26 -15 41t-45 15q-38 0 -63.5 -26.5t-25.5 -67.5q0 -26 15 -41t45 -15zM260 189q-25 0 -47.5 6t-39.5 18l-53 -44q-15 -13 -28 3l-24 30q-12 15 3 28l57 47q-2 8 -3 17t-1 18q0 29 7.5 53t22.5 50l-38 47q-10 13 7 28l36 30
q20 16 30 3l35 -44q21 12 43 18t48 6q25 0 47.5 -6t39.5 -18l53 44q15 13 28 -3l24 -30q12 -15 -3 -28l-57 -47q2 -8 3 -17t1 -18q0 -29 -7.5 -53t-22.5 -50l38 -47q10 -13 -7 -28l-36 -30q-20 -16 -30 -3l-35 44q-42 -24 -91 -24z" />
    <glyph glyph-name="infinity" unicode="&#x221e;" horiz-adv-x="832" 
d="M106 327q14 76 68.5 121t136.5 45q56 0 98 -26t78 -69q48 42 97.5 68t107.5 26q72 0 111.5 -33.5t39.5 -95.5q0 -18 -3 -36q-7 -40 -26.5 -70.5t-47 -51t-61.5 -31t-71 -10.5q-56 0 -96.5 24t-76.5 68q-47 -39 -98.5 -66t-110.5 -27q-66 0 -107.5 33t-41.5 96q0 17 3 35z
M643 268q31 0 55 17t29 45q1 4 1 12q0 24 -17 37.5t-45 13.5q-36 0 -67 -18.5t-59 -43.5q25 -32 48 -47.5t54 -15.5h1zM283 268q34 0 65.5 17.5t60.5 45.5q-21 26 -46 44.5t-62 18.5q-32 0 -54 -17.5t-27 -46.5q-1 -4 -1 -12q0 -25 18 -37.5t45 -12.5h1z" />
    <glyph glyph-name="mu" unicode="&#x3bc;" horiz-adv-x="573" 
d="M481 28q-2 -14 -9 -21t-22 -7h-64q-8 0 -14 4t-6 13q0 7 0.5 13.5t1.5 13.5q-27 -20 -59.5 -34t-67.5 -14q-20 0 -40 4.5t-35 18.5l-30 -168q-3 -16 -10.5 -21t-23.5 -5h-60q-16 0 -22 4.5t-3 20.5l108 612q4 23 30 23h70q25 0 21 -23l-48 -275q-2 -10 -3 -19.5t-1 -19.5
q0 -32 16.5 -43.5t45.5 -11.5q32 0 65 14t58 33l57 322q4 23 30 23h70q25 0 21 -23z" />
    <glyph glyph-name="uni00B5" unicode="&#xb5;" horiz-adv-x="573" 
d="M481 28q-2 -14 -9 -21t-22 -7h-64q-8 0 -14 4t-6 13q0 7 0.5 13.5t1.5 13.5q-27 -20 -59.5 -34t-67.5 -14q-20 0 -40 4.5t-35 18.5l-30 -168q-3 -16 -10.5 -21t-23.5 -5h-60q-16 0 -22 4.5t-3 20.5l108 612q4 23 30 23h70q25 0 21 -23l-48 -275q-2 -10 -3 -19.5t-1 -19.5
q0 -32 16.5 -43.5t45.5 -11.5q32 0 65 14t58 33l57 322q4 23 30 23h70q25 0 21 -23z" />
    <glyph glyph-name="partialdiff" unicode="&#x2202;" horiz-adv-x="573" 
d="M86 222q9 54 32.5 96t57 70.5t74.5 43.5t86 15q29 0 63 -9.5t57 -32.5q6 34 6 65q0 65 -29 105.5t-94 40.5q-29 0 -52.5 -7.5t-51.5 -22.5q-11 -6 -17 -2t-8 12l-15 55q-5 21 17 32q42 22 77 30.5t74 8.5q67 0 111 -21.5t70 -57.5t36.5 -83t10.5 -97q0 -30 -3 -60t-8 -59
q-13 -75 -37.5 -140t-62.5 -113t-90 -75.5t-121 -27.5q-47 0 -82 13t-58.5 37t-35.5 57t-12 73q0 13 1.5 26.5t3.5 27.5zM212 220q-3 -17 -3 -32q0 -38 19 -65.5t63 -27.5q33 0 57.5 14.5t43 41t30.5 62.5t20 80q-37 51 -101 51q-29 0 -51 -10.5t-38 -27.5t-26 -39.5
t-14 -46.5z" />
    <glyph glyph-name="summation" unicode="&#x2211;" horiz-adv-x="622" 
d="M27 -174q-20 0 -17 20l9 51q2 10 8 18t11 12l352 338l-240 324q-7 10 -4 25l10 58q3 20 26 20h498q11 0 14.5 -4.5t2.5 -12.5l-12 -67q-3 -12 -11.5 -16t-22.5 -4h-330l174 -237q15 -18 15 -28.5t-2 -18.5l-6 -35q-2 -14 -7 -25t-21 -28l-294 -286h369q23 0 19 -24
l-11 -60q-3 -20 -27 -20h-503z" />
    <glyph glyph-name="product" unicode="&#x220f;" horiz-adv-x="682" 
d="M525 588h-170l-130 -741q-3 -14 -7 -17.5t-17 -3.5h-90q-13 0 -15.5 3t-0.5 17l131 742h-62q-13 0 -17 6t-2 18l11 60q3 20 26 20h565q20 0 17 -17l-18 -67q-4 -12 -12 -16t-22 -4h-59l-130 -741q-3 -14 -6.5 -17.5t-15.5 -3.5h-90q-14 0 -16.5 3t-0.5 17z" />
    <glyph glyph-name="pi" unicode="&#x3c0;" horiz-adv-x="695" 
d="M252 24q-5 -24 -27 -24h-75q-22 0 -19 22l66 373h-67q-15 0 -18 5t0 21l7 44q2 9 7.5 15t15.5 6h544q20 0 17 -17l-10 -55q-3 -19 -23 -19h-87l-38 -219q-2 -14 -4.5 -26.5t-2.5 -22.5q0 -16 7 -24.5t25 -8.5q11 0 23.5 4t25.5 10q9 5 15 5t9 -9l11 -44q2 -10 -1.5 -15.5
t-11.5 -11.5q-23 -18 -54.5 -29t-62.5 -11q-63 0 -86 27.5t-23 75.5q0 18 2.5 38.5t6.5 43.5l38 217h-145l-65 -371v0z" />
    <glyph glyph-name="integral" unicode="&#x222b;" horiz-adv-x="424" 
d="M321 499q-3 -26 -4 -53t-1 -53q0 -68 4.5 -132.5t4.5 -127.5q0 -16 -0.5 -31.5t-1.5 -31.5q-7 -115 -74.5 -176.5t-177.5 -61.5q-14 0 -31.5 1t-32.5 5q-13 3 -14 9t3 17l18 56q5 11 9.5 12.5t15.5 -0.5q12 -2 24.5 -3t23.5 -1q54 0 81 35.5t32 89.5q1 14 1.5 29t0.5 31
q0 63 -4.5 132.5t-4.5 137.5q0 26 1 50.5t4 48.5q14 116 76 177t176 61q14 0 31 -1.5t34 -5.5q13 -3 14.5 -9t-1.5 -16l-21 -56q-4 -11 -10 -13t-14 0q-13 3 -25 4t-23 1q-27 0 -47 -9.5t-34 -26.5t-22 -39.5t-11 -49.5z" />
    <glyph glyph-name="Omega" unicode="&#x3a9;" horiz-adv-x="758" 
d="M332 96q11 -5 15 -8.5t2 -14.5l-8 -48q-2 -11 -7.5 -18t-17.5 -7h-243q-14 0 -18 6t-2 19l8 48q4 23 28 23h80q-43 60 -43 157q0 41 9 91q14 81 47.5 147.5t82 113.5t110 72.5t131.5 25.5q62 0 108.5 -18.5t77.5 -52.5t46.5 -82t15.5 -106q0 -45 -9 -94
q-14 -84 -48.5 -147.5t-81.5 -106.5h89q13 0 16 -6t1 -17l-8 -48q-2 -11 -7.5 -18t-17.5 -7h-247q-13 0 -16 7t-1 18l8 48q2 11 7 15.5t18 7.5q31 6 55.5 28.5t43 56.5t31.5 76.5t21 89.5q9 49 9 88q0 82 -35.5 119t-99.5 37q-37 0 -71 -15.5t-62 -46.5t-49 -76t-31 -105
q-5 -29 -8 -56t-3 -51q0 -56 17 -94t57 -51z" />
    <glyph glyph-name="Ohm" unicode="&#x2126;" horiz-adv-x="758" 
d="M332 96q11 -5 15 -8.5t2 -14.5l-8 -48q-2 -11 -7.5 -18t-17.5 -7h-243q-14 0 -18 6t-2 19l8 48q4 23 28 23h80q-43 60 -43 157q0 41 9 91q14 81 47.5 147.5t82 113.5t110 72.5t131.5 25.5q62 0 108.5 -18.5t77.5 -52.5t46.5 -82t15.5 -106q0 -45 -9 -94
q-14 -84 -48.5 -147.5t-81.5 -106.5h89q13 0 16 -6t1 -17l-8 -48q-2 -11 -7.5 -18t-17.5 -7h-247q-13 0 -16 7t-1 18l8 48q2 11 7 15.5t18 7.5q31 6 55.5 28.5t43 56.5t31.5 76.5t21 89.5q9 49 9 88q0 82 -35.5 119t-99.5 37q-37 0 -71 -15.5t-62 -46.5t-49 -76t-31 -105
q-5 -29 -8 -56t-3 -51q0 -56 17 -94t57 -51z" />
    <glyph glyph-name="uni0394" unicode="&#x394;" horiz-adv-x="618" 
d="M93 0q-21 0 -29 16l-18 40q-5 10 -3 17t9 18l323 599q6 11 12 14t17 3h49q11 0 17 -2.5t8 -13.5l120 -601q3 -11 2 -17.5t-9 -16.5l-33 -41q-12 -15 -32 -15h-433zM164 104h301l-70 453z" />
    <glyph glyph-name="Delta" unicode="&#x2206;" horiz-adv-x="618" 
d="M93 0q-21 0 -29 16l-18 40q-5 10 -3 17t9 18l323 599q6 11 12 14t17 3h49q11 0 17 -2.5t8 -13.5l120 -601q3 -11 2 -17.5t-9 -16.5l-33 -41q-12 -15 -32 -15h-433zM164 104h301l-70 453z" />
    <glyph glyph-name="litre" unicode="&#x2113;" horiz-adv-x="548" 
d="M240 196q-2 -15 -3.5 -27.5t-1.5 -23.5q0 -30 13 -46.5t41 -16.5q23 0 49.5 14t54.5 44q12 12 22 0l28 -28q4 -5 4 -9.5t-7 -13.5q-38 -51 -88 -76t-101 -25q-69 0 -105 33t-36 93q0 14 1.5 30t5.5 37l4 23q-5 -2 -15 -5t-20.5 -6t-20 -6t-14.5 -4q-9 -2 -13 -1t-6 9
l-7 37q-2 8 0.5 12t11.5 8q24 9 50 19.5t49 19.5l36 203q10 55 25 94t38 65q48 56 132 56q69 0 105.5 -36t36.5 -102q0 -50 -20 -96t-55.5 -86t-82.5 -73.5t-101 -58.5zM395 567q0 22 -9 36t-28 14q-25 0 -39 -26.5t-23 -75.5l-30 -170q60 50 94.5 104.5t34.5 117.5z" />
    <glyph glyph-name="estimated" unicode="&#x212e;" horiz-adv-x="887" 
d="M199 336q-5 0 -5 -5v-193q0 -7 2.5 -12.5t6.5 -10.5q45 -48 108 -76.5t135 -28.5q77 0 142.5 32t111.5 86h58q-54 -63 -135.5 -101t-177.5 -38q-82 0 -154 28t-126 76t-85.5 113t-31.5 139t31.5 139t85.5 113t126 76t154 28t154 -28t125.5 -76t84.5 -113t31 -139v-9h-641
zM446 680q-72 0 -134 -27.5t-108 -75.5q-10 -10 -10 -25v-191q0 -5 5 -5h491q5 0 5 5v196q0 13 -10 23q-46 46 -107.5 73t-131.5 27z" />
    <glyph glyph-name="numero" unicode="&#x2116;" horiz-adv-x="1069" 
d="M664 25q-3 -16 -10 -20.5t-18 -4.5h-67q-23 0 -34 20l-244 450h-1l-78 -445q-2 -14 -9 -19.5t-20 -5.5h-74q-14 0 -19.5 4.5t-2.5 19.5l113 643q3 16 10.5 20.5t20.5 4.5h67q12 0 18.5 -4t11.5 -13l244 -452h1l78 446q4 23 30 23h78q16 0 18 -7t0 -18zM1052 274
q-6 -32 -20 -59.5t-36 -48t-52 -32.5t-66 -12q-63 0 -91.5 32t-28.5 83q0 18 3 38q6 31 20 59t36.5 49t52 33.5t65.5 12.5q62 0 91 -34t29 -84q0 -18 -3 -37zM969 275q3 15 3 30q0 25 -11 42.5t-38 17.5q-18 0 -31.5 -7.5t-23 -20t-15.5 -28.5t-9 -33t-3 -33q0 -25 10.5 -42
t38.5 -17q18 0 31.5 7.5t23 20.5t15.5 29.5t9 33.5zM1007 25q-2 -14 -8.5 -19.5t-20.5 -5.5h-239q-24 0 -19 25l4 23q2 12 7.5 18t19.5 6h240q24 0 20 -24z" />
    <glyph glyph-name="fraction" unicode="&#x2044;" horiz-adv-x="183" 
d="M-129 -9q-8 -10 -15.5 -14.5t-20.5 -4.5h-82q-12 0 -13 8t5 15l561 704q11 13 18.5 18t23.5 5h71q9 0 12.5 -3t3.5 -7.5t-3 -10t-7 -9.5z" />
    <glyph glyph-name="onesuperior" unicode="&#xb9;" horiz-adv-x="376" 
d="M296 692q0 -2 -0.5 -3t-0.5 -3l-62 -351q-2 -14 -9.5 -19t-20.5 -5h-41q-11 0 -17 3t-6 12q0 6 1 9l48 270l-69 -35q-8 -4 -15 -4q-8 0 -11.5 4.5t-5.5 9.5l-10 27q-1 3 -1 6v4q3 13 18 20l122 63q9 5 15.5 6.5t16.5 1.5h29q19 0 19 -16z" />
    <glyph glyph-name="twosuperior" unicode="&#xb2;" horiz-adv-x="376" 
d="M353 615q0 -6 -0.5 -11.5t-1.5 -11.5q-6 -35 -29.5 -66.5t-63.5 -67.5q-23 -21 -48 -39.5t-50 -36.5h124q21 0 21 -16q0 -2 -0.5 -3.5t-0.5 -3.5l-6 -33q-5 -23 -28 -23h-225q-23 0 -23 17q0 2 0.5 4t0.5 4l5 28q2 11 6.5 17t12.5 13q33 27 71 57t70 59q29 26 47 47.5
t21 38.5q1 3 1 9q0 16 -11.5 24t-31.5 8q-17 0 -38 -6.5t-42 -17.5q-7 -4 -15 -4h-1q-10 0 -14 13l-10 33q0 2 -0.5 2.5t-0.5 2.5v2q2 11 16 18q29 16 62 25.5t67 9.5q51 0 83 -23.5t32 -68.5z" />
    <glyph glyph-name="threesuperior" unicode="&#xb3;" horiz-adv-x="376" 
d="M332 621q0 -5 -0.5 -9.5t-1.5 -9.5q-5 -26 -21.5 -48t-39.5 -35q20 -11 33 -30.5t13 -45.5q0 -4 -0.5 -8.5t-1.5 -9.5q-5 -30 -21.5 -54t-40 -40.5t-52 -25t-57.5 -8.5q-27 0 -55 5.5t-48 16.5q-5 3 -10 6.5t-5 10.5v3l5 11l16 29q7 13 21 13q6 0 11 -3q31 -15 72 -15
q31 0 50.5 14.5t23.5 37.5q1 3 1 9q0 13 -7 21.5t-17.5 14t-23.5 7.5t-26 2h-9q-12 0 -16 6t-4 14v5l4 23q2 9 8 16t20 7h20q56 0 63 43q0 2 0.5 4t0.5 4q0 14 -10.5 22t-30.5 8q-31 0 -65 -15q-5 -2 -10.5 -4t-10.5 -2q-10 0 -13 10l-7 30q-1 4 -1 7q0 13 14 20
q54 30 118 30q22 0 42 -5.5t35.5 -16t24.5 -27t9 -38.5z" />
    <glyph glyph-name="onehalf" unicode="&#xbd;" horiz-adv-x="859" 
d="M742 710q-1 -6 -10 -18l-554 -701q-8 -10 -15 -14.5t-20 -4.5h-78q-13 0 -13 11v2q2 6 5 10l560 704q11 13 19 18t24 5h66q16 0 16 -10v-2zM790 312q0 -5 -0.5 -11t-1.5 -12q-6 -35 -29 -67t-63 -68q-23 -21 -48.5 -39.5t-50.5 -36.5h125q21 0 21 -14v-3.5t-1 -6.5
l-5 -31q-2 -10 -8.5 -16.5t-20.5 -6.5h-226q-22 0 -22 16q0 5 1 8l5 29q2 11 6.5 17t12.5 13q33 27 71 56.5t70 58.5q29 26 47 48t21 39q1 3 1 9q0 16 -11.5 23.5t-31.5 7.5q-36 0 -80 -22q-8 -5 -16 -5q-11 0 -15 12q-1 2 -4.5 14.5t-5.5 19.5v8q2 7 7 10.5t10 6.5
q29 16 61.5 25.5t66.5 9.5q51 0 82.5 -23.5t31.5 -68.5zM303 692q0 -2 -0.5 -3t-0.5 -3l-62 -351q-2 -14 -9 -19t-20 -5h-41q-12 0 -18 3t-6 13q0 5 1 8l47 270l-68 -35q-8 -4 -14 -4q-8 0 -11.5 4.5t-5.5 9.5l-11 27q-1 2 -1 6v4q3 13 18 20l121 63q16 8 33 8h29
q19 0 19 -16z" />
    <glyph glyph-name="onequarter" unicode="&#xbc;" horiz-adv-x="859" 
d="M772 712q0 -7 -10 -20l-555 -701q-8 -10 -15 -14.5t-20 -4.5h-77q-14 0 -14 11v2q1 4 6 10l560 704q11 13 19 18t24 5h66q16 0 16 -10zM332 692q0 -2 -0.5 -3t-0.5 -3l-62 -351q-2 -14 -9 -19t-20 -5h-41q-12 0 -18 3t-6 13q0 5 1 8l47 270l-68 -35q-8 -4 -14 -4
q-8 0 -12 4.5t-6 9.5l-10 27q-1 3 -1 6v4q3 13 18 20l121 63q16 8 33 8h29q19 0 19 -16zM718 22q-2 -13 -10.5 -17.5t-17.5 -4.5h-40q-20 0 -20 13q0 4 4 27l10 54h-165q-21 0 -21 14q0 4 3 19l2 10q2 12 4.5 17.5t9.5 15.5l143 208q6 8 13 13.5t19 5.5h40q9 0 15 -3.5
t6 -10.5t-6 -16l-134 -198h84l12 66q2 14 10.5 18.5t17.5 4.5h38q8 0 15 -2.5t7 -12.5q0 -3 -1 -9.5t-3 -14.5l-9 -50h46q21 0 21 -14v-3.5t-1 -6.5l-5 -28q-2 -10 -8.5 -16.5t-20.5 -6.5h-45z" />
    <glyph glyph-name="threequarters" unicode="&#xbe;" horiz-adv-x="859" 
d="M365 621q0 -5 -0.5 -9.5t-1.5 -9.5q-5 -26 -21.5 -48t-39.5 -35q20 -11 34 -30.5t14 -46.5q0 -4 -0.5 -8t-1.5 -9q-5 -30 -22 -54t-41 -40.5t-52.5 -25t-57.5 -8.5q-27 0 -55 5.5t-48 16.5q-5 3 -9 6.5t-4 10.5v3q1 2 1.5 5t2.5 6l16 29q7 13 20 13q7 0 12 -3
q31 -15 72 -15q31 0 50 14.5t23 37.5q1 3 1 10q0 13 -6.5 21.5t-17 13.5t-23.5 7t-26 2h-10q-11 0 -15 5.5t-4 12.5q0 2 0.5 3.5t0.5 3.5l4 23q2 9 7.5 16t19.5 7h19q57 0 64 43q0 2 0.5 4t0.5 4q0 14 -10.5 22t-30.5 8q-30 0 -64 -15q-4 -2 -9 -4t-10 -2t-10 2.5t-6 7.5
l-7 30q-1 2 -1 7v3q2 10 14 17q54 30 118 30q22 0 42 -5.5t35 -16t24 -27t9 -38.5zM781 712q0 -7 -10 -20l-555 -701q-8 -10 -15 -14.5t-20 -4.5h-77q-14 0 -14 11v2q1 4 6 10l560 704q11 13 19 18t24 5h66q16 0 16 -10zM724 22q-2 -13 -10.5 -17.5t-17.5 -4.5h-40
q-20 0 -20 13q0 4 4 27l10 54h-165q-21 0 -21 14q0 4 3 19l2 10q2 12 4.5 17.5t9.5 15.5l143 208q6 8 13 13.5t19 5.5h40q9 0 15 -3.5t6 -10.5t-6 -16l-134 -198h84l12 66q2 14 10.5 18.5t17.5 4.5h38q8 0 15 -2.5t7 -12.5q0 -3 -1 -9.5t-3 -14.5l-9 -50h46q21 0 21 -14
v-3.5t-1 -6.5l-5 -28q-2 -10 -8.5 -16.5t-20.5 -6.5h-45z" />
    <glyph glyph-name="grave" unicode="`" horiz-adv-x="359" 
d="M250 557q-6 -8 -13 -8t-18 6l-128 77q-11 6 -9.5 14t8.5 16l30 35q10 11 16.5 11t17.5 -9l111 -91q10 -8 10 -13.5t-8 -15.5z" />
    <glyph glyph-name="acute" unicode="&#xb4;" horiz-adv-x="359" 
d="M286 645q0 -8 -9 -13l-128 -77q-11 -6 -17 -6q-9 0 -14 8l-17 22q-8 10 -8 15t10 14l111 91q10 9 17 9q8 0 17 -11l30 -35q8 -10 8 -17z" />
    <glyph glyph-name="dieresis" unicode="&#xa8;" horiz-adv-x="359" 
d="M331 641q0 -27 -21 -46.5t-47 -19.5q-20 0 -35.5 11.5t-15.5 33.5q0 28 22 46.5t49 18.5q20 0 34 -11.5t14 -32.5zM148 640q0 -27 -21.5 -46t-47.5 -19q-20 0 -35 11.5t-15 32.5q0 29 21.5 47.5t48.5 18.5q20 0 34.5 -12t14.5 -33z" />
    <glyph glyph-name="circumflex" unicode="&#x2c6;" horiz-adv-x="359" 
d="M323 591q0 -9 -10 -17l-23 -18q-8 -6 -14 -6q-7 0 -14 7l-80 73l-96 -71q-11 -8 -19 -8q-7 0 -15 8l-17 18q-5 5 -5 9q0 5 3.5 9t8.5 8l114 91q8 6 14 8.5t17 2.5h19q8 0 14 -1.5t11 -7.5l87 -94q5 -7 5 -11z" />
    <glyph glyph-name="tilde" unicode="&#x2dc;" horiz-adv-x="359" 
d="M348 623q0 -10 -10 -17q-26 -17 -55 -29t-58 -12q-15 0 -28 6.5t-25.5 14t-25.5 14t-26 6.5q-14 0 -31 -8t-33 -16q-5 -2 -9 -4t-8 -2q-7 0 -10 10l-10 35q-2 8 -2 10q0 6 4.5 9.5t12.5 8.5q22 13 48 22.5t49 9.5q15 0 30 -6.5t28.5 -14t26 -14t23.5 -6.5q14 0 30 7.5
t36 18.5q8 5 16 5t12 -9l13 -29q2 -3 2 -10z" />
    <glyph glyph-name="macron" unicode="&#xaf;" horiz-adv-x="359" 
d="M322 627q-2 -14 -9.5 -21t-24.5 -7h-226q-15 0 -19 7.5t-2 20.5l4 23q2 13 8 19t22 6h226q17 0 22 -5.5t3 -19.5z" />
    <glyph glyph-name="breve" unicode="&#x2d8;" horiz-adv-x="359" 
d="M326 685q0 -4 -4 -14q-18 -48 -60 -74.5t-92 -26.5q-46 0 -77.5 26t-33.5 74v4q0 11 4 16t19 5h28q14 0 17 -4t7 -14q5 -15 16.5 -25.5t34.5 -10.5q17 0 34.5 10.5t28.5 27.5q6 9 11.5 12.5t16.5 3.5h33q17 0 17 -10z" />
    <glyph glyph-name="dotaccent" unicode="&#x2d9;" horiz-adv-x="359" 
d="M243 637q0 -15 -6 -28.5t-16.5 -23t-24 -15.5t-28.5 -6q-22 0 -38.5 13t-16.5 36q0 15 6.5 28.5t17.5 23t24.5 15t28.5 5.5q22 0 37.5 -12.5t15.5 -35.5z" />
    <glyph glyph-name="ring" unicode="&#x2da;" horiz-adv-x="359" 
d="M262 639q0 -19 -8 -36t-21 -30t-30.5 -20.5t-35.5 -7.5q-29 0 -48.5 19t-19.5 48q0 18 8 35t21.5 30t31 20.5t35.5 7.5q29 0 48 -18.5t19 -47.5zM208 630q0 22 -22 22q-13 0 -23 -9t-10 -23q0 -10 6.5 -16t16.5 -6q13 0 22.5 9.5t9.5 22.5z" />
    <glyph glyph-name="cedilla" unicode="&#xb8;" horiz-adv-x="359" 
d="M299 -106q0 -39 -28 -66q-17 -17 -43.5 -26t-58.5 -9q-20 0 -37 4t-32 10t-9 19l11 23q5 9 9.5 9t12.5 -3q11 -4 24.5 -6.5t23.5 -2.5q25 0 38 14q9 7 9 21t-12.5 20t-35.5 6h-20q-15 0 -19 6t-2 17q1 3 1.5 7t2.5 8l16 55h64l-11 -44h8q40 0 64 -15.5t24 -46.5z" />
    <glyph glyph-name="hungarumlaut" unicode="&#x2dd;" horiz-adv-x="359" 
d="M403 647q0 -11 -14 -17l-155 -75q-5 -2 -9.5 -4t-8.5 -2q-10 0 -15 11l-9 18q-3 6 -3 10q0 8 15 18l144 91q14 9 19 9q8 0 15 -13l18 -35q3 -6 3 -11zM184 645q0 -8 -15 -15l-154 -75q-5 -2 -9.5 -4t-8.5 -2q-10 0 -15 11l-9 18q-3 6 -3 10q0 8 15 18l143 91
q6 4 10.5 6.5t9.5 2.5q8 0 15 -13l17 -35q4 -7 4 -13z" />
    <glyph glyph-name="ogonek" unicode="&#x2db;" horiz-adv-x="359" 
d="M274 -178q-2 -11 -16 -15q-17 -6 -40 -10.5t-43 -4.5q-45 0 -72 17.5t-27 49.5q0 26 13.5 49t32.5 40q17 15 38.5 28t45.5 24h67q-13 -9 -31.5 -22t-36 -29t-30 -34t-12.5 -37q0 -16 11.5 -22.5t29.5 -6.5q10 0 26.5 2.5t28.5 6.5q1 0 2 0.5t2 0.5q7 0 8 -7l3 -24v-6z
" />
    <glyph glyph-name="caron" unicode="&#x2c7;" horiz-adv-x="359" 
d="M332 671q0 -7 -11 -16l-112 -92q-8 -6 -14.5 -9t-17.5 -3h-18q-8 0 -14 1.5t-11 7.5l-84 96q-6 7 -6 12q0 7 11 15l23 18q5 5 13 5q6 0 14 -6l76 -65l99 62q11 8 19 8q7 0 14 -8l14 -16q5 -7 5 -10z" />
    <glyph glyph-name="commaaccent" unicode="&#xf6c3;" horiz-adv-x="359" 
d="M221 -94q0 -23 -9.5 -46t-25 -44t-34.5 -38t-37 -29q-9 -6 -16 -6q-5 0 -10 8l-7 10q-2 4 -1 8q0 4 7 9q10 8 19 18t16 21q3 5 5.5 11t2.5 13t-3.5 14t-7.5 13.5t-7.5 14t-3.5 15.5q0 26 20 44t44 18q23 0 35.5 -16t12.5 -38z" />
    <glyph glyph-name="Agrave" unicode="&#xc0;" horiz-adv-x="658" 
d="M585 29q2 -11 -3 -20t-18 -9h-89q-16 0 -22 6t-8 18l-26 147h-252l-79 -150q-5 -10 -12 -15.5t-19 -5.5h-89q-12 0 -12 8.5t4 15.5l358 648q5 9 12.5 14.5t18.5 5.5h80q22 0 25 -18zM402 268l-34 211q-3 21 -4.5 41t-3.5 32h-2q-5 -14 -14 -34t-19 -40l-108 -210h185z
M448 757q-6 -8 -13 -8t-18 6l-128 77q-11 6 -9.5 14t8.5 16l30 35q10 11 16.5 11t17.5 -9l111 -91q10 -8 10 -13.5t-8 -15.5z" />
    <glyph glyph-name="Aacute" unicode="&#xc1;" horiz-adv-x="658" 
d="M585 29q2 -11 -3 -20t-18 -9h-89q-16 0 -22 6t-8 18l-26 147h-252l-79 -150q-5 -10 -12 -15.5t-19 -5.5h-89q-12 0 -12 8.5t4 15.5l358 648q5 9 12.5 14.5t18.5 5.5h80q22 0 25 -18zM402 268l-34 211q-3 21 -4.5 41t-3.5 32h-2q-5 -14 -14 -34t-19 -40l-108 -210h185z
M492 845q0 -8 -9 -13l-128 -77q-11 -6 -17 -6q-9 0 -14 8l-17 22q-8 10 -8 15t10 14l111 91q10 9 17 9q8 0 17 -11l30 -35q8 -10 8 -17z" />
    <glyph glyph-name="Acircumflex" unicode="&#xc2;" horiz-adv-x="658" 
d="M585 29q2 -11 -3 -20t-18 -9h-89q-16 0 -22 6t-8 18l-26 147h-252l-79 -150q-5 -10 -12 -15.5t-19 -5.5h-89q-12 0 -12 8.5t4 15.5l358 648q5 9 12.5 14.5t18.5 5.5h80q22 0 25 -18zM402 268l-34 211q-3 21 -4.5 41t-3.5 32h-2q-5 -14 -14 -34t-19 -40l-108 -210h185z
M532 791q0 -9 -10 -17l-23 -18q-8 -6 -14 -6q-7 0 -14 7l-80 73l-96 -71q-11 -8 -19 -8q-7 0 -15 8l-17 18q-5 5 -5 9q0 5 3.5 9t8.5 8l114 91q8 6 14 8.5t17 2.5h19q8 0 14 -1.5t11 -7.5l87 -94q5 -7 5 -11z" />
    <glyph glyph-name="Atilde" unicode="&#xc3;" horiz-adv-x="658" 
d="M585 29q2 -11 -3 -20t-18 -9h-89q-16 0 -22 6t-8 18l-26 147h-252l-79 -150q-5 -10 -12 -15.5t-19 -5.5h-89q-12 0 -12 8.5t4 15.5l358 648q5 9 12.5 14.5t18.5 5.5h80q22 0 25 -18zM402 268l-34 211q-3 21 -4.5 41t-3.5 32h-2q-5 -14 -14 -34t-19 -40l-108 -210h185z
M562 823q0 -10 -10 -17q-26 -17 -55 -29t-58 -12q-15 0 -28 6.5t-25.5 14t-25.5 14t-26 6.5q-14 0 -31 -8t-33 -16q-5 -2 -9 -4t-8 -2q-7 0 -10 10l-10 35q-2 8 -2 10q0 6 4.5 9.5t12.5 8.5q22 13 48 22.5t49 9.5q15 0 30 -6.5t28.5 -14t26 -14t23.5 -6.5q14 0 30 7.5
t36 18.5q8 5 16 5t12 -9l13 -29q2 -3 2 -10z" />
    <glyph glyph-name="Adieresis" unicode="&#xc4;" horiz-adv-x="658" 
d="M585 29q2 -11 -3 -20t-18 -9h-89q-16 0 -22 6t-8 18l-26 147h-252l-79 -150q-5 -10 -12 -15.5t-19 -5.5h-89q-12 0 -12 8.5t4 15.5l358 648q5 9 12.5 14.5t18.5 5.5h80q22 0 25 -18zM402 268l-34 211q-3 21 -4.5 41t-3.5 32h-2q-5 -14 -14 -34t-19 -40l-108 -210h185z
M552 841q0 -27 -21 -46.5t-47 -19.5q-20 0 -35.5 11.5t-15.5 33.5q0 28 22 46.5t49 18.5q20 0 34 -11.5t14 -32.5zM369 840q0 -27 -21.5 -46t-47.5 -19q-20 0 -35 11.5t-15 32.5q0 29 21.5 47.5t48.5 18.5q20 0 34.5 -12t14.5 -33z" />
    <glyph glyph-name="Amacron" unicode="&#x100;" horiz-adv-x="658" 
d="M585 29q2 -11 -3 -20t-18 -9h-89q-16 0 -22 6t-8 18l-26 147h-252l-79 -150q-5 -10 -12 -15.5t-19 -5.5h-89q-12 0 -12 8.5t4 15.5l358 648q5 9 12.5 14.5t18.5 5.5h80q22 0 25 -18zM402 268l-34 211q-3 21 -4.5 41t-3.5 32h-2q-5 -14 -14 -34t-19 -40l-108 -210h185z
M539 827q-2 -14 -9.5 -21t-24.5 -7h-226q-15 0 -19 7.5t-2 20.5l4 23q2 13 8 19t22 6h226q17 0 22 -5.5t3 -19.5z" />
    <glyph glyph-name="Abreve" unicode="&#x102;" horiz-adv-x="658" 
d="M585 29q2 -11 -3 -20t-18 -9h-89q-16 0 -22 6t-8 18l-26 147h-252l-79 -150q-5 -10 -12 -15.5t-19 -5.5h-89q-12 0 -12 8.5t4 15.5l358 648q5 9 12.5 14.5t18.5 5.5h80q22 0 25 -18zM402 268l-34 211q-3 21 -4.5 41t-3.5 32h-2q-5 -14 -14 -34t-19 -40l-108 -210h185z
M541 885q0 -4 -4 -14q-18 -48 -60 -74.5t-92 -26.5q-46 0 -77.5 26t-33.5 74v4q0 11 4 16t19 5h28q14 0 17 -4t7 -14q5 -15 16.5 -25.5t34.5 -10.5q17 0 34.5 10.5t28.5 27.5q6 9 11.5 12.5t16.5 3.5h33q17 0 17 -10z" />
    <glyph glyph-name="Acaron" unicode="&#x1cd;" horiz-adv-x="658" 
d="M572 871q0 -7 -11 -16l-112 -92q-8 -6 -14.5 -9t-17.5 -3h-18q-8 0 -14 1.5t-11 7.5l-84 96q-6 7 -6 12q0 7 11 15l23 18q5 5 13 5q6 0 14 -6l76 -65l99 62q11 8 19 8q7 0 14 -8l14 -16q5 -7 5 -10zM585 29q2 -11 -3 -20t-18 -9h-89q-16 0 -22 6t-8 18l-26 147h-252
l-79 -150q-5 -10 -12 -15.5t-19 -5.5h-89q-12 0 -12 8.5t4 15.5l358 648q5 9 12.5 14.5t18.5 5.5h80q22 0 25 -18zM402 268l-34 211q-3 21 -4.5 41t-3.5 32h-2q-5 -14 -14 -34t-19 -40l-108 -210h185z" />
    <glyph glyph-name="Aring" unicode="&#xc5;" horiz-adv-x="658" 
d="M585 29q2 -11 -3 -20t-18 -9h-89q-16 0 -22 6t-8 18l-26 147h-252l-79 -150q-5 -10 -12 -15.5t-19 -5.5h-89q-12 0 -12 8.5t4 15.5l358 648q5 9 12.5 14.5t18.5 5.5h80q22 0 25 -18zM402 268l-34 211q-3 21 -4.5 41t-3.5 32h-2q-5 -14 -14 -34t-19 -40l-108 -210h185z
M492 839q0 -19 -8 -36t-21 -30t-30.5 -20.5t-35.5 -7.5q-29 0 -48.5 19t-19.5 48q0 18 8 35t21.5 30t31 20.5t35.5 7.5q29 0 48 -18.5t19 -47.5zM438 830q0 22 -22 22q-13 0 -23 -9t-10 -23q0 -10 6.5 -16t16.5 -6q13 0 22.5 9.5t9.5 22.5z" />
    <glyph glyph-name="Aringacute" unicode="&#x1fa;" horiz-adv-x="658" 
d="M585 29q2 -11 -3 -20t-18 -9h-89q-16 0 -22 6t-8 18l-26 147h-252l-79 -150q-5 -10 -12 -15.5t-19 -5.5h-89q-12 0 -12 8.5t4 15.5l358 648q5 9 12.5 14.5t18.5 5.5h80q22 0 25 -18zM402 268l-34 211q-3 21 -4.5 41t-3.5 32h-2q-5 -14 -14 -34t-19 -40l-108 -210h185z
M479 814q0 -19 -8 -36t-21 -30t-30.5 -20.5t-35.5 -7.5q-29 0 -48.5 19t-19.5 48q0 18 8 35t21.5 30t31 20.5t35.5 7.5q29 0 48 -18.5t19 -47.5zM425 805q0 22 -22 22q-13 0 -23 -9t-10 -23q0 -10 6.5 -16t16.5 -6q13 0 22.5 9.5t9.5 22.5zM494 982q0 -8 -9 -13l-128 -77
q-11 -6 -17 -6q-9 0 -14 8l-17 22q-8 10 -8 15t10 14l111 91q10 9 17 9q8 0 17 -11l30 -35q8 -10 8 -17z" />
    <glyph glyph-name="Aogonek" unicode="&#x104;" horiz-adv-x="658" 
d="M527 -178q-2 -11 -16 -15q-17 -6 -40 -10.5t-43 -4.5q-45 0 -72 17.5t-27 49.5q0 26 12 48.5t29.5 41t38.5 33t39 23.5l-29 166h-252l-79 -150q-5 -10 -12 -15.5t-19 -5.5h-89q-12 0 -12 8.5t4 15.5l358 648q5 9 12.5 14.5t18.5 5.5h80q22 0 25 -18l131 -645
q2 -11 -3 -20t-18 -9q-34 0 -57 -12t-37 -23q-23 -19 -38.5 -41t-15.5 -46q0 -16 11.5 -22.5t29.5 -6.5q10 0 26.5 2.5t28.5 6.5q1 0 2 0.5t2 0.5q7 0 8 -7l3 -24v-6zM402 268l-34 211q-3 21 -4.5 41t-3.5 32h-2q-5 -14 -14 -34t-19 -40l-108 -210h185z" />
    <glyph glyph-name="AE" unicode="&#xc6;" horiz-adv-x="939" 
d="M927 609q-4 -14 -12 -17.5t-24 -3.5h-252l-32 -181h231q27 0 22 -22l-10 -57q-4 -24 -29 -24h-232l-36 -200h268q25 0 21 -23l-10 -57q-5 -24 -28 -24h-366q-14 0 -21.5 5.5t-4.5 21.5l25 144h-223l-119 -150q-7 -9 -13 -15t-18 -6h-90q-12 0 -12 8.5t5 15.5l513 646
q8 10 16 16t20 6h412q24 0 18 -21zM504 549l-219 -281h169z" />
    <glyph glyph-name="AEacute" unicode="&#x1fc;" horiz-adv-x="939" 
d="M927 609q-4 -14 -12 -17.5t-24 -3.5h-252l-32 -181h231q27 0 22 -22l-10 -57q-4 -24 -29 -24h-232l-36 -200h268q25 0 21 -23l-10 -57q-5 -24 -28 -24h-366q-14 0 -21.5 5.5t-4.5 21.5l25 144h-223l-119 -150q-7 -9 -13 -15t-18 -6h-90q-12 0 -12 8.5t5 15.5l513 646
q8 10 16 16t20 6h412q24 0 18 -21zM504 549l-219 -281h169zM795 845q0 -8 -9 -13l-128 -77q-11 -6 -17 -6q-9 0 -14 8l-17 22q-8 10 -8 15t10 14l111 91q10 9 17 9q8 0 17 -11l30 -35q8 -10 8 -17z" />
    <glyph glyph-name="Cacute" unicode="&#x106;" horiz-adv-x="611" 
d="M593 570q-2 -5 -6 -9t-10 -4q-4 0 -10 4q-35 19 -65 27.5t-69 8.5q-62 0 -108.5 -30.5t-78 -78t-47 -105t-15.5 -110.5q0 -38 9 -70.5t28.5 -56t49.5 -37t71 -13.5q39 0 76 9t73 23q8 4 13 4q7 0 10 -4.5t4 -10.5l12 -63q2 -11 -5 -15.5t-16 -9.5q-43 -20 -98 -30.5
t-103 -10.5q-127 0 -196 71t-69 196q0 85 27.5 166t78.5 144t124.5 101.5t165.5 38.5q45 0 93.5 -9.5t87.5 -32.5q10 -5 11 -11t-3 -14zM544 845q0 -8 -9 -13l-128 -77q-11 -6 -17 -6q-9 0 -14 8l-17 22q-8 10 -8 15t10 14l111 91q10 9 17 9q8 0 17 -11l30 -35q8 -10 8 -17z
" />
    <glyph glyph-name="Ccedilla" unicode="&#xc7;" horiz-adv-x="611" 
d="M593 570q-2 -5 -6 -9t-10 -4q-4 0 -10 4q-35 19 -65 27.5t-69 8.5q-62 0 -108.5 -30.5t-78 -78t-47 -105t-15.5 -110.5q0 -38 9 -70.5t28.5 -56t49.5 -37t71 -13.5q39 0 76 9t73 23q8 4 13 4q7 0 10 -4.5t4 -10.5l12 -63q2 -11 -5 -15.5t-16 -9.5q-38 -17 -86.5 -27.5
t-93.5 -12.5l-8 -33h8q40 0 64 -15.5t24 -46.5q0 -39 -28 -66q-17 -17 -43.5 -26t-58.5 -9q-20 0 -37 4t-32 10t-9 19l11 23q5 9 9.5 9t12.5 -3q11 -4 24.5 -6.5t23.5 -2.5q25 0 38 14q9 7 9 21t-12.5 20t-35.5 6h-20q-15 0 -19 6t-2 17q1 3 1.5 7t2.5 8l13 45
q-106 12 -164 81t-58 184q0 85 27.5 166t78.5 144t124.5 101.5t165.5 38.5q45 0 93.5 -9.5t87.5 -32.5q10 -5 11.5 -11t-3.5 -14z" />
    <glyph glyph-name="Ccircumflex" unicode="&#x108;" horiz-adv-x="611" 
d="M593 570q-2 -5 -6 -9t-10 -4q-4 0 -10 4q-35 19 -65 27.5t-69 8.5q-62 0 -108.5 -30.5t-78 -78t-47 -105t-15.5 -110.5q0 -38 9 -70.5t28.5 -56t49.5 -37t71 -13.5q39 0 76 9t73 23q8 4 13 4q7 0 10 -4.5t4 -10.5l12 -63q2 -11 -5 -15.5t-16 -9.5q-43 -20 -98 -30.5
t-103 -10.5q-127 0 -196 71t-69 196q0 85 27.5 166t78.5 144t124.5 101.5t165.5 38.5q45 0 93.5 -9.5t87.5 -32.5q10 -5 11 -11t-3 -14zM567 791q0 -9 -10 -17l-23 -18q-8 -6 -14 -6q-7 0 -14 7l-80 73l-96 -71q-11 -8 -19 -8q-7 0 -15 8l-17 18q-5 5 -5 9q0 5 3.5 9t8.5 8
l114 91q8 6 14 8.5t17 2.5h19q8 0 14 -1.5t11 -7.5l87 -94q5 -7 5 -11z" />
    <glyph glyph-name="Ccaron" unicode="&#x10c;" horiz-adv-x="611" 
d="M593 570q-2 -5 -6 -9t-10 -4q-4 0 -10 4q-35 19 -65 27.5t-69 8.5q-62 0 -108.5 -30.5t-78 -78t-47 -105t-15.5 -110.5q0 -38 9 -70.5t28.5 -56t49.5 -37t71 -13.5q39 0 76 9t73 23q8 4 13 4q7 0 10 -4.5t4 -10.5l12 -63q2 -11 -5 -15.5t-16 -9.5q-43 -20 -98 -30.5
t-103 -10.5q-127 0 -196 71t-69 196q0 85 27.5 166t78.5 144t124.5 101.5t165.5 38.5q45 0 93.5 -9.5t87.5 -32.5q10 -5 11 -11t-3 -14zM571 871q0 -7 -11 -16l-112 -92q-8 -6 -14.5 -9t-17.5 -3h-18q-8 0 -14 1.5t-11 7.5l-84 96q-6 7 -6 12q0 7 11 15l23 18q5 5 13 5
q6 0 14 -6l76 -65l99 62q11 8 19 8q7 0 14 -8l14 -16q5 -7 5 -10z" />
    <glyph glyph-name="Cdotaccent" unicode="&#x10a;" horiz-adv-x="611" 
d="M593 570q-2 -5 -6 -9t-10 -4q-4 0 -10 4q-35 19 -65 27.5t-69 8.5q-62 0 -108.5 -30.5t-78 -78t-47 -105t-15.5 -110.5q0 -38 9 -70.5t28.5 -56t49.5 -37t71 -13.5q39 0 76 9t73 23q8 4 13 4q7 0 10 -4.5t4 -10.5l12 -63q2 -11 -5 -15.5t-16 -9.5q-43 -20 -98 -30.5
t-103 -10.5q-127 0 -196 71t-69 196q0 85 27.5 166t78.5 144t124.5 101.5t165.5 38.5q45 0 93.5 -9.5t87.5 -32.5q10 -5 11 -11t-3 -14zM489 852q0 -15 -6 -28.5t-16.5 -23t-24 -15.5t-28.5 -6q-22 0 -38.5 13t-16.5 36q0 15 6.5 28.5t17.5 23t24.5 15t28.5 5.5
q22 0 37.5 -12.5t15.5 -35.5z" />
    <glyph glyph-name="Dcaron" unicode="&#x10e;" horiz-adv-x="707" 
d="M488 871q0 -7 -11 -16l-112 -92q-8 -6 -14.5 -9t-17.5 -3h-18q-8 0 -14 1.5t-11 7.5l-84 96q-6 7 -6 12q0 7 11 15l23 18q5 5 13 5q6 0 14 -6l76 -65l99 62q11 8 19 8q7 0 14 -8l14 -16q5 -7 5 -10zM665 432q0 -23 -2.5 -45t-6.5 -44q-15 -84 -50.5 -148t-89 -107.5
t-124.5 -65.5t-201 -22h-143q-17 0 -22 6.5t-2 21.5l112 634q3 17 11 23.5t25 6.5h142q69 0 132.5 -9.5t112 -37.5t77.5 -79t29 -134zM525 411q0 49 -14 82.5t-39.5 53t-61.5 28t-81 8.5h-77l-84 -475h77q46 0 91.5 10.5t83.5 42.5q26 22 45.5 51.5t33 62.5t20 68t6.5 68z
" />
    <glyph glyph-name="Dcroat" unicode="&#x110;" horiz-adv-x="721" 
d="M678 433q0 -21 -1.5 -43.5t-6.5 -46.5q-16 -91 -56.5 -157.5t-99.5 -110.5q-54 -39 -121 -57t-187 -18h-144q-12 0 -18.5 3.5t-6.5 14.5q0 6 1 10l51 288h-67q-19 0 -19 12q0 2 0.5 3.5t0.5 3.5l5 30q2 12 7 15.5t17 3.5h68l49 278q3 16 10 23t26 7h144q87 0 146 -11
t104 -40q48 -30 73 -81.5t25 -126.5zM539 411q0 89 -49 131q-26 23 -64.5 32t-86.5 9h-73l-35 -199h108q17 0 20.5 -4.5t1.5 -14.5l-5 -29q-2 -13 -7 -16.5t-18 -3.5h-112l-37 -208h74q57 0 100.5 10.5t80.5 42.5q35 30 60 75t36 108q6 36 6 67z" />
    <glyph glyph-name="Eth" unicode="&#xd0;" horiz-adv-x="721" 
d="M678 433q0 -21 -1.5 -43.5t-6.5 -46.5q-16 -91 -56.5 -157.5t-99.5 -110.5q-54 -39 -121 -57t-187 -18h-144q-12 0 -18.5 3.5t-6.5 14.5q0 6 1 10l51 288h-67q-19 0 -19 12q0 2 0.5 3.5t0.5 3.5l5 30q2 12 7 15.5t17 3.5h68l49 278q3 16 10 23t26 7h144q87 0 146 -11
t104 -40q48 -30 73 -81.5t25 -126.5zM539 411q0 89 -49 131q-26 23 -64.5 32t-86.5 9h-73l-35 -199h108q17 0 20.5 -4.5t1.5 -14.5l-5 -29q-2 -13 -7 -16.5t-18 -3.5h-112l-37 -208h74q57 0 100.5 10.5t80.5 42.5q35 30 60 75t36 108q6 36 6 67z" />
    <glyph glyph-name="Egrave" unicode="&#xc8;" horiz-adv-x="553" 
d="M541 609q-4 -14 -12.5 -17.5t-24.5 -3.5h-251l-32 -181h231q26 0 21 -22l-10 -57q-4 -24 -28 -24h-232l-36 -200h268q25 0 21 -23l-10 -57q-5 -24 -28 -24h-371q-15 0 -20 5t-2 22l113 640q5 25 27 25h377q23 0 17 -21zM443 757q-6 -8 -13 -8t-18 6l-128 77
q-11 6 -9.5 14t8.5 16l30 35q10 11 16.5 11t17.5 -9l111 -91q10 -8 10 -13.5t-8 -15.5z" />
    <glyph glyph-name="Eacute" unicode="&#xc9;" horiz-adv-x="553" 
d="M541 609q-4 -14 -12.5 -17.5t-24.5 -3.5h-251l-32 -181h231q26 0 21 -22l-10 -57q-4 -24 -28 -24h-232l-36 -200h268q25 0 21 -23l-10 -57q-5 -24 -28 -24h-371q-15 0 -20 5t-2 22l113 640q5 25 27 25h377q23 0 17 -21zM446 845q0 -8 -9 -13l-128 -77q-11 -6 -17 -6
q-9 0 -14 8l-17 22q-8 10 -8 15t10 14l111 91q10 9 17 9q8 0 17 -11l30 -35q8 -10 8 -17z" />
    <glyph glyph-name="Ecircumflex" unicode="&#xca;" horiz-adv-x="553" 
d="M541 609q-4 -14 -12.5 -17.5t-24.5 -3.5h-251l-32 -181h231q26 0 21 -22l-10 -57q-4 -24 -28 -24h-232l-36 -200h268q25 0 21 -23l-10 -57q-5 -24 -28 -24h-371q-15 0 -20 5t-2 22l113 640q5 25 27 25h377q23 0 17 -21zM512 791q0 -9 -10 -17l-23 -18q-8 -6 -14 -6
q-7 0 -14 7l-80 73l-96 -71q-11 -8 -19 -8q-7 0 -15 8l-17 18q-5 5 -5 9q0 5 3.5 9t8.5 8l114 91q8 6 14 8.5t17 2.5h19q8 0 14 -1.5t11 -7.5l87 -94q5 -7 5 -11z" />
    <glyph glyph-name="Ecaron" unicode="&#x11a;" horiz-adv-x="553" 
d="M541 609q-4 -14 -12.5 -17.5t-24.5 -3.5h-251l-32 -181h231q26 0 21 -22l-10 -57q-4 -24 -28 -24h-232l-36 -200h268q25 0 21 -23l-10 -57q-5 -24 -28 -24h-371q-15 0 -20 5t-2 22l113 640q5 25 27 25h377q23 0 17 -21zM505 871q0 -7 -11 -16l-112 -92q-8 -6 -14.5 -9
t-17.5 -3h-18q-8 0 -14 1.5t-11 7.5l-84 96q-6 7 -6 12q0 7 11 15l23 18q5 5 13 5q6 0 14 -6l76 -65l99 62q11 8 19 8q7 0 14 -8l14 -16q5 -7 5 -10z" />
    <glyph glyph-name="Edieresis" unicode="&#xcb;" horiz-adv-x="553" 
d="M541 609q-4 -14 -12.5 -17.5t-24.5 -3.5h-251l-32 -181h231q26 0 21 -22l-10 -57q-4 -24 -28 -24h-232l-36 -200h268q25 0 21 -23l-10 -57q-5 -24 -28 -24h-371q-15 0 -20 5t-2 22l113 640q5 25 27 25h377q23 0 17 -21zM522 841q0 -27 -21 -46.5t-47 -19.5
q-20 0 -35.5 11.5t-15.5 33.5q0 28 22 46.5t49 18.5q20 0 34 -11.5t14 -32.5zM339 840q0 -27 -21.5 -46t-47.5 -19q-20 0 -35 11.5t-15 32.5q0 29 21.5 47.5t48.5 18.5q20 0 34.5 -12t14.5 -33z" />
    <glyph glyph-name="Emacron" unicode="&#x112;" horiz-adv-x="553" 
d="M541 609q-4 -14 -12.5 -17.5t-24.5 -3.5h-251l-32 -181h231q26 0 21 -22l-10 -57q-4 -24 -28 -24h-232l-36 -200h268q25 0 21 -23l-10 -57q-5 -24 -28 -24h-371q-15 0 -20 5t-2 22l113 640q5 25 27 25h377q23 0 17 -21zM512 827q-2 -14 -9.5 -21t-24.5 -7h-226
q-15 0 -19 7.5t-2 20.5l4 23q2 13 8 19t22 6h226q17 0 22 -5.5t3 -19.5z" />
    <glyph glyph-name="Ebreve" unicode="&#x114;" horiz-adv-x="553" 
d="M541 609q-4 -14 -12.5 -17.5t-24.5 -3.5h-251l-32 -181h231q26 0 21 -22l-10 -57q-4 -24 -28 -24h-232l-36 -200h268q25 0 21 -23l-10 -57q-5 -24 -28 -24h-371q-15 0 -20 5t-2 22l113 640q5 25 27 25h377q23 0 17 -21zM507 885q0 -4 -4 -14q-18 -48 -60 -74.5t-92 -26.5
q-46 0 -77.5 26t-33.5 74v4q0 11 4 16t19 5h28q14 0 17 -4t7 -14q5 -15 16.5 -25.5t34.5 -10.5q17 0 34.5 10.5t28.5 27.5q6 9 11.5 12.5t16.5 3.5h33q17 0 17 -10z" />
    <glyph glyph-name="Edotaccent" unicode="&#x116;" horiz-adv-x="553" 
d="M541 609q-4 -14 -12.5 -17.5t-24.5 -3.5h-251l-32 -181h231q26 0 21 -22l-10 -57q-4 -24 -28 -24h-232l-36 -200h268q25 0 21 -23l-10 -57q-5 -24 -28 -24h-371q-15 0 -20 5t-2 22l113 640q5 25 27 25h377q23 0 17 -21zM430 837q0 -15 -6 -28.5t-16.5 -23t-24 -15.5
t-28.5 -6q-22 0 -38.5 13t-16.5 36q0 15 6.5 28.5t17.5 23t24.5 15t28.5 5.5q22 0 37.5 -12.5t15.5 -35.5z" />
    <glyph glyph-name="Eogonek" unicode="&#x118;" horiz-adv-x="553" 
d="M376 -178q-2 -11 -16 -15q-17 -6 -40 -10.5t-43 -4.5q-45 0 -72 17.5t-27 49.5q0 26 13.5 49t32.5 40q17 15 38.5 28t45.5 24h-261q-15 0 -20 5t-2 22l113 640q5 25 27 25h377q23 0 17 -21l-18 -62q-4 -14 -12.5 -17.5t-24.5 -3.5h-251l-32 -181h231q26 0 21 -22l-10 -57
q-4 -24 -28 -24h-232l-36 -200h268q25 0 21 -23l-10 -57q-5 -24 -28 -24h-43q-13 -9 -31.5 -22t-36 -29t-30 -34t-12.5 -37q0 -16 11.5 -22.5t29.5 -6.5q10 0 26.5 2.5t28.5 6.5q1 0 2 0.5t2 0.5q7 0 8 -7l3 -24v-6z" />
    <glyph glyph-name="Gcircumflex" unicode="&#x11c;" horiz-adv-x="694" 
d="M640 653q0 -8 -5 -16l-33 -60q-7 -14 -17 -14q-4 0 -14 4q-23 11 -59.5 20t-71.5 9q-41 0 -80.5 -14.5t-70.5 -42.5q-37 -33 -63 -81t-37 -110q-4 -20 -5.5 -37.5t-1.5 -34.5q0 -85 40.5 -132.5t115.5 -47.5q31 0 62.5 4.5t53.5 12.5l34 191h-89q-20 0 -20 16q0 2 0.5 3
t0.5 3l11 61q2 12 9 16t18 4h194q21 0 21 -15q0 -5 -1 -8l-55 -312q-3 -15 -9 -22.5t-22 -15.5q-23 -11 -51 -19.5t-59 -14.5t-62.5 -9t-59.5 -3q-67 0 -117.5 19t-84.5 54t-51.5 84.5t-17.5 110.5q0 21 2 43t6 45q14 78 50 144.5t88.5 114.5t119.5 75t144 27q48 0 91.5 -9
t85.5 -29q10 -5 10 -14zM599 791q0 -9 -10 -17l-23 -18q-8 -6 -14 -6q-7 0 -14 7l-80 73l-96 -71q-11 -8 -19 -8q-7 0 -15 8l-17 18q-5 5 -5 9q0 5 3.5 9t8.5 8l114 91q8 6 14 8.5t17 2.5h19q8 0 14 -1.5t11 -7.5l87 -94q5 -7 5 -11z" />
    <glyph glyph-name="Gbreve" unicode="&#x11e;" horiz-adv-x="694" 
d="M640 653q0 -8 -5 -16l-33 -60q-7 -14 -17 -14q-4 0 -14 4q-23 11 -59.5 20t-71.5 9q-41 0 -80.5 -14.5t-70.5 -42.5q-37 -33 -63 -81t-37 -110q-4 -20 -5.5 -37.5t-1.5 -34.5q0 -85 40.5 -132.5t115.5 -47.5q31 0 62.5 4.5t53.5 12.5l34 191h-89q-20 0 -20 16q0 2 0.5 3
t0.5 3l11 61q2 12 9 16t18 4h194q21 0 21 -15q0 -5 -1 -8l-55 -312q-3 -15 -9 -22.5t-22 -15.5q-23 -11 -51 -19.5t-59 -14.5t-62.5 -9t-59.5 -3q-67 0 -117.5 19t-84.5 54t-51.5 84.5t-17.5 110.5q0 21 2 43t6 45q14 78 50 144.5t88.5 114.5t119.5 75t144 27q48 0 91.5 -9
t85.5 -29q10 -5 10 -14zM598 885q0 -4 -4 -14q-18 -48 -60 -74.5t-92 -26.5q-46 0 -77.5 26t-33.5 74v4q0 11 4 16t19 5h28q14 0 17 -4t7 -14q5 -15 16.5 -25.5t34.5 -10.5q17 0 34.5 10.5t28.5 27.5q6 9 11.5 12.5t16.5 3.5h33q17 0 17 -10z" />
    <glyph glyph-name="Gdotaccent" unicode="&#x120;" horiz-adv-x="694" 
d="M640 653q0 -8 -5 -16l-33 -60q-7 -14 -17 -14q-4 0 -14 4q-23 11 -59.5 20t-71.5 9q-41 0 -80.5 -14.5t-70.5 -42.5q-37 -33 -63 -81t-37 -110q-4 -20 -5.5 -37.5t-1.5 -34.5q0 -85 40.5 -132.5t115.5 -47.5q31 0 62.5 4.5t53.5 12.5l34 191h-89q-20 0 -20 16q0 2 0.5 3
t0.5 3l11 61q2 12 9 16t18 4h194q21 0 21 -15q0 -5 -1 -8l-55 -312q-3 -15 -9 -22.5t-22 -15.5q-23 -11 -51 -19.5t-59 -14.5t-62.5 -9t-59.5 -3q-67 0 -117.5 19t-84.5 54t-51.5 84.5t-17.5 110.5q0 21 2 43t6 45q14 78 50 144.5t88.5 114.5t119.5 75t144 27q48 0 91.5 -9
t85.5 -29q10 -5 10 -14zM510 837q0 -15 -6 -28.5t-16.5 -23t-24 -15.5t-28.5 -6q-22 0 -38.5 13t-16.5 36q0 15 6.5 28.5t17.5 23t24.5 15t28.5 5.5q22 0 37.5 -12.5t15.5 -35.5z" />
    <glyph glyph-name="Gcommaaccent" unicode="&#x122;" horiz-adv-x="694" 
d="M640 653q0 -8 -5 -16l-33 -60q-7 -14 -17 -14q-4 0 -14 4q-23 11 -59.5 20t-71.5 9q-41 0 -80.5 -14.5t-70.5 -42.5q-37 -33 -63 -81t-37 -110q-4 -20 -5.5 -37.5t-1.5 -34.5q0 -85 40.5 -132.5t115.5 -47.5q31 0 62.5 4.5t53.5 12.5l34 191h-89q-20 0 -20 16q0 2 0.5 3
t0.5 3l11 61q2 12 9 16t18 4h194q21 0 21 -15q0 -5 -1 -8l-55 -312q-3 -15 -9 -22.5t-22 -15.5q-23 -11 -51 -19.5t-59 -14.5t-62.5 -9t-59.5 -3q-67 0 -117.5 19t-84.5 54t-51.5 84.5t-17.5 110.5q0 21 2 43t6 45q14 78 50 144.5t88.5 114.5t119.5 75t144 27q48 0 91.5 -9
t85.5 -29q10 -5 10 -14zM332 -94q0 -23 -9.5 -46t-25 -44t-34.5 -38t-37 -29q-9 -6 -16 -6q-5 0 -10 8l-7 10q-2 4 -1 8q0 4 7 9q10 8 19 18t16 21q3 5 5.5 11t2.5 13t-3.5 14t-7.5 13.5t-7.5 14t-3.5 15.5q0 26 20 44t44 18q23 0 35.5 -16t12.5 -38z" />
    <glyph glyph-name="Hcircumflex" unicode="&#x124;" horiz-adv-x="703" 
d="M563 25q-4 -25 -28 -25h-79q-26 0 -22 25l50 279h-284l-50 -279q-4 -25 -29 -25h-78q-27 0 -23 25l114 643q2 13 10.5 18.5t20.5 5.5h78q12 0 17.5 -5t3.5 -19l-46 -261h284l46 261q4 24 30 24h79q12 0 17 -5t3 -19zM565 791q0 -9 -10 -17l-23 -18q-8 -6 -14 -6
q-7 0 -14 7l-80 73l-96 -71q-11 -8 -19 -8q-7 0 -15 8l-17 18q-5 5 -5 9q0 5 3.5 9t8.5 8l114 91q8 6 14 8.5t17 2.5h19q8 0 14 -1.5t11 -7.5l87 -94q5 -7 5 -11z" />
    <glyph glyph-name="Hbar" unicode="&#x126;" horiz-adv-x="703" 
d="M664 594h21q17 0 20.5 -4.5t1.5 -14.5l-5 -29q-2 -13 -7 -16.5t-18 -3.5h-25l-89 -501q-4 -25 -28 -25h-79q-26 0 -22 25l50 279h-284l-50 -279q-4 -25 -29 -25h-78q-27 0 -23 25l89 501h-26q-19 0 -19 12q0 2 0.5 3.5t0.5 3.5l5 30q2 12 7 15.5t17 3.5h27l13 74
q2 13 10.5 18.5t20.5 5.5h78q12 0 17.5 -5t3.5 -19l-13 -74h284l13 74q4 24 30 24h79q12 0 17 -5t3 -19zM502 407l21 119h-284l-21 -119h284z" />
    <glyph glyph-name="Igrave" unicode="&#xcc;" horiz-adv-x="417" 
d="M400 629q-2 -12 -8 -16.5t-17 -4.5h-57l-92 -524h54q11 0 15 -6t2 -15l-7 -43q-3 -20 -22 -20h-238q-20 0 -17 19l8 45q4 20 24 20h53l92 524h-58q-19 0 -16 20l7 44q2 8 7.5 14t14.5 6h245q11 0 15.5 -5.5t2.5 -13.5zM353 757q-6 -8 -13 -8t-18 6l-128 77q-11 6 -9.5 14
t8.5 16l30 35q10 11 16.5 11t17.5 -9l111 -91q10 -8 10 -13.5t-8 -15.5z" />
    <glyph glyph-name="Iacute" unicode="&#xcd;" horiz-adv-x="417" 
d="M400 629q-2 -12 -8 -16.5t-17 -4.5h-57l-92 -524h54q11 0 15 -6t2 -15l-7 -43q-3 -20 -22 -20h-238q-20 0 -17 19l8 45q4 20 24 20h53l92 524h-58q-19 0 -16 20l7 44q2 8 7.5 14t14.5 6h245q11 0 15.5 -5.5t2.5 -13.5zM388 845q0 -8 -9 -13l-128 -77q-11 -6 -17 -6
q-9 0 -14 8l-17 22q-8 10 -8 15t10 14l111 91q10 9 17 9q8 0 17 -11l30 -35q8 -10 8 -17z" />
    <glyph glyph-name="Icircumflex" unicode="&#xce;" horiz-adv-x="417" 
d="M400 629q-2 -12 -8 -16.5t-17 -4.5h-57l-92 -524h54q11 0 15 -6t2 -15l-7 -43q-3 -20 -22 -20h-238q-20 0 -17 19l8 45q4 20 24 20h53l92 524h-58q-19 0 -16 20l7 44q2 8 7.5 14t14.5 6h245q11 0 15.5 -5.5t2.5 -13.5zM421 791q0 -9 -10 -17l-23 -18q-8 -6 -14 -6
q-7 0 -14 7l-80 73l-96 -71q-11 -8 -19 -8q-7 0 -15 8l-17 18q-5 5 -5 9q0 5 3.5 9t8.5 8l114 91q8 6 14 8.5t17 2.5h19q8 0 14 -1.5t11 -7.5l87 -94q5 -7 5 -11z" />
    <glyph glyph-name="Itilde" unicode="&#x128;" horiz-adv-x="417" 
d="M400 629q-2 -12 -8 -16.5t-17 -4.5h-57l-92 -524h54q11 0 15 -6t2 -15l-7 -43q-3 -20 -22 -20h-238q-20 0 -17 19l8 45q4 20 24 20h53l92 524h-58q-19 0 -16 20l7 44q2 8 7.5 14t14.5 6h245q11 0 15.5 -5.5t2.5 -13.5zM438 823q0 -10 -10 -17q-26 -17 -55 -29t-58 -12
q-15 0 -28 6.5t-25.5 14t-25.5 14t-26 6.5q-14 0 -31 -8t-33 -16q-5 -2 -9 -4t-8 -2q-7 0 -10 10l-10 35q-2 8 -2 10q0 6 4.5 9.5t12.5 8.5q22 13 48 22.5t49 9.5q15 0 30 -6.5t28.5 -14t26 -14t23.5 -6.5q14 0 30 7.5t36 18.5q8 5 16 5t12 -9l13 -29q2 -3 2 -10z" />
    <glyph glyph-name="Idieresis" unicode="&#xcf;" horiz-adv-x="417" 
d="M400 629q-2 -12 -8 -16.5t-17 -4.5h-57l-92 -524h54q11 0 15 -6t2 -15l-7 -43q-3 -20 -22 -20h-238q-20 0 -17 19l8 45q4 20 24 20h53l92 524h-58q-19 0 -16 20l7 44q2 8 7.5 14t14.5 6h245q11 0 15.5 -5.5t2.5 -13.5zM440 841q0 -27 -21 -46.5t-47 -19.5
q-20 0 -35.5 11.5t-15.5 33.5q0 28 22 46.5t49 18.5q20 0 34 -11.5t14 -32.5zM257 840q0 -27 -21.5 -46t-47.5 -19q-20 0 -35 11.5t-15 32.5q0 29 21.5 47.5t48.5 18.5q20 0 34.5 -12t14.5 -33z" />
    <glyph glyph-name="Imacron" unicode="&#x12a;" horiz-adv-x="417" 
d="M400 629q-2 -12 -8 -16.5t-17 -4.5h-57l-92 -524h54q11 0 15 -6t2 -15l-7 -43q-3 -20 -22 -20h-238q-20 0 -17 19l8 45q4 20 24 20h53l92 524h-58q-19 0 -16 20l7 44q2 8 7.5 14t14.5 6h245q11 0 15.5 -5.5t2.5 -13.5zM421 827q-2 -14 -9.5 -21t-24.5 -7h-226
q-15 0 -19 7.5t-2 20.5l4 23q2 13 8 19t22 6h226q17 0 22 -5.5t3 -19.5z" />
    <glyph glyph-name="Ibreve" unicode="&#x12c;" horiz-adv-x="417" 
d="M400 629q-2 -12 -8 -16.5t-17 -4.5h-57l-92 -524h54q11 0 15 -6t2 -15l-7 -43q-3 -20 -22 -20h-238q-20 0 -17 19l8 45q4 20 24 20h53l92 524h-58q-19 0 -16 20l7 44q2 8 7.5 14t14.5 6h245q11 0 15.5 -5.5t2.5 -13.5zM424 885q0 -4 -4 -14q-18 -48 -60 -74.5t-92 -26.5
q-46 0 -77.5 26t-33.5 74v4q0 11 4 16t19 5h28q14 0 17 -4t7 -14q5 -15 16.5 -25.5t34.5 -10.5q17 0 34.5 10.5t28.5 27.5q6 9 11.5 12.5t16.5 3.5h33q17 0 17 -10z" />
    <glyph glyph-name="Idotaccent" unicode="&#x130;" horiz-adv-x="417" 
d="M400 629q-2 -12 -8 -16.5t-17 -4.5h-57l-92 -524h54q11 0 15 -6t2 -15l-7 -43q-3 -20 -22 -20h-238q-20 0 -17 19l8 45q4 20 24 20h53l92 524h-58q-19 0 -16 20l7 44q2 8 7.5 14t14.5 6h245q11 0 15.5 -5.5t2.5 -13.5zM351 837q0 -15 -6 -28.5t-16.5 -23t-24 -15.5
t-28.5 -6q-22 0 -38.5 13t-16.5 36q0 15 6.5 28.5t17.5 23t24.5 15t28.5 5.5q22 0 37.5 -12.5t15.5 -35.5z" />
    <glyph glyph-name="Iogonek" unicode="&#x12e;" horiz-adv-x="417" 
d="M202 -178q-2 -11 -16 -15q-17 -6 -40 -10.5t-43 -4.5q-45 0 -72 17.5t-27 49.5q0 26 13.5 49t32.5 40q17 15 38.5 28t45.5 24h-104q-20 0 -17 19l8 45q4 20 24 20h53l92 524h-58q-19 0 -16 20l7 44q2 8 7.5 14t14.5 6h245q11 0 15.5 -5.5t2.5 -13.5l-8 -44
q-2 -12 -8 -16.5t-17 -4.5h-57l-92 -524h54q11 0 15 -6t2 -15l-7 -43q-3 -20 -22 -20h-67q-13 -9 -31.5 -22t-36 -29t-30 -34t-12.5 -37q0 -16 11.5 -22.5t29.5 -6.5q10 0 26.5 2.5t28.5 6.5q1 0 2 0.5t2 0.5q7 0 8 -7l3 -24v-6z" />
    <glyph glyph-name="IJ" unicode="&#x132;" horiz-adv-x="836" 
d="M400 629q-2 -12 -8 -16.5t-17 -4.5h-57l-92 -524h54q11 0 15 -6t2 -15l-7 -43q-3 -20 -22 -20h-238q-20 0 -17 19l8 45q4 20 24 20h53l92 524h-58q-19 0 -16 20l7 44q2 8 7.5 14t14.5 6h245q11 0 15.5 -5.5t2.5 -13.5zM735 230q-12 -69 -36.5 -119.5t-68.5 -80.5
q-58 -40 -153 -40q-14 0 -32 2t-35 5q-13 2 -12.5 9t2.5 17l15 56q4 18 26 15l28 -4t25 -2q20 0 39.5 6.5t32.5 20.5q26 29 38 93l70 400h-113q-12 0 -15.5 6.5t-1.5 15.5l7 41q3 21 25 21h217q25 0 20 -23z" />
    <glyph glyph-name="Jcircumflex" unicode="&#x134;" horiz-adv-x="434" 
d="M333 230q-12 -69 -36.5 -119.5t-68.5 -80.5q-58 -40 -153 -40q-14 0 -32 2t-35 5q-13 2 -12.5 9t2.5 17l15 56q4 18 26 15l28 -4t25 -2q20 0 39.5 6.5t32.5 20.5q26 29 38 93l70 400h-113q-12 0 -15.5 6.5t-1.5 15.5l7 41q3 21 25 21h217q25 0 20 -23zM430 791
q0 -9 -10 -17l-23 -18q-8 -6 -14 -6q-7 0 -14 7l-80 73l-96 -71q-11 -8 -19 -8q-7 0 -15 8l-17 18q-5 5 -5 9q0 5 3.5 9t8.5 8l114 91q8 6 14 8.5t17 2.5h19q8 0 14 -1.5t11 -7.5l87 -94q5 -7 5 -11z" />
    <glyph glyph-name="Kcommaaccent" unicode="&#x136;" horiz-adv-x="611" 
d="M319 358l208 -327q7 -11 5.5 -21t-17.5 -10h-100q-18 0 -27 6t-17 19l-167 277h-2l-49 -277q-4 -25 -28 -25h-80q-25 0 -21 25l114 643q4 24 29 24h80q12 0 17 -5t3 -19l-50 -283h2l257 289q16 18 40 18h80q13 0 14 -8.5t-6 -16.5zM295 -94q0 -23 -9.5 -46t-25 -44
t-34.5 -38t-37 -29q-9 -6 -16 -6q-5 0 -10 8l-7 10q-2 4 -1 8q0 4 7 9q10 8 19 18t16 21q3 5 5.5 11t2.5 13t-3.5 14t-7.5 13.5t-7.5 14t-3.5 15.5q0 26 20 44t44 18q23 0 35.5 -16t12.5 -38z" />
    <glyph glyph-name="Lacute" unicode="&#x139;" horiz-adv-x="508" 
d="M430 24q-2 -14 -9.5 -19t-18.5 -5h-356q-14 0 -19 5.5t-2 22.5l113 639q5 25 28 25h80q14 0 18 -6t2 -20l-98 -559h253q25 0 20 -23zM341 845q0 -8 -9 -13l-128 -77q-11 -6 -17 -6q-9 0 -14 8l-17 22q-8 10 -8 15t10 14l111 91q10 9 17 9q8 0 17 -11l30 -35q8 -10 8 -17z
" />
    <glyph glyph-name="Lcaron" unicode="&#x13d;" horiz-adv-x="508" 
d="M430 24q-2 -14 -9.5 -19t-18.5 -5h-356q-14 0 -19 5.5t-2 22.5l113 639q5 25 28 25h80q14 0 18 -6t2 -20l-98 -559h253q25 0 20 -23zM484 646q0 -23 -9.5 -46t-25 -44t-34.5 -38t-37 -29q-9 -6 -16 -6q-5 0 -10 8l-7 10q-2 4 -1 8q0 4 7 9q10 8 19 18t16 21q3 5 5.5 11
t2.5 13t-3.5 14t-7.5 13.5t-7.5 14t-3.5 15.5q0 26 20 44t44 18q23 0 35.5 -16t12.5 -38z" />
    <glyph glyph-name="Lcommaaccent" unicode="&#x13b;" horiz-adv-x="508" 
d="M430 24q-2 -14 -9.5 -19t-18.5 -5h-356q-14 0 -19 5.5t-2 22.5l113 639q5 25 28 25h80q14 0 18 -6t2 -20l-98 -559h253q25 0 20 -23zM268 -94q0 -23 -9.5 -46t-25 -44t-34.5 -38t-37 -29q-9 -6 -16 -6q-5 0 -10 8l-7 10q-2 4 -1 8q0 4 7 9q10 8 19 18t16 21q3 5 5.5 11
t2.5 13t-3.5 14t-7.5 13.5t-7.5 14t-3.5 15.5q0 26 20 44t44 18q23 0 35.5 -16t12.5 -38z" />
    <glyph glyph-name="Lslash" unicode="&#x141;" horiz-adv-x="508" 
d="M442 91q0 -2 -0.5 -3.5t-0.5 -3.5l-11 -60q-2 -14 -9.5 -19t-18.5 -5h-356q-11 0 -16.5 3.5t-5.5 14.5q0 6 1 10l40 230l-76 -55q-2 -2 -6 -4.5t-6 -2.5q-5 -3 -8 -3q-8 0 -8 11v4l5 31q2 12 8 16.5t17 12.5l88 64l59 335q5 25 28 25h80q21 0 21 -16q0 -6 -1 -10
l-39 -226l87 64q2 2 6.5 4.5t6.5 2.5q6 3 11 3q7 0 7 -8v-4l-6 -30q-2 -13 -9.5 -19.5t-18.5 -14.5l-97 -71l-46 -260h253q21 0 21 -16z" />
    <glyph glyph-name="Ldot" unicode="&#x13f;" horiz-adv-x="508" 
d="M430 24q-2 -14 -9.5 -19t-18.5 -5h-356q-14 0 -19 5.5t-2 22.5l113 639q5 25 28 25h80q14 0 18 -6t2 -20l-98 -559h253q25 0 20 -23zM450 357q0 -15 -6 -28.5t-16.5 -23t-24 -15.5t-28.5 -6q-22 0 -38.5 13t-16.5 36q0 15 6.5 28.5t17.5 23t24.5 15t28.5 5.5
q22 0 37.5 -12.5t15.5 -35.5z" />
    <glyph glyph-name="Nacute" unicode="&#x143;" horiz-adv-x="742" 
d="M607 27q-3 -17 -10.5 -22t-18.5 -5h-67q-22 0 -34 21l-248 446h-2l-77 -441q-4 -26 -31 -26h-72q-14 0 -20 5t-3 20l113 640q3 16 10.5 21.5t21.5 5.5h65q12 0 18.5 -4t12.5 -15l249 -452h2l78 445q4 26 31 26h75q16 0 18.5 -7.5t0.5 -19.5zM566 845q0 -8 -9 -13
l-128 -77q-11 -6 -17 -6q-9 0 -14 8l-17 22q-8 10 -8 15t10 14l111 91q10 9 17 9q8 0 17 -11l30 -35q8 -10 8 -17z" />
    <glyph glyph-name="Ncaron" unicode="&#x147;" horiz-adv-x="742" 
d="M607 27q-3 -17 -10.5 -22t-18.5 -5h-67q-22 0 -34 21l-248 446h-2l-77 -441q-4 -26 -31 -26h-72q-14 0 -20 5t-3 20l113 640q3 16 10.5 21.5t21.5 5.5h65q12 0 18.5 -4t12.5 -15l249 -452h2l78 445q4 26 31 26h75q16 0 18.5 -7.5t0.5 -19.5zM596 871q0 -7 -11 -16
l-112 -92q-8 -6 -14.5 -9t-17.5 -3h-18q-8 0 -14 1.5t-11 7.5l-84 96q-6 7 -6 12q0 7 11 15l23 18q5 5 13 5q6 0 14 -6l76 -65l99 62q11 8 19 8q7 0 14 -8l14 -16q5 -7 5 -10z" />
    <glyph glyph-name="Ntilde" unicode="&#xd1;" horiz-adv-x="742" 
d="M607 27q-3 -17 -10.5 -22t-18.5 -5h-67q-22 0 -34 21l-248 446h-2l-77 -441q-4 -26 -31 -26h-72q-14 0 -20 5t-3 20l113 640q3 16 10.5 21.5t21.5 5.5h65q12 0 18.5 -4t12.5 -15l249 -452h2l78 445q4 26 31 26h75q16 0 18.5 -7.5t0.5 -19.5zM614 823q0 -10 -10 -17
q-26 -17 -55 -29t-58 -12q-15 0 -28 6.5t-25.5 14t-25.5 14t-26 6.5q-14 0 -31 -8t-33 -16q-5 -2 -9 -4t-8 -2q-7 0 -10 10l-10 35q-2 8 -2 10q0 6 4.5 9.5t12.5 8.5q22 13 48 22.5t49 9.5q15 0 30 -6.5t28.5 -14t26 -14t23.5 -6.5q14 0 30 7.5t36 18.5q8 5 16 5t12 -9
l13 -29q2 -3 2 -10z" />
    <glyph glyph-name="Ncommaaccent" unicode="&#x145;" horiz-adv-x="742" 
d="M607 27q-3 -17 -10.5 -22t-18.5 -5h-67q-22 0 -34 21l-248 446h-2l-77 -441q-4 -26 -31 -26h-72q-14 0 -20 5t-3 20l113 640q3 16 10.5 21.5t21.5 5.5h65q12 0 18.5 -4t12.5 -15l249 -452h2l78 445q4 26 31 26h75q16 0 18.5 -7.5t0.5 -19.5zM332 -94q0 -23 -9.5 -46
t-25 -44t-34.5 -38t-37 -29q-9 -6 -16 -6q-5 0 -10 8l-7 10q-2 4 -1 8q0 4 7 9q10 8 19 18t16 21q3 5 5.5 11t2.5 13t-3.5 14t-7.5 13.5t-7.5 14t-3.5 15.5q0 26 20 44t44 18q23 0 35.5 -16t12.5 -38z" />
    <glyph glyph-name="Eng" unicode="&#x14a;" horiz-adv-x="742" 
d="M229 467h-2l-77 -441q-4 -26 -31 -26h-72q-14 0 -20 5t-3 20l113 640q3 16 10.5 21.5t21.5 5.5h65q12 0 18.5 -4t12.5 -15l249 -452h2l78 445q4 26 31 26h75q16 0 18.5 -7.5t0.5 -19.5l-114 -650q-18 -104 -70.5 -158.5t-159.5 -54.5q-43 0 -70 10q-17 6 -10 26l17 52
q6 17 21 14q23 -5 45 -5q40 0 63 22.5t32 71.5l5 27z" />
    <glyph glyph-name="Ograve" unicode="&#xd2;" horiz-adv-x="710" 
d="M672 443q0 -82 -26 -163.5t-75 -146t-121 -105t-163 -40.5q-121 0 -182 69.5t-61 190.5q0 48 9 96t26 93.5t42.5 86.5t58.5 75q47 48 110.5 77t137.5 29q62 0 108 -19t76 -53.5t45 -83t15 -106.5zM533 440q0 75 -28.5 115.5t-94.5 40.5q-40 0 -73 -16.5t-58 -43.5
t-43.5 -62.5t-30.5 -73.5t-17.5 -76.5t-5.5 -71.5q0 -72 29.5 -113.5t95.5 -41.5q62 0 105 34.5t70 86t39 111.5t12 111zM509 757q-6 -8 -13 -8t-18 6l-128 77q-11 6 -9.5 14t8.5 16l30 35q10 11 16.5 11t17.5 -9l111 -91q10 -8 10 -13.5t-8 -15.5z" />
    <glyph glyph-name="Oacute" unicode="&#xd3;" horiz-adv-x="710" 
d="M672 443q0 -82 -26 -163.5t-75 -146t-121 -105t-163 -40.5q-121 0 -182 69.5t-61 190.5q0 48 9 96t26 93.5t42.5 86.5t58.5 75q47 48 110.5 77t137.5 29q62 0 108 -19t76 -53.5t45 -83t15 -106.5zM533 440q0 75 -28.5 115.5t-94.5 40.5q-40 0 -73 -16.5t-58 -43.5
t-43.5 -62.5t-30.5 -73.5t-17.5 -76.5t-5.5 -71.5q0 -72 29.5 -113.5t95.5 -41.5q62 0 105 34.5t70 86t39 111.5t12 111zM530 845q0 -8 -9 -13l-128 -77q-11 -6 -17 -6q-9 0 -14 8l-17 22q-8 10 -8 15t10 14l111 91q10 9 17 9q8 0 17 -11l30 -35q8 -10 8 -17z" />
    <glyph glyph-name="Ocircumflex" unicode="&#xd4;" horiz-adv-x="710" 
d="M672 443q0 -82 -26 -163.5t-75 -146t-121 -105t-163 -40.5q-121 0 -182 69.5t-61 190.5q0 48 9 96t26 93.5t42.5 86.5t58.5 75q47 48 110.5 77t137.5 29q62 0 108 -19t76 -53.5t45 -83t15 -106.5zM533 440q0 75 -28.5 115.5t-94.5 40.5q-40 0 -73 -16.5t-58 -43.5
t-43.5 -62.5t-30.5 -73.5t-17.5 -76.5t-5.5 -71.5q0 -72 29.5 -113.5t95.5 -41.5q62 0 105 34.5t70 86t39 111.5t12 111zM570 791q0 -9 -10 -17l-23 -18q-8 -6 -14 -6q-7 0 -14 7l-80 73l-96 -71q-11 -8 -19 -8q-7 0 -15 8l-17 18q-5 5 -5 9q0 5 3.5 9t8.5 8l114 91
q8 6 14 8.5t17 2.5h19q8 0 14 -1.5t11 -7.5l87 -94q5 -7 5 -11z" />
    <glyph glyph-name="Otilde" unicode="&#xd5;" horiz-adv-x="710" 
d="M672 443q0 -82 -26 -163.5t-75 -146t-121 -105t-163 -40.5q-121 0 -182 69.5t-61 190.5q0 48 9 96t26 93.5t42.5 86.5t58.5 75q47 48 110.5 77t137.5 29q62 0 108 -19t76 -53.5t45 -83t15 -106.5zM533 440q0 75 -28.5 115.5t-94.5 40.5q-40 0 -73 -16.5t-58 -43.5
t-43.5 -62.5t-30.5 -73.5t-17.5 -76.5t-5.5 -71.5q0 -72 29.5 -113.5t95.5 -41.5q62 0 105 34.5t70 86t39 111.5t12 111zM612 823q0 -10 -10 -17q-26 -17 -55 -29t-58 -12q-15 0 -28 6.5t-25.5 14t-25.5 14t-26 6.5q-14 0 -31 -8t-33 -16q-5 -2 -9 -4t-8 -2q-7 0 -10 10
l-10 35q-2 8 -2 10q0 6 4.5 9.5t12.5 8.5q22 13 48 22.5t49 9.5q15 0 30 -6.5t28.5 -14t26 -14t23.5 -6.5q14 0 30 7.5t36 18.5q8 5 16 5t12 -9l13 -29q2 -3 2 -10z" />
    <glyph glyph-name="Odieresis" unicode="&#xd6;" horiz-adv-x="710" 
d="M672 443q0 -82 -26 -163.5t-75 -146t-121 -105t-163 -40.5q-121 0 -182 69.5t-61 190.5q0 48 9 96t26 93.5t42.5 86.5t58.5 75q47 48 110.5 77t137.5 29q62 0 108 -19t76 -53.5t45 -83t15 -106.5zM533 440q0 75 -28.5 115.5t-94.5 40.5q-40 0 -73 -16.5t-58 -43.5
t-43.5 -62.5t-30.5 -73.5t-17.5 -76.5t-5.5 -71.5q0 -72 29.5 -113.5t95.5 -41.5q62 0 105 34.5t70 86t39 111.5t12 111zM597 841q0 -27 -21 -46.5t-47 -19.5q-20 0 -35.5 11.5t-15.5 33.5q0 28 22 46.5t49 18.5q20 0 34 -11.5t14 -32.5zM414 840q0 -27 -21.5 -46t-47.5 -19
q-20 0 -35 11.5t-15 32.5q0 29 21.5 47.5t48.5 18.5q20 0 34.5 -12t14.5 -33z" />
    <glyph glyph-name="Omacron" unicode="&#x14c;" horiz-adv-x="710" 
d="M672 443q0 -82 -26 -163.5t-75 -146t-121 -105t-163 -40.5q-121 0 -182 69.5t-61 190.5q0 48 9 96t26 93.5t42.5 86.5t58.5 75q47 48 110.5 77t137.5 29q62 0 108 -19t76 -53.5t45 -83t15 -106.5zM533 440q0 75 -28.5 115.5t-94.5 40.5q-40 0 -73 -16.5t-58 -43.5
t-43.5 -62.5t-30.5 -73.5t-17.5 -76.5t-5.5 -71.5q0 -72 29.5 -113.5t95.5 -41.5q62 0 105 34.5t70 86t39 111.5t12 111zM575 827q-2 -14 -9.5 -21t-24.5 -7h-226q-15 0 -19 7.5t-2 20.5l4 23q2 13 8 19t22 6h226q17 0 22 -5.5t3 -19.5z" />
    <glyph glyph-name="Obreve" unicode="&#x14e;" horiz-adv-x="710" 
d="M672 443q0 -82 -26 -163.5t-75 -146t-121 -105t-163 -40.5q-121 0 -182 69.5t-61 190.5q0 48 9 96t26 93.5t42.5 86.5t58.5 75q47 48 110.5 77t137.5 29q62 0 108 -19t76 -53.5t45 -83t15 -106.5zM533 440q0 75 -28.5 115.5t-94.5 40.5q-40 0 -73 -16.5t-58 -43.5
t-43.5 -62.5t-30.5 -73.5t-17.5 -76.5t-5.5 -71.5q0 -72 29.5 -113.5t95.5 -41.5q62 0 105 34.5t70 86t39 111.5t12 111zM570 885q0 -4 -4 -14q-18 -48 -60 -74.5t-92 -26.5q-46 0 -77.5 26t-33.5 74v4q0 11 4 16t19 5h28q14 0 17 -4t7 -14q5 -15 16.5 -25.5t34.5 -10.5
q17 0 34.5 10.5t28.5 27.5q6 9 11.5 12.5t16.5 3.5h33q17 0 17 -10z" />
    <glyph glyph-name="Ohungarumlaut" unicode="&#x150;" horiz-adv-x="710" 
d="M672 443q0 -82 -26 -163.5t-75 -146t-121 -105t-163 -40.5q-121 0 -182 69.5t-61 190.5q0 48 9 96t26 93.5t42.5 86.5t58.5 75q47 48 110.5 77t137.5 29q62 0 108 -19t76 -53.5t45 -83t15 -106.5zM533 440q0 75 -28.5 115.5t-94.5 40.5q-40 0 -73 -16.5t-58 -43.5
t-43.5 -62.5t-30.5 -73.5t-17.5 -76.5t-5.5 -71.5q0 -72 29.5 -113.5t95.5 -41.5q62 0 105 34.5t70 86t39 111.5t12 111zM675 847q0 -11 -14 -17l-155 -75q-5 -2 -9.5 -4t-8.5 -2q-10 0 -15 11l-9 18q-3 6 -3 10q0 8 15 18l144 91q14 9 19 9q8 0 15 -13l18 -35q3 -6 3 -11z
M456 845q0 -8 -15 -15l-154 -75q-5 -2 -9.5 -4t-8.5 -2q-10 0 -15 11l-9 18q-3 6 -3 10q0 8 15 18l143 91q6 4 10.5 6.5t9.5 2.5q8 0 15 -13l17 -35q4 -7 4 -13z" />
    <glyph glyph-name="Oslash" unicode="&#xd8;" horiz-adv-x="715" 
d="M635 605q41 -65 41 -159q0 -83 -25 -164.5t-74 -147t-120 -106t-163 -40.5q-100 0 -162 50l-57 -65q-11 -13 -19.5 -16t-20.5 8l-23 20q-12 11 -10 17t11 17l70 80q-35 61 -35 151q0 82 25.5 163.5t74.5 146t120 105t162 40.5q48 0 84.5 -11.5t65.5 -32.5l63 71
q10 11 16 12.5t12 -3.5l31 -27q9 -8 10 -14.5t-7 -15.5zM494 566q-32 32 -87 32q-56 0 -97 -32.5t-68 -81t-40.5 -104.5t-13.5 -103q0 -31 6 -55zM536 427q0 18 -1 34t-4 30l-310 -355q33 -41 96 -41q57 0 98.5 34t68.5 84t39.5 108t12.5 106z" />
    <glyph glyph-name="Oslashacute" unicode="&#x1fe;" horiz-adv-x="715" 
d="M635 605q41 -65 41 -159q0 -83 -25 -164.5t-74 -147t-120 -106t-163 -40.5q-100 0 -162 50l-57 -65q-11 -13 -19.5 -16t-20.5 8l-23 20q-12 11 -10 17t11 17l70 80q-35 61 -35 151q0 82 25.5 163.5t74.5 146t120 105t162 40.5q48 0 84.5 -11.5t65.5 -32.5l63 71
q10 11 16 12.5t12 -3.5l31 -27q9 -8 10 -14.5t-7 -15.5zM494 566q-32 32 -87 32q-56 0 -97 -32.5t-68 -81t-40.5 -104.5t-13.5 -103q0 -31 6 -55zM536 427q0 18 -1 34t-4 30l-310 -355q33 -41 96 -41q57 0 98.5 34t68.5 84t39.5 108t12.5 106zM564 844q0 -8 -9 -13l-128 -77
q-11 -6 -17 -6q-9 0 -14 8l-17 22q-8 10 -8 15t10 14l111 91q10 9 17 9q8 0 17 -11l30 -35q8 -10 8 -17z" />
    <glyph glyph-name="OE" unicode="&#x152;" horiz-adv-x="984" 
d="M972 609q-4 -14 -12 -17.5t-24 -3.5h-252l-32 -181h231q27 0 22 -22l-10 -57q-4 -24 -29 -24h-232l-36 -200h268q25 0 21 -23l-10 -57q-5 -24 -28 -24h-370q-14 0 -18.5 9t-3.5 20l1 12q-32 -23 -79.5 -38t-93.5 -15q-120 0 -180.5 67.5t-60.5 185.5q0 83 24 166t72 149
t119 107.5t165 41.5q47 0 83.5 -13t60.5 -35q2 13 7.5 24t20.5 11h377q23 0 17 -21zM550 554q-27 21 -65 32t-69 11q-65 0 -109 -34.5t-72 -86t-40 -112.5t-12 -113q0 -77 34 -116t97 -39q41 0 86 13.5t77 36.5z" />
    <glyph glyph-name="Thorn" unicode="&#xde;" horiz-adv-x="568" 
d="M538 405q0 -13 -1.5 -25.5t-3.5 -26.5q-9 -49 -31 -91.5t-55 -73.5t-75.5 -49t-91.5 -18q-80 0 -119 36l-23 -131q-2 -15 -10.5 -20.5t-21.5 -5.5h-70q-20 0 -20 18q0 2 0.5 4t0.5 4q33 190 55 313.5t35 196.5t19 102t7 30q3 14 20 17l76 10q2 0 3.5 0.5t3.5 0.5
q15 0 15 -14q0 -2 -0.5 -3.5t-0.5 -3.5l-24 -145q25 20 62 32.5t77 12.5q78 0 125.5 -44.5t47.5 -125.5zM410 384q0 44 -22 68.5t-65 24.5q-35 0 -65 -12t-48 -27l-32 -181q12 -17 39 -28.5t56 -11.5q58 0 90.5 36t43.5 95q3 19 3 36z" />
    <glyph glyph-name="Racute" unicode="&#x154;" horiz-adv-x="607" 
d="M563 523q0 -41 -12 -78.5t-34 -69t-53 -56.5t-69 -40l120 -253q3 -8 2 -14q-2 -12 -17 -12h-91q-14 0 -22 4.5t-13 15.5l-103 235h-77l-41 -230q-2 -11 -8 -18t-19 -7h-82q-24 0 -20 25l113 638q3 17 9 23t23 6h148q33 0 65 -3t61 -11t53 -22.5t40 -37.5q27 -39 27 -95z
M431 505q0 50 -34 70t-92 20h-51l-43 -243h62q34 0 63 11t50 31t33 48t12 63zM446 845q0 -8 -9 -13l-128 -77q-11 -6 -17 -6q-9 0 -14 8l-17 22q-8 10 -8 15t10 14l111 91q10 9 17 9q8 0 17 -11l30 -35q8 -10 8 -17z" />
    <glyph glyph-name="Rcaron" unicode="&#x158;" horiz-adv-x="607" 
d="M563 523q0 -41 -12 -78.5t-34 -69t-53 -56.5t-69 -40l120 -253q3 -8 2 -14q-2 -12 -17 -12h-91q-14 0 -22 4.5t-13 15.5l-103 235h-77l-41 -230q-2 -11 -8 -18t-19 -7h-82q-24 0 -20 25l113 638q3 17 9 23t23 6h148q33 0 65 -3t61 -11t53 -22.5t40 -37.5q27 -39 27 -95z
M431 505q0 50 -34 70t-92 20h-51l-43 -243h62q34 0 63 11t50 31t33 48t12 63zM491 871q0 -7 -11 -16l-112 -92q-8 -6 -14.5 -9t-17.5 -3h-18q-8 0 -14 1.5t-11 7.5l-84 96q-6 7 -6 12q0 7 11 15l23 18q5 5 13 5q6 0 14 -6l76 -65l99 62q11 8 19 8q7 0 14 -8l14 -16
q5 -7 5 -10z" />
    <glyph glyph-name="Rcommaaccent" unicode="&#x156;" horiz-adv-x="607" 
d="M563 523q0 -41 -12 -78.5t-34 -69t-53 -56.5t-69 -40l120 -253q3 -8 2 -14q-2 -12 -17 -12h-91q-14 0 -22 4.5t-13 15.5l-103 235h-77l-41 -230q-2 -11 -8 -18t-19 -7h-82q-24 0 -20 25l113 638q3 17 9 23t23 6h148q33 0 65 -3t61 -11t53 -22.5t40 -37.5q27 -39 27 -95z
M431 505q0 50 -34 70t-92 20h-51l-43 -243h62q34 0 63 11t50 31t33 48t12 63zM292 -94q0 -23 -9.5 -46t-25 -44t-34.5 -38t-37 -29q-9 -6 -16 -6q-5 0 -10 8l-7 10q-2 4 -1 8q0 4 7 9q10 8 19 18t16 21q3 5 5.5 11t2.5 13t-3.5 14t-7.5 13.5t-7.5 14t-3.5 15.5q0 26 20 44
t44 18q23 0 35.5 -16t12.5 -38z" />
    <glyph glyph-name="Sacute" unicode="&#x15a;" horiz-adv-x="555" 
d="M507 576q-6 -13 -12 -13.5t-19 4.5q-14 6 -31.5 11t-36 9t-36 6.5t-32.5 2.5q-20 0 -40.5 -5t-37.5 -16t-28 -27.5t-11 -38.5q0 -26 18.5 -42.5t38.5 -27.5l102 -54q48 -25 76 -60t28 -91q0 -58 -24.5 -104t-64.5 -77.5t-91 -48t-104 -16.5q-45 0 -91.5 8t-89.5 24
q-14 5 -14 13t5 19l28 65q5 13 14 15.5t21 -2.5q33 -13 69.5 -21.5t74.5 -8.5q23 0 46.5 6.5t42 19.5t30.5 33t12 46q0 27 -17.5 44t-40.5 30l-118 65q-42 23 -66.5 59t-24.5 84q0 52 24.5 92.5t63 68.5t86 42.5t93.5 14.5q94 0 173 -35q13 -6 15 -12.5t-4 -20.5zM479 845
q0 -8 -9 -13l-128 -77q-11 -6 -17 -6q-9 0 -14 8l-17 22q-8 10 -8 15t10 14l111 91q10 9 17 9q8 0 17 -11l30 -35q8 -10 8 -17z" />
    <glyph glyph-name="Scircumflex" unicode="&#x15c;" horiz-adv-x="555" 
d="M507 576q-6 -13 -12 -13.5t-19 4.5q-14 6 -31.5 11t-36 9t-36 6.5t-32.5 2.5q-20 0 -40.5 -5t-37.5 -16t-28 -27.5t-11 -38.5q0 -26 18.5 -42.5t38.5 -27.5l102 -54q48 -25 76 -60t28 -91q0 -58 -24.5 -104t-64.5 -77.5t-91 -48t-104 -16.5q-45 0 -91.5 8t-89.5 24
q-14 5 -14 13t5 19l28 65q5 13 14 15.5t21 -2.5q33 -13 69.5 -21.5t74.5 -8.5q23 0 46.5 6.5t42 19.5t30.5 33t12 46q0 27 -17.5 44t-40.5 30l-118 65q-42 23 -66.5 59t-24.5 84q0 52 24.5 92.5t63 68.5t86 42.5t93.5 14.5q94 0 173 -35q13 -6 15 -12.5t-4 -20.5zM499 791
q0 -9 -10 -17l-23 -18q-8 -6 -14 -6q-7 0 -14 7l-80 73l-96 -71q-11 -8 -19 -8q-7 0 -15 8l-17 18q-5 5 -5 9q0 5 3.5 9t8.5 8l114 91q8 6 14 8.5t17 2.5h19q8 0 14 -1.5t11 -7.5l87 -94q5 -7 5 -11z" />
    <glyph glyph-name="Scaron" unicode="&#x160;" horiz-adv-x="555" 
d="M507 576q-6 -13 -12 -13.5t-19 4.5q-14 6 -31.5 11t-36 9t-36 6.5t-32.5 2.5q-20 0 -40.5 -5t-37.5 -16t-28 -27.5t-11 -38.5q0 -26 18.5 -42.5t38.5 -27.5l102 -54q48 -25 76 -60t28 -91q0 -58 -24.5 -104t-64.5 -77.5t-91 -48t-104 -16.5q-45 0 -91.5 8t-89.5 24
q-14 5 -14 13t5 19l28 65q5 13 14 15.5t21 -2.5q33 -13 69.5 -21.5t74.5 -8.5q23 0 46.5 6.5t42 19.5t30.5 33t12 46q0 27 -17.5 44t-40.5 30l-118 65q-42 23 -66.5 59t-24.5 84q0 52 24.5 92.5t63 68.5t86 42.5t93.5 14.5q94 0 173 -35q13 -6 15 -12.5t-4 -20.5zM520 871
q0 -7 -11 -16l-112 -92q-8 -6 -14.5 -9t-17.5 -3h-18q-8 0 -14 1.5t-11 7.5l-84 96q-6 7 -6 12q0 7 11 15l23 18q5 5 13 5q6 0 14 -6l76 -65l99 62q11 8 19 8q7 0 14 -8l14 -16q5 -7 5 -10z" />
    <glyph glyph-name="Scedilla" unicode="&#x15e;" horiz-adv-x="555" 
d="M303 -106q0 -39 -28 -66q-17 -17 -43.5 -26t-58.5 -9q-20 0 -37 4t-32 10t-9 19l11 23q5 9 9.5 9t12.5 -3q11 -4 24.5 -6.5t23.5 -2.5q25 0 38 14q9 7 9 21t-12.5 20t-35.5 6h-20q-15 0 -19 6t-2 17q1 3 1.5 7t2.5 8l13 46q-67 6 -130 29q-14 5 -14 13t5 19l28 65
q5 13 14 15.5t21 -2.5q33 -13 69.5 -21.5t74.5 -8.5q23 0 46.5 6.5t42 19.5t30.5 33t12 46q0 27 -17.5 44t-40.5 30l-118 65q-42 23 -66.5 59t-24.5 84q0 52 24.5 92.5t63 68.5t86 42.5t93.5 14.5q94 0 173 -35q13 -6 15 -12.5t-4 -20.5l-27 -61q-6 -13 -12 -13.5t-19 4.5
q-14 6 -31.5 11t-36 9t-36 6.5t-32.5 2.5q-20 0 -40.5 -5t-37.5 -16t-28 -27.5t-11 -38.5q0 -26 18.5 -42.5t38.5 -27.5l102 -54q48 -25 76 -60t28 -91t-23 -101t-61.5 -76.5t-87 -49t-99.5 -19.5l-8 -32h8q40 0 64 -15.5t24 -46.5z" />
    <glyph glyph-name="Scommaaccent" unicode="&#x218;" horiz-adv-x="555" 
d="M507 576q-6 -13 -12 -13.5t-19 4.5q-14 6 -31.5 11t-36 9t-36 6.5t-32.5 2.5q-20 0 -40.5 -5t-37.5 -16t-28 -27.5t-11 -38.5q0 -26 18.5 -42.5t38.5 -27.5l102 -54q48 -25 76 -60t28 -91q0 -58 -24.5 -104t-64.5 -77.5t-91 -48t-104 -16.5q-45 0 -91.5 8t-89.5 24
q-14 5 -14 13t5 19l28 65q5 13 14 15.5t21 -2.5q33 -13 69.5 -21.5t74.5 -8.5q23 0 46.5 6.5t42 19.5t30.5 33t12 46q0 27 -17.5 44t-40.5 30l-118 65q-42 23 -66.5 59t-24.5 84q0 52 24.5 92.5t63 68.5t86 42.5t93.5 14.5q94 0 173 -35q13 -6 15 -12.5t-4 -20.5zM240 -94
q0 -23 -9.5 -46t-25 -44t-34.5 -38t-37 -29q-9 -6 -16 -6q-5 0 -10 8l-7 10q-2 4 -1 8q0 4 7 9q10 8 19 18t16 21q3 5 5.5 11t2.5 13t-3.5 14t-7.5 13.5t-7.5 14t-3.5 15.5q0 26 20 44t44 18q23 0 35.5 -16t12.5 -38z" />
    <glyph glyph-name="Tcaron" unicode="&#x164;" horiz-adv-x="590" 
d="M619 609q-4 -14 -12 -17.5t-22 -3.5h-181l-100 -565q-2 -14 -7 -18.5t-18 -4.5h-88q-14 0 -16.5 4t-0.5 18l100 566h-187q-23 0 -19 24l10 59q3 21 26 21h512q10 0 17 -5t4 -16zM523 871q0 -7 -11 -16l-112 -92q-8 -6 -14.5 -9t-17.5 -3h-18q-8 0 -14 1.5t-11 7.5l-84 96
q-6 7 -6 12q0 7 11 15l23 18q5 5 13 5q6 0 14 -6l76 -65l99 62q11 8 19 8q7 0 14 -8l14 -16q5 -7 5 -10z" />
    <glyph glyph-name="Tcommaaccent" unicode="&#x162;" horiz-adv-x="590" 
d="M619 609q-4 -14 -12 -17.5t-22 -3.5h-181l-100 -565q-2 -14 -7 -18.5t-18 -4.5h-88q-14 0 -16.5 4t-0.5 18l100 566h-187q-23 0 -19 24l10 59q3 21 26 21h512q10 0 17 -5t4 -16zM269 -94q0 -23 -9.5 -46t-25 -44t-34.5 -38t-37 -29q-9 -6 -16 -6q-5 0 -10 8l-7 10
q-2 4 -1 8q0 4 7 9q10 8 19 18t16 21q3 5 5.5 11t2.5 13t-3.5 14t-7.5 13.5t-7.5 14t-3.5 15.5q0 26 20 44t44 18q23 0 35.5 -16t12.5 -38z" />
    <glyph glyph-name="uni021A" unicode="&#x21a;" horiz-adv-x="590" 
d="M619 609q-4 -14 -12 -17.5t-22 -3.5h-181l-100 -565q-2 -14 -7 -18.5t-18 -4.5h-88q-14 0 -16.5 4t-0.5 18l100 566h-187q-23 0 -19 24l10 59q3 21 26 21h512q10 0 17 -5t4 -16zM269 -94q0 -23 -9.5 -46t-25 -44t-34.5 -38t-37 -29q-9 -6 -16 -6q-5 0 -10 8l-7 10
q-2 4 -1 8q0 4 7 9q10 8 19 18t16 21q3 5 5.5 11t2.5 13t-3.5 14t-7.5 13.5t-7.5 14t-3.5 15.5q0 26 20 44t44 18q23 0 35.5 -16t12.5 -38z" />
    <glyph glyph-name="Tbar" unicode="&#x166;" horiz-adv-x="590" 
d="M619 609q-4 -14 -12 -17.5t-22 -3.5h-181l-36 -204h85q17 0 20.5 -4.5t1.5 -14.5l-5 -29q-2 -13 -7 -16.5t-18 -3.5h-89l-52 -293q-2 -14 -7 -18.5t-18 -4.5h-88q-14 0 -16.5 4t-0.5 18l52 294h-90q-19 0 -19 12q0 2 0.5 3.5t0.5 3.5l5 30q2 12 7 15.5t17 3.5h91l36 204
h-187q-23 0 -19 24l10 59q3 21 26 21h512q10 0 17 -5t4 -16z" />
    <glyph glyph-name="Ugrave" unicode="&#xd9;" horiz-adv-x="735" 
d="M652 307q-13 -73 -40 -132t-70 -100.5t-102 -64t-136 -22.5q-57 0 -101.5 11t-75.5 36.5t-47.5 66.5t-16.5 100q0 26 2.5 53.5t7.5 53.5l63 359q4 24 30 24h76q14 0 19.5 -6.5t1.5 -26.5l-59 -338q-4 -22 -7 -46.5t-3 -47.5q0 -69 32 -99.5t102 -30.5q51 0 85.5 18.5
t57 49t35 71t20.5 84.5l62 348q4 24 29 24h80q18 0 19 -11.5t-1 -20.5zM503 757q-6 -8 -13 -8t-18 6l-128 77q-11 6 -9.5 14t8.5 16l30 35q10 11 16.5 11t17.5 -9l111 -91q10 -8 10 -13.5t-8 -15.5z" />
    <glyph glyph-name="Uacute" unicode="&#xda;" horiz-adv-x="735" 
d="M652 307q-13 -73 -40 -132t-70 -100.5t-102 -64t-136 -22.5q-57 0 -101.5 11t-75.5 36.5t-47.5 66.5t-16.5 100q0 26 2.5 53.5t7.5 53.5l63 359q4 24 30 24h76q14 0 19.5 -6.5t1.5 -26.5l-59 -338q-4 -22 -7 -46.5t-3 -47.5q0 -69 32 -99.5t102 -30.5q51 0 85.5 18.5
t57 49t35 71t20.5 84.5l62 348q4 24 29 24h80q18 0 19 -11.5t-1 -20.5zM554 845q0 -8 -9 -13l-128 -77q-11 -6 -17 -6q-9 0 -14 8l-17 22q-8 10 -8 15t10 14l111 91q10 9 17 9q8 0 17 -11l30 -35q8 -10 8 -17z" />
    <glyph glyph-name="Ucircumflex" unicode="&#xdb;" horiz-adv-x="735" 
d="M652 307q-13 -73 -40 -132t-70 -100.5t-102 -64t-136 -22.5q-57 0 -101.5 11t-75.5 36.5t-47.5 66.5t-16.5 100q0 26 2.5 53.5t7.5 53.5l63 359q4 24 30 24h76q14 0 19.5 -6.5t1.5 -26.5l-59 -338q-4 -22 -7 -46.5t-3 -47.5q0 -69 32 -99.5t102 -30.5q51 0 85.5 18.5
t57 49t35 71t20.5 84.5l62 348q4 24 29 24h80q18 0 19 -11.5t-1 -20.5zM584 791q0 -9 -10 -17l-23 -18q-8 -6 -14 -6q-7 0 -14 7l-80 73l-96 -71q-11 -8 -19 -8q-7 0 -15 8l-17 18q-5 5 -5 9q0 5 3.5 9t8.5 8l114 91q8 6 14 8.5t17 2.5h19q8 0 14 -1.5t11 -7.5l87 -94
q5 -7 5 -11z" />
    <glyph glyph-name="Utilde" unicode="&#x168;" horiz-adv-x="735" 
d="M652 307q-13 -73 -40 -132t-70 -100.5t-102 -64t-136 -22.5q-57 0 -101.5 11t-75.5 36.5t-47.5 66.5t-16.5 100q0 26 2.5 53.5t7.5 53.5l63 359q4 24 30 24h76q14 0 19.5 -6.5t1.5 -26.5l-59 -338q-4 -22 -7 -46.5t-3 -47.5q0 -69 32 -99.5t102 -30.5q51 0 85.5 18.5
t57 49t35 71t20.5 84.5l62 348q4 24 29 24h80q18 0 19 -11.5t-1 -20.5zM611 823q0 -10 -10 -17q-26 -17 -55 -29t-58 -12q-15 0 -28 6.5t-25.5 14t-25.5 14t-26 6.5q-14 0 -31 -8t-33 -16q-5 -2 -9 -4t-8 -2q-7 0 -10 10l-10 35q-2 8 -2 10q0 6 4.5 9.5t12.5 8.5
q22 13 48 22.5t49 9.5q15 0 30 -6.5t28.5 -14t26 -14t23.5 -6.5q14 0 30 7.5t36 18.5q8 5 16 5t12 -9l13 -29q2 -3 2 -10z" />
    <glyph glyph-name="Udieresis" unicode="&#xdc;" horiz-adv-x="735" 
d="M652 307q-13 -73 -40 -132t-70 -100.5t-102 -64t-136 -22.5q-57 0 -101.5 11t-75.5 36.5t-47.5 66.5t-16.5 100q0 26 2.5 53.5t7.5 53.5l63 359q4 24 30 24h76q14 0 19.5 -6.5t1.5 -26.5l-59 -338q-4 -22 -7 -46.5t-3 -47.5q0 -69 32 -99.5t102 -30.5q51 0 85.5 18.5
t57 49t35 71t20.5 84.5l62 348q4 24 29 24h80q18 0 19 -11.5t-1 -20.5zM601 841q0 -27 -21 -46.5t-47 -19.5q-20 0 -35.5 11.5t-15.5 33.5q0 28 22 46.5t49 18.5q20 0 34 -11.5t14 -32.5zM418 840q0 -27 -21.5 -46t-47.5 -19q-20 0 -35 11.5t-15 32.5q0 29 21.5 47.5
t48.5 18.5q20 0 34.5 -12t14.5 -33z" />
    <glyph glyph-name="Umacron" unicode="&#x16a;" horiz-adv-x="735" 
d="M652 307q-13 -73 -40 -132t-70 -100.5t-102 -64t-136 -22.5q-57 0 -101.5 11t-75.5 36.5t-47.5 66.5t-16.5 100q0 26 2.5 53.5t7.5 53.5l63 359q4 24 30 24h76q14 0 19.5 -6.5t1.5 -26.5l-59 -338q-4 -22 -7 -46.5t-3 -47.5q0 -69 32 -99.5t102 -30.5q51 0 85.5 18.5
t57 49t35 71t20.5 84.5l62 348q4 24 29 24h80q18 0 19 -11.5t-1 -20.5zM586 827q-2 -14 -9.5 -21t-24.5 -7h-226q-15 0 -19 7.5t-2 20.5l4 23q2 13 8 19t22 6h226q17 0 22 -5.5t3 -19.5z" />
    <glyph glyph-name="Ubreve" unicode="&#x16c;" horiz-adv-x="735" 
d="M652 307q-13 -73 -40 -132t-70 -100.5t-102 -64t-136 -22.5q-57 0 -101.5 11t-75.5 36.5t-47.5 66.5t-16.5 100q0 26 2.5 53.5t7.5 53.5l63 359q4 24 30 24h76q14 0 19.5 -6.5t1.5 -26.5l-59 -338q-4 -22 -7 -46.5t-3 -47.5q0 -69 32 -99.5t102 -30.5q51 0 85.5 18.5
t57 49t35 71t20.5 84.5l62 348q4 24 29 24h80q18 0 19 -11.5t-1 -20.5zM591 885q0 -4 -4 -14q-18 -48 -60 -74.5t-92 -26.5q-46 0 -77.5 26t-33.5 74v4q0 11 4 16t19 5h28q14 0 17 -4t7 -14q5 -15 16.5 -25.5t34.5 -10.5q17 0 34.5 10.5t28.5 27.5q6 9 11.5 12.5t16.5 3.5
h33q17 0 17 -10z" />
    <glyph glyph-name="Uring" unicode="&#x16e;" horiz-adv-x="735" 
d="M652 307q-13 -73 -40 -132t-70 -100.5t-102 -64t-136 -22.5q-57 0 -101.5 11t-75.5 36.5t-47.5 66.5t-16.5 100q0 26 2.5 53.5t7.5 53.5l63 359q4 24 30 24h76q14 0 19.5 -6.5t1.5 -26.5l-59 -338q-4 -22 -7 -46.5t-3 -47.5q0 -69 32 -99.5t102 -30.5q51 0 85.5 18.5
t57 49t35 71t20.5 84.5l62 348q4 24 29 24h80q18 0 19 -11.5t-1 -20.5zM528 839q0 -19 -8 -36t-21 -30t-30.5 -20.5t-35.5 -7.5q-29 0 -48.5 19t-19.5 48q0 18 8 35t21.5 30t31 20.5t35.5 7.5q29 0 48 -18.5t19 -47.5zM474 830q0 22 -22 22q-13 0 -23 -9t-10 -23
q0 -10 6.5 -16t16.5 -6q13 0 22.5 9.5t9.5 22.5z" />
    <glyph glyph-name="Uhungarumlaut" unicode="&#x170;" horiz-adv-x="735" 
d="M652 307q-13 -73 -40 -132t-70 -100.5t-102 -64t-136 -22.5q-57 0 -101.5 11t-75.5 36.5t-47.5 66.5t-16.5 100q0 26 2.5 53.5t7.5 53.5l63 359q4 24 30 24h76q14 0 19.5 -6.5t1.5 -26.5l-59 -338q-4 -22 -7 -46.5t-3 -47.5q0 -69 32 -99.5t102 -30.5q51 0 85.5 18.5
t57 49t35 71t20.5 84.5l62 348q4 24 29 24h80q18 0 19 -11.5t-1 -20.5zM716 847q0 -11 -14 -17l-155 -75q-5 -2 -9.5 -4t-8.5 -2q-10 0 -15 11l-9 18q-3 6 -3 10q0 8 15 18l144 91q14 9 19 9q8 0 15 -13l18 -35q3 -6 3 -11zM497 845q0 -8 -15 -15l-154 -75q-5 -2 -9.5 -4
t-8.5 -2q-10 0 -15 11l-9 18q-3 6 -3 10q0 8 15 18l143 91q6 4 10.5 6.5t9.5 2.5q8 0 15 -13l17 -35q4 -7 4 -13z" />
    <glyph glyph-name="Uogonek" unicode="&#x172;" horiz-adv-x="735" 
d="M370 -178q-2 -11 -16 -15q-17 -6 -40 -10.5t-43 -4.5q-45 0 -72 17.5t-27 49.5q0 26 13.5 49t32.5 40q12 11 28 21.5t33 19.5q-51 2 -91 14.5t-68 38t-42.5 65t-14.5 95.5q0 26 2.5 53.5t7.5 53.5l63 359q4 24 30 24h76q14 0 19.5 -6.5t1.5 -26.5l-59 -338
q-4 -22 -7 -46.5t-3 -47.5q0 -69 32 -99.5t102 -30.5q51 0 85.5 18.5t57 49t35 71t20.5 84.5l62 348q4 24 29 24h80q18 0 19 -11.5t-1 -20.5l-63 -353q-12 -67 -35.5 -122t-60 -95.5t-86.5 -66t-115 -32.5q-14 -10 -31 -22.5t-31.5 -27t-24 -31t-9.5 -32.5t11.5 -22.5
t29.5 -6.5q10 0 26.5 2.5t28.5 6.5q1 0 2 0.5t2 0.5q7 0 8 -7l3 -24v-6z" />
    <glyph glyph-name="Wgrave" unicode="&#x1e80;" horiz-adv-x="955" 
d="M686 27q-12 -27 -38 -27h-66q-24 0 -27 26l-50 458h-2l-210 -455q-8 -17 -16.5 -23t-22.5 -6h-64q-13 0 -19.5 5.5t-8.5 24.5l-79 633q-2 12 2.5 20.5t18.5 8.5h96q16 0 22.5 -6.5t7.5 -18.5l40 -461h1l209 464q10 22 34 22h67q22 0 24 -21l45 -465h2l203 463
q6 14 15 18.5t20 4.5h86q12 0 13 -8.5t-3 -16.5zM633 758q-6 -8 -13 -8t-18 6l-128 77q-11 6 -9.5 14t8.5 16l30 35q10 11 16.5 11t17.5 -9l111 -91q10 -8 10 -13.5t-8 -15.5z" />
    <glyph glyph-name="Wacute" unicode="&#x1e82;" horiz-adv-x="955" 
d="M686 27q-12 -27 -38 -27h-66q-24 0 -27 26l-50 458h-2l-210 -455q-8 -17 -16.5 -23t-22.5 -6h-64q-13 0 -19.5 5.5t-8.5 24.5l-79 633q-2 12 2.5 20.5t18.5 8.5h96q16 0 22.5 -6.5t7.5 -18.5l40 -461h1l209 464q10 22 34 22h67q22 0 24 -21l45 -465h2l203 463
q6 14 15 18.5t20 4.5h86q12 0 13 -8.5t-3 -16.5zM639 846q0 -8 -9 -13l-128 -77q-11 -6 -17 -6q-9 0 -14 8l-17 22q-8 10 -8 15t10 14l111 91q10 9 17 9q8 0 17 -11l30 -35q8 -10 8 -17z" />
    <glyph glyph-name="Wcircumflex" unicode="&#x174;" horiz-adv-x="955" 
d="M686 27q-12 -27 -38 -27h-66q-24 0 -27 26l-50 458h-2l-210 -455q-8 -17 -16.5 -23t-22.5 -6h-64q-13 0 -19.5 5.5t-8.5 24.5l-79 633q-2 12 2.5 20.5t18.5 8.5h96q16 0 22.5 -6.5t7.5 -18.5l40 -461h1l209 464q10 22 34 22h67q22 0 24 -21l45 -465h2l203 463
q6 14 15 18.5t20 4.5h86q12 0 13 -8.5t-3 -16.5zM699 791q0 -9 -10 -17l-23 -18q-8 -6 -14 -6q-7 0 -14 7l-80 73l-96 -71q-11 -8 -19 -8q-7 0 -15 8l-17 18q-5 5 -5 9q0 5 3.5 9t8.5 8l114 91q8 6 14 8.5t17 2.5h19q8 0 14 -1.5t11 -7.5l87 -94q5 -7 5 -11z" />
    <glyph glyph-name="Wdieresis" unicode="&#x1e84;" horiz-adv-x="955" 
d="M686 27q-12 -27 -38 -27h-66q-24 0 -27 26l-50 458h-2l-210 -455q-8 -17 -16.5 -23t-22.5 -6h-64q-13 0 -19.5 5.5t-8.5 24.5l-79 633q-2 12 2.5 20.5t18.5 8.5h96q16 0 22.5 -6.5t7.5 -18.5l40 -461h1l209 464q10 22 34 22h67q22 0 24 -21l45 -465h2l203 463
q6 14 15 18.5t20 4.5h86q12 0 13 -8.5t-3 -16.5zM716 840q0 -27 -21 -46.5t-47 -19.5q-20 0 -35.5 11.5t-15.5 33.5q0 28 22 46.5t49 18.5q20 0 34 -11.5t14 -32.5zM533 839q0 -27 -21.5 -46t-47.5 -19q-20 0 -35 11.5t-15 32.5q0 29 21.5 47.5t48.5 18.5q20 0 34.5 -12
t14.5 -33z" />
    <glyph glyph-name="Ygrave" unicode="&#x1ef2;" horiz-adv-x="607" 
d="M363 286l-46 -263q-5 -23 -27 -23h-84q-23 0 -19 25l46 256l-149 387q-4 10 2 17t17 7h91q28 0 34 -19l94 -283h2l191 281q8 12 16.5 16.5t22.5 4.5h72q16 0 17.5 -7.5t-6.5 -17.5zM464 761q-6 -8 -13 -8t-18 6l-128 77q-11 6 -9.5 14t8.5 16l30 35q10 11 16.5 11
t17.5 -9l111 -91q10 -8 10 -13.5t-8 -15.5z" />
    <glyph glyph-name="Yacute" unicode="&#xdd;" horiz-adv-x="607" 
d="M363 286l-46 -263q-5 -23 -27 -23h-84q-23 0 -19 25l46 256l-149 387q-4 10 2 17t17 7h91q28 0 34 -19l94 -283h2l191 281q8 12 16.5 16.5t22.5 4.5h72q16 0 17.5 -7.5t-6.5 -17.5zM497 845q0 -8 -9 -13l-128 -77q-11 -6 -17 -6q-9 0 -14 8l-17 22q-8 10 -8 15t10 14
l111 91q10 9 17 9q8 0 17 -11l30 -35q8 -10 8 -17z" />
    <glyph glyph-name="Ycircumflex" unicode="&#x176;" horiz-adv-x="607" 
d="M363 286l-46 -263q-5 -23 -27 -23h-84q-23 0 -19 25l46 256l-149 387q-4 10 2 17t17 7h91q28 0 34 -19l94 -283h2l191 281q8 12 16.5 16.5t22.5 4.5h72q16 0 17.5 -7.5t-6.5 -17.5zM536 791q0 -9 -10 -17l-23 -18q-8 -6 -14 -6q-7 0 -14 7l-80 73l-96 -71q-11 -8 -19 -8
q-7 0 -15 8l-17 18q-5 5 -5 9q0 5 3.5 9t8.5 8l114 91q8 6 14 8.5t17 2.5h19q8 0 14 -1.5t11 -7.5l87 -94q5 -7 5 -11z" />
    <glyph glyph-name="Ydieresis" unicode="&#x178;" horiz-adv-x="607" 
d="M363 286l-46 -263q-5 -23 -27 -23h-84q-23 0 -19 25l46 256l-149 387q-4 10 2 17t17 7h91q28 0 34 -19l94 -283h2l191 281q8 12 16.5 16.5t22.5 4.5h72q16 0 17.5 -7.5t-6.5 -17.5zM536 841q0 -27 -21 -46.5t-47 -19.5q-20 0 -35.5 11.5t-15.5 33.5q0 28 22 46.5t49 18.5
q20 0 34 -11.5t14 -32.5zM353 840q0 -27 -21.5 -46t-47.5 -19q-20 0 -35 11.5t-15 32.5q0 29 21.5 47.5t48.5 18.5q20 0 34.5 -12t14.5 -33z" />
    <glyph glyph-name="Zacute" unicode="&#x179;" horiz-adv-x="600" 
d="M603 644q-2 -11 -6.5 -20.5t-13.5 -20.5l-417 -497v-2h332q23 0 19 -23l-10 -57q-5 -24 -26 -24h-487q-10 0 -13.5 6t-1.5 15l5 31q3 16 16 32l419 502v2h-292q-25 0 -21 23l10 61q3 20 24 20h448q14 0 17.5 -6t1.5 -16zM493 845q0 -8 -9 -13l-128 -77q-11 -6 -17 -6
q-9 0 -14 8l-17 22q-8 10 -8 15t10 14l111 91q10 9 17 9q8 0 17 -11l30 -35q8 -10 8 -17z" />
    <glyph glyph-name="Zcaron" unicode="&#x17d;" horiz-adv-x="600" 
d="M603 644q-2 -11 -6.5 -20.5t-13.5 -20.5l-417 -497v-2h332q23 0 19 -23l-10 -57q-5 -24 -26 -24h-487q-10 0 -13.5 6t-1.5 15l5 31q3 16 16 32l419 502v2h-292q-25 0 -21 23l10 61q3 20 24 20h448q14 0 17.5 -6t1.5 -16zM527 871q0 -7 -11 -16l-112 -92q-8 -6 -14.5 -9
t-17.5 -3h-18q-8 0 -14 1.5t-11 7.5l-84 96q-6 7 -6 12q0 7 11 15l23 18q5 5 13 5q6 0 14 -6l76 -65l99 62q11 8 19 8q7 0 14 -8l14 -16q5 -7 5 -10z" />
    <glyph glyph-name="Zdotaccent" unicode="&#x17b;" horiz-adv-x="600" 
d="M603 644q-2 -11 -6.5 -20.5t-13.5 -20.5l-417 -497v-2h332q23 0 19 -23l-10 -57q-5 -24 -26 -24h-487q-10 0 -13.5 6t-1.5 15l5 31q3 16 16 32l419 502v2h-292q-25 0 -21 23l10 61q3 20 24 20h448q14 0 17.5 -6t1.5 -16zM439 837q0 -15 -6 -28.5t-16.5 -23t-24 -15.5
t-28.5 -6q-22 0 -38.5 13t-16.5 36q0 15 6.5 28.5t17.5 23t24.5 15t28.5 5.5q22 0 37.5 -12.5t15.5 -35.5z" />
    <glyph glyph-name="agrave" unicode="&#xe0;" horiz-adv-x="583" 
d="M559 96l-8 -49q-3 -20 -22 -30q-9 -5 -35.5 -15.5t-62.5 -10.5q-39 0 -54.5 21t-16.5 47h-2q-29 -33 -69.5 -52t-82.5 -19q-45 0 -77.5 16t-54 43t-31.5 61.5t-10 72.5q0 66 25.5 129.5t72.5 111.5q35 35 85 55.5t104 20.5q49 0 96.5 -11t98.5 -34q10 -5 14 -10.5
t2 -16.5l-52 -292q-3 -15 -3 -27q0 -19 16 -19q13 0 27.5 5.5t25.5 11.5q4 2 6 2q8 0 8 -9v-2zM402 383q-13 5 -31.5 10.5t-47.5 5.5t-56 -12t-44 -31q-32 -33 -47.5 -80t-15.5 -88q0 -43 20.5 -72t63.5 -29q18 0 36 6.5t33.5 16t27.5 21.5t20 24zM415 557q-6 -8 -13 -8
t-18 6l-128 77q-11 6 -9.5 14t8.5 16l30 35q10 11 16.5 11t17.5 -9l111 -91q10 -8 10 -13.5t-8 -15.5z" />
    <glyph glyph-name="aacute" unicode="&#xe1;" horiz-adv-x="583" 
d="M559 96l-8 -49q-3 -20 -22 -30q-9 -5 -35.5 -15.5t-62.5 -10.5q-39 0 -54.5 21t-16.5 47h-2q-29 -33 -69.5 -52t-82.5 -19q-45 0 -77.5 16t-54 43t-31.5 61.5t-10 72.5q0 66 25.5 129.5t72.5 111.5q35 35 85 55.5t104 20.5q49 0 96.5 -11t98.5 -34q10 -5 14 -10.5
t2 -16.5l-52 -292q-3 -15 -3 -27q0 -19 16 -19q13 0 27.5 5.5t25.5 11.5q4 2 6 2q8 0 8 -9v-2zM402 383q-13 5 -31.5 10.5t-47.5 5.5t-56 -12t-44 -31q-32 -33 -47.5 -80t-15.5 -88q0 -43 20.5 -72t63.5 -29q18 0 36 6.5t33.5 16t27.5 21.5t20 24zM461 645q0 -8 -9 -13
l-128 -77q-11 -6 -17 -6q-9 0 -14 8l-17 22q-8 10 -8 15t10 14l111 91q10 9 17 9q8 0 17 -11l30 -35q8 -10 8 -17z" />
    <glyph glyph-name="acircumflex" unicode="&#xe2;" horiz-adv-x="583" 
d="M559 96l-8 -49q-3 -20 -22 -30q-9 -5 -35.5 -15.5t-62.5 -10.5q-39 0 -54.5 21t-16.5 47h-2q-29 -33 -69.5 -52t-82.5 -19q-45 0 -77.5 16t-54 43t-31.5 61.5t-10 72.5q0 66 25.5 129.5t72.5 111.5q35 35 85 55.5t104 20.5q49 0 96.5 -11t98.5 -34q10 -5 14 -10.5
t2 -16.5l-52 -292q-3 -15 -3 -27q0 -19 16 -19q13 0 27.5 5.5t25.5 11.5q4 2 6 2q8 0 8 -9v-2zM402 383q-13 5 -31.5 10.5t-47.5 5.5t-56 -12t-44 -31q-32 -33 -47.5 -80t-15.5 -88q0 -43 20.5 -72t63.5 -29q18 0 36 6.5t33.5 16t27.5 21.5t20 24zM493 591q0 -9 -10 -17
l-23 -18q-8 -6 -14 -6q-7 0 -14 7l-80 73l-96 -71q-11 -8 -19 -8q-7 0 -15 8l-17 18q-5 5 -5 9q0 5 3.5 9t8.5 8l114 91q8 6 14 8.5t17 2.5h19q8 0 14 -1.5t11 -7.5l87 -94q5 -7 5 -11z" />
    <glyph glyph-name="atilde" unicode="&#xe3;" horiz-adv-x="583" 
d="M559 96l-8 -49q-3 -20 -22 -30q-9 -5 -35.5 -15.5t-62.5 -10.5q-39 0 -54.5 21t-16.5 47h-2q-29 -33 -69.5 -52t-82.5 -19q-45 0 -77.5 16t-54 43t-31.5 61.5t-10 72.5q0 66 25.5 129.5t72.5 111.5q35 35 85 55.5t104 20.5q49 0 96.5 -11t98.5 -34q10 -5 14 -10.5
t2 -16.5l-52 -292q-3 -15 -3 -27q0 -19 16 -19q13 0 27.5 5.5t25.5 11.5q4 2 6 2q8 0 8 -9v-2zM402 383q-13 5 -31.5 10.5t-47.5 5.5t-56 -12t-44 -31q-32 -33 -47.5 -80t-15.5 -88q0 -43 20.5 -72t63.5 -29q18 0 36 6.5t33.5 16t27.5 21.5t20 24zM528 623q0 -10 -10 -17
q-26 -17 -55 -29t-58 -12q-15 0 -28 6.5t-25.5 14t-25.5 14t-26 6.5q-14 0 -31 -8t-33 -16q-5 -2 -9 -4t-8 -2q-7 0 -10 10l-10 35q-2 8 -2 10q0 6 4.5 9.5t12.5 8.5q22 13 48 22.5t49 9.5q15 0 30 -6.5t28.5 -14t26 -14t23.5 -6.5q14 0 30 7.5t36 18.5q8 5 16 5t12 -9
l13 -29q2 -3 2 -10z" />
    <glyph glyph-name="adieresis" unicode="&#xe4;" horiz-adv-x="583" 
d="M559 96l-8 -49q-3 -20 -22 -30q-9 -5 -35.5 -15.5t-62.5 -10.5q-39 0 -54.5 21t-16.5 47h-2q-29 -33 -69.5 -52t-82.5 -19q-45 0 -77.5 16t-54 43t-31.5 61.5t-10 72.5q0 66 25.5 129.5t72.5 111.5q35 35 85 55.5t104 20.5q49 0 96.5 -11t98.5 -34q10 -5 14 -10.5
t2 -16.5l-52 -292q-3 -15 -3 -27q0 -19 16 -19q13 0 27.5 5.5t25.5 11.5q4 2 6 2q8 0 8 -9v-2zM402 383q-13 5 -31.5 10.5t-47.5 5.5t-56 -12t-44 -31q-32 -33 -47.5 -80t-15.5 -88q0 -43 20.5 -72t63.5 -29q18 0 36 6.5t33.5 16t27.5 21.5t20 24zM506 641q0 -27 -21 -46.5
t-47 -19.5q-20 0 -35.5 11.5t-15.5 33.5q0 28 22 46.5t49 18.5q20 0 34 -11.5t14 -32.5zM323 640q0 -27 -21.5 -46t-47.5 -19q-20 0 -35 11.5t-15 32.5q0 29 21.5 47.5t48.5 18.5q20 0 34.5 -12t14.5 -33z" />
    <glyph glyph-name="amacron" unicode="&#x101;" horiz-adv-x="583" 
d="M559 96l-8 -49q-3 -20 -22 -30q-9 -5 -35.5 -15.5t-62.5 -10.5q-39 0 -54.5 21t-16.5 47h-2q-29 -33 -69.5 -52t-82.5 -19q-45 0 -77.5 16t-54 43t-31.5 61.5t-10 72.5q0 66 25.5 129.5t72.5 111.5q35 35 85 55.5t104 20.5q49 0 96.5 -11t98.5 -34q10 -5 14 -10.5
t2 -16.5l-52 -292q-3 -15 -3 -27q0 -19 16 -19q13 0 27.5 5.5t25.5 11.5q4 2 6 2q8 0 8 -9v-2zM402 383q-13 5 -31.5 10.5t-47.5 5.5t-56 -12t-44 -31q-32 -33 -47.5 -80t-15.5 -88q0 -43 20.5 -72t63.5 -29q18 0 36 6.5t33.5 16t27.5 21.5t20 24zM490 627q-2 -14 -9.5 -21
t-24.5 -7h-226q-15 0 -19 7.5t-2 20.5l4 23q2 13 8 19t22 6h226q17 0 22 -5.5t3 -19.5z" />
    <glyph glyph-name="abreve" unicode="&#x103;" horiz-adv-x="583" 
d="M559 96l-8 -49q-3 -20 -22 -30q-9 -5 -35.5 -15.5t-62.5 -10.5q-39 0 -54.5 21t-16.5 47h-2q-29 -33 -69.5 -52t-82.5 -19q-45 0 -77.5 16t-54 43t-31.5 61.5t-10 72.5q0 66 25.5 129.5t72.5 111.5q35 35 85 55.5t104 20.5q49 0 96.5 -11t98.5 -34q10 -5 14 -10.5
t2 -16.5l-52 -292q-3 -15 -3 -27q0 -19 16 -19q13 0 27.5 5.5t25.5 11.5q4 2 6 2q8 0 8 -9v-2zM402 383q-13 5 -31.5 10.5t-47.5 5.5t-56 -12t-44 -31q-32 -33 -47.5 -80t-15.5 -88q0 -43 20.5 -72t63.5 -29q18 0 36 6.5t33.5 16t27.5 21.5t20 24zM490 685q0 -4 -4 -14
q-18 -48 -60 -74.5t-92 -26.5q-46 0 -77.5 26t-33.5 74v4q0 11 4 16t19 5h28q14 0 17 -4t7 -14q5 -15 16.5 -25.5t34.5 -10.5q17 0 34.5 10.5t28.5 27.5q6 9 11.5 12.5t16.5 3.5h33q17 0 17 -10z" />
    <glyph glyph-name="acaron" unicode="&#x1ce;" horiz-adv-x="583" 
d="M559 96l-8 -49q-3 -20 -22 -30q-9 -5 -35.5 -15.5t-62.5 -10.5q-39 0 -54.5 21t-16.5 47h-2q-29 -33 -69.5 -52t-82.5 -19q-45 0 -77.5 16t-54 43t-31.5 61.5t-10 72.5q0 66 25.5 129.5t72.5 111.5q35 35 85 55.5t104 20.5q49 0 96.5 -11t98.5 -34q10 -5 14 -10.5
t2 -16.5l-52 -292q-3 -15 -3 -27q0 -19 16 -19q13 0 27.5 5.5t25.5 11.5q4 2 6 2q8 0 8 -9v-2zM402 383q-13 5 -31.5 10.5t-47.5 5.5t-56 -12t-44 -31q-32 -33 -47.5 -80t-15.5 -88q0 -43 20.5 -72t63.5 -29q18 0 36 6.5t33.5 16t27.5 21.5t20 24zM516 671q0 -7 -11 -16
l-112 -92q-8 -6 -14.5 -9t-17.5 -3h-18q-8 0 -14 1.5t-11 7.5l-84 96q-6 7 -6 12q0 7 11 15l23 18q5 5 13 5q6 0 14 -6l76 -65l99 62q11 8 19 8q7 0 14 -8l14 -16q5 -7 5 -10z" />
    <glyph glyph-name="aring" unicode="&#xe5;" horiz-adv-x="583" 
d="M559 96l-8 -49q-3 -20 -22 -30q-9 -5 -35.5 -15.5t-62.5 -10.5q-39 0 -54.5 21t-16.5 47h-2q-29 -33 -69.5 -52t-82.5 -19q-45 0 -77.5 16t-54 43t-31.5 61.5t-10 72.5q0 66 25.5 129.5t72.5 111.5q35 35 85 55.5t104 20.5q49 0 96.5 -11t98.5 -34q10 -5 14 -10.5
t2 -16.5l-52 -292q-3 -15 -3 -27q0 -19 16 -19q13 0 27.5 5.5t25.5 11.5q4 2 6 2q8 0 8 -9v-2zM402 383q-13 5 -31.5 10.5t-47.5 5.5t-56 -12t-44 -31q-32 -33 -47.5 -80t-15.5 -88q0 -43 20.5 -72t63.5 -29q18 0 36 6.5t33.5 16t27.5 21.5t20 24zM444 639q0 -19 -8 -36
t-21 -30t-30.5 -20.5t-35.5 -7.5q-29 0 -48.5 19t-19.5 48q0 18 8 35t21.5 30t31 20.5t35.5 7.5q29 0 48 -18.5t19 -47.5zM390 630q0 22 -22 22q-13 0 -23 -9t-10 -23q0 -10 6.5 -16t16.5 -6q13 0 22.5 9.5t9.5 22.5z" />
    <glyph glyph-name="aringacute" unicode="&#x1fb;" horiz-adv-x="583" 
d="M559 96l-8 -49q-3 -20 -22 -30q-9 -5 -35.5 -15.5t-62.5 -10.5q-39 0 -54.5 21t-16.5 47h-2q-29 -33 -69.5 -52t-82.5 -19q-45 0 -77.5 16t-54 43t-31.5 61.5t-10 72.5q0 66 25.5 129.5t72.5 111.5q35 35 85 55.5t104 20.5q49 0 96.5 -11t98.5 -34q10 -5 14 -10.5
t2 -16.5l-52 -292q-3 -15 -3 -27q0 -19 16 -19q13 0 27.5 5.5t25.5 11.5q4 2 6 2q8 0 8 -9v-2zM402 383q-13 5 -31.5 10.5t-47.5 5.5t-56 -12t-44 -31q-32 -33 -47.5 -80t-15.5 -88q0 -43 20.5 -72t63.5 -29q18 0 36 6.5t33.5 16t27.5 21.5t20 24zM437 619q0 -19 -8 -36
t-21 -30t-30.5 -20.5t-35.5 -7.5q-29 0 -48.5 19t-19.5 48q0 18 8 35t21.5 30t31 20.5t35.5 7.5q29 0 48 -18.5t19 -47.5zM460 795q0 -8 -9 -13l-128 -77q-11 -6 -17 -6q-9 0 -14 8l-17 22q-8 10 -8 15t10 14l111 91q10 9 17 9q8 0 17 -11l30 -35q8 -10 8 -17zM383 610
q0 22 -22 22q-13 0 -23 -9t-10 -23q0 -10 6.5 -16t16.5 -6q13 0 22.5 9.5t9.5 22.5z" />
    <glyph glyph-name="aogonek" unicode="&#x105;" horiz-adv-x="583" 
d="M559 96l-8 -49q-3 -20 -22 -30l-39 -20q-14 -7 -33 -19.5t-36.5 -28t-29.5 -34t-12 -37.5q0 -16 11.5 -22.5t29.5 -6.5q10 0 26.5 2.5t28.5 6.5q1 0 2 0.5t2 0.5q7 0 8 -7l3 -24v-6q-2 -11 -16 -15q-17 -6 -40 -10.5t-43 -4.5q-45 0 -72 17.5t-27 49.5q0 26 13.5 49
t32.5 40q14 13 32 24t38 22v2q-25 7 -36 24.5t-12 38.5h-2q-29 -33 -69.5 -52t-82.5 -19q-45 0 -77.5 16t-54 43t-31.5 61.5t-10 72.5q0 66 25.5 129.5t72.5 111.5q35 35 85 55.5t104 20.5q49 0 96.5 -11t98.5 -34q10 -5 14 -10.5t2 -16.5l-52 -292q-3 -15 -3 -27
q0 -19 16 -19q13 0 27.5 5.5t25.5 11.5q4 2 6 2q8 0 8 -9v-2zM402 383q-13 5 -31.5 10.5t-47.5 5.5t-56 -12t-44 -31q-32 -33 -47.5 -80t-15.5 -88q0 -43 20.5 -72t63.5 -29q18 0 36 6.5t33.5 16t27.5 21.5t20 24z" />
    <glyph glyph-name="ae" unicode="&#xe6;" horiz-adv-x="796" 
d="M767 319q0 -6 -0.5 -16t-1 -21t-2 -21.5t-2.5 -16.5q-4 -17 -11 -22.5t-26 -5.5h-294q-2 -47 19 -77t65 -40q19 -4 42 -4q32 0 67 5t56 11q7 2 14.5 0t8.5 -10l4 -51q1 -14 -2 -21.5t-17 -12.5q-39 -17 -87.5 -22.5t-87.5 -5.5q-54 0 -96 17t-67 52q-41 -30 -92 -49.5
t-113 -19.5q-28 0 -52 7.5t-42 22t-28 35.5t-10 48q0 54 26.5 93.5t72.5 65.5q45 26 96 36t100 10h24l4 24q1 5 1.5 11t0.5 11q-1 9 -2.5 17t-5.5 13q-19 25 -62 25q-29 0 -63 -7t-76 -27q-7 -3 -13.5 -2.5t-8.5 10.5l-7 47q-2 12 3 17t17 11q48 23 94.5 32.5t82.5 9.5
q47 0 82.5 -15.5t49.5 -50.5h2q30 30 75 48t96 18q42 0 73.5 -13.5t52 -37.5t30.5 -56.5t10 -71.5zM317 125q-3 11 -4 25t-1 28q0 12 1.5 23.5t3.5 23.5q-5 0 -15 -1t-21 -2t-22 -3t-19 -3q-16 -3 -34 -9.5t-33 -16.5t-25 -25t-10 -34q0 -23 16 -36t42 -13q15 0 32 4
t34 10.5t31.5 14t23.5 14.5zM654 326q0 32 -17.5 55.5t-58.5 23.5q-24 0 -45.5 -9t-38.5 -24.5t-29 -35.5t-19 -42h205q2 8 3 16t0 16z" />
    <glyph glyph-name="aeacute" unicode="&#x1fd;" horiz-adv-x="796" 
d="M767 319q0 -6 -0.5 -16t-1 -21t-2 -21.5t-2.5 -16.5q-4 -17 -11 -22.5t-26 -5.5h-294q-2 -47 19 -77t65 -40q19 -4 42 -4q32 0 67 5t56 11q7 2 14.5 0t8.5 -10l4 -51q1 -14 -2 -21.5t-17 -12.5q-39 -17 -87.5 -22.5t-87.5 -5.5q-54 0 -96 17t-67 52q-41 -30 -92 -49.5
t-113 -19.5q-28 0 -52 7.5t-42 22t-28 35.5t-10 48q0 54 26.5 93.5t72.5 65.5q45 26 96 36t100 10h24l4 24q1 5 1.5 11t0.5 11q-1 9 -2.5 17t-5.5 13q-19 25 -62 25q-29 0 -63 -7t-76 -27q-7 -3 -13.5 -2.5t-8.5 10.5l-7 47q-2 12 3 17t17 11q48 23 94.5 32.5t82.5 9.5
q47 0 82.5 -15.5t49.5 -50.5h2q30 30 75 48t96 18q42 0 73.5 -13.5t52 -37.5t30.5 -56.5t10 -71.5zM317 125q-3 11 -4 25t-1 28q0 12 1.5 23.5t3.5 23.5q-5 0 -15 -1t-21 -2t-22 -3t-19 -3q-16 -3 -34 -9.5t-33 -16.5t-25 -25t-10 -34q0 -23 16 -36t42 -13q15 0 32 4
t34 10.5t31.5 14t23.5 14.5zM654 326q0 32 -17.5 55.5t-58.5 23.5q-24 0 -45.5 -9t-38.5 -24.5t-29 -35.5t-19 -42h205q2 8 3 16t0 16zM615 645q0 -8 -9 -13l-128 -77q-11 -6 -17 -6q-9 0 -14 8l-17 22q-8 10 -8 15t10 14l111 91q10 9 17 9q8 0 17 -11l30 -35q8 -10 8 -17z
" />
    <glyph glyph-name="cacute" unicode="&#x107;" horiz-adv-x="465" 
d="M475 458q0 -3 -1 -6t-3 -7l-23 -54q-6 -14 -13 -14q-2 0 -12 4q-23 11 -42 16.5t-41 5.5q-41 0 -74 -17.5t-56 -46.5t-35 -65.5t-12 -75.5q0 -52 25 -84t79 -32q32 0 55.5 5.5t52.5 16.5q6 2 10 2q10 0 11 -11l9 -47q0 -2 0.5 -3.5t0.5 -3.5q0 -8 -5 -12.5t-17 -9.5
q-74 -31 -150 -31q-98 0 -148 52t-50 140q0 64 21.5 122t61 101.5t95 69t122.5 25.5q34 0 67 -7t62 -21q10 -6 10 -12zM428 645q0 -8 -9 -13l-128 -77q-11 -6 -17 -6q-9 0 -14 8l-17 22q-8 10 -8 15t10 14l111 91q10 9 17 9q8 0 17 -11l30 -35q8 -10 8 -17z" />
    <glyph glyph-name="ccedilla" unicode="&#xe7;" horiz-adv-x="465" 
d="M475 458q0 -3 -1 -6t-3 -7l-23 -54q-6 -14 -13 -14q-2 0 -12 4q-23 11 -42 16.5t-41 5.5q-41 0 -74 -17.5t-56 -46.5t-35 -65.5t-12 -75.5q0 -52 25 -84t79 -32q32 0 55.5 5.5t52.5 16.5q6 2 10 2q10 0 11 -11l9 -47q0 -2 0.5 -3.5t0.5 -3.5q0 -8 -5 -12.5t-17 -9.5
q-68 -29 -140 -31l-8 -32h8q40 0 64 -15.5t24 -46.5q0 -39 -28 -66q-17 -17 -43.5 -26t-58.5 -9q-20 0 -37 4t-32 10t-9 19l11 23q5 9 9.5 9t12.5 -3q11 -4 24.5 -6.5t23.5 -2.5q25 0 38 14q9 7 9 21t-12.5 20t-35.5 6h-20q-15 0 -19 6t-2 17q1 3 1.5 7t2.5 8l14 48
q-72 14 -108.5 63t-36.5 124q0 64 21.5 122t61 101.5t95 69t122.5 25.5q34 0 67 -7t62 -21q10 -6 10 -12z" />
    <glyph glyph-name="ccircumflex" unicode="&#x109;" horiz-adv-x="465" 
d="M475 458q0 -3 -1 -6t-3 -7l-23 -54q-6 -14 -13 -14q-2 0 -12 4q-23 11 -42 16.5t-41 5.5q-41 0 -74 -17.5t-56 -46.5t-35 -65.5t-12 -75.5q0 -52 25 -84t79 -32q32 0 55.5 5.5t52.5 16.5q6 2 10 2q10 0 11 -11l9 -47q0 -2 0.5 -3.5t0.5 -3.5q0 -8 -5 -12.5t-17 -9.5
q-74 -31 -150 -31q-98 0 -148 52t-50 140q0 64 21.5 122t61 101.5t95 69t122.5 25.5q34 0 67 -7t62 -21q10 -6 10 -12zM461 591q0 -9 -10 -17l-23 -18q-8 -6 -14 -6q-7 0 -14 7l-80 73l-96 -71q-11 -8 -19 -8q-7 0 -15 8l-17 18q-5 5 -5 9q0 5 3.5 9t8.5 8l114 91
q8 6 14 8.5t17 2.5h19q8 0 14 -1.5t11 -7.5l87 -94q5 -7 5 -11z" />
    <glyph glyph-name="ccaron" unicode="&#x10d;" horiz-adv-x="465" 
d="M475 458q0 -3 -1 -6t-3 -7l-23 -54q-6 -14 -13 -14q-2 0 -12 4q-23 11 -42 16.5t-41 5.5q-41 0 -74 -17.5t-56 -46.5t-35 -65.5t-12 -75.5q0 -52 25 -84t79 -32q32 0 55.5 5.5t52.5 16.5q6 2 10 2q10 0 11 -11l9 -47q0 -2 0.5 -3.5t0.5 -3.5q0 -8 -5 -12.5t-17 -9.5
q-74 -31 -150 -31q-98 0 -148 52t-50 140q0 64 21.5 122t61 101.5t95 69t122.5 25.5q34 0 67 -7t62 -21q10 -6 10 -12zM478 671q0 -7 -11 -16l-112 -92q-8 -6 -14.5 -9t-17.5 -3h-18q-8 0 -14 1.5t-11 7.5l-84 96q-6 7 -6 12q0 7 11 15l23 18q5 5 13 5q6 0 14 -6l76 -65
l99 62q11 8 19 8q7 0 14 -8l14 -16q5 -7 5 -10z" />
    <glyph glyph-name="cdotaccent" unicode="&#x10b;" horiz-adv-x="465" 
d="M475 458q0 -3 -1 -6t-3 -7l-23 -54q-6 -14 -13 -14q-2 0 -12 4q-23 11 -42 16.5t-41 5.5q-41 0 -74 -17.5t-56 -46.5t-35 -65.5t-12 -75.5q0 -52 25 -84t79 -32q32 0 55.5 5.5t52.5 16.5q6 2 10 2q10 0 11 -11l9 -47q0 -2 0.5 -3.5t0.5 -3.5q0 -8 -5 -12.5t-17 -9.5
q-74 -31 -150 -31q-98 0 -148 52t-50 140q0 64 21.5 122t61 101.5t95 69t122.5 25.5q34 0 67 -7t62 -21q10 -6 10 -12zM390 637q0 -15 -6 -28.5t-16.5 -23t-24 -15.5t-28.5 -6q-22 0 -38.5 13t-16.5 36q0 15 6.5 28.5t17.5 23t24.5 15t28.5 5.5q22 0 37.5 -12.5t15.5 -35.5z
" />
    <glyph glyph-name="dcaron" unicode="&#x10f;" 
d="M569 715q11 2 13.5 -5t0.5 -15l-119 -670q-2 -13 -5.5 -19t-14.5 -6h-71q-20 0 -20 17v3l2 27q-26 -24 -66.5 -41.5t-79.5 -17.5q-47 0 -79.5 15t-53.5 41t-30.5 61t-9.5 76q0 56 19.5 112.5t55 102.5t85.5 74.5t111 28.5q34 0 64.5 -12.5t47.5 -34.5l39 225q2 12 8 18.5
t18 8.5zM401 353q-11 20 -33 34.5t-51 14.5q-25 0 -47 -10t-40 -27q-29 -29 -47.5 -78t-18.5 -106q0 -42 21.5 -68.5t66.5 -26.5q28 0 60 15.5t51 34.5zM746 658q0 -23 -9.5 -46t-25 -44t-34.5 -38t-37 -29q-9 -6 -16 -6q-5 0 -10 8l-7 10q-2 4 -1 8q0 4 7 9q10 8 19 18
t16 21q3 5 5.5 11t2.5 13t-3.5 14t-7.5 13.5t-7.5 14t-3.5 15.5q0 26 20 44t44 18q23 0 35.5 -16t12.5 -38z" />
    <glyph glyph-name="dcroat" unicode="&#x111;" 
d="M584 702q0 -2 -0.5 -3.5t-0.5 -3.5l-10 -54h24q18 0 23 -4.5t2 -17.5l-5 -28q-3 -13 -9.5 -18.5t-24.5 -5.5h-23l-96 -542q-2 -13 -5.5 -19t-14.5 -6h-71q-20 0 -20 17v3l2 27q-26 -24 -66.5 -41.5t-79.5 -17.5q-47 0 -79.5 15t-53.5 41t-30.5 61t-9.5 76
q0 56 19.5 112.5t55 102.5t85.5 74.5t111 28.5q34 0 64.5 -12.5t47.5 -34.5l20 117h-84q-16 0 -20 6t-2 18l5 27q2 11 8 16.5t23 5.5h83l6 35q2 12 8 18.5t18 8.5l76 10q2 0 4.5 0.5t4.5 0.5q15 0 15 -13zM401 353q-11 20 -33 34.5t-51 14.5q-25 0 -47 -10t-40 -27
q-29 -29 -47.5 -78t-18.5 -106q0 -42 21.5 -68.5t66.5 -26.5q28 0 60 15.5t51 34.5z" />
    <glyph glyph-name="eth" unicode="&#xf0;" horiz-adv-x="562" 
d="M509 357q0 -21 -1.5 -41.5t-5.5 -40.5q-11 -61 -35.5 -113.5t-61 -91t-86 -60.5t-109.5 -22q-52 0 -89.5 14t-62 39.5t-36 60.5t-11.5 77q0 30 6 65q9 54 33.5 100.5t62 80.5t86 53.5t107.5 19.5q10 0 16.5 -0.5t12 -1.5t11 -3t13.5 -4q-6 40 -29.5 68.5t-54.5 46.5
l-45 -68q-7 -11 -13 -11q-5 0 -12 4l-21 12q-9 6 -9 11v1q1 2 6 11l44 64q-41 14 -74 20q-12 3 -12 10v4q0 1 0.5 2t0.5 2v2l18 39q5 11 10 14t14 3q2 0 4.5 -0.5t4.5 -0.5q48 -5 90 -16l44 64q7 11 12 11q3 0 10 -4l22 -13q9 -6 9 -9v-1q0 -2 -2 -4.5t-4 -6.5l-38 -57
q46 -22 79.5 -57.5t54.5 -80t31 -94t10 -98.5zM379 296q0 45 -20 76t-71 31q-33 0 -58 -13.5t-43 -35t-29 -50t-16 -58.5q-2 -14 -3.5 -27.5t-1.5 -27.5q0 -22 4.5 -41.5t15 -34.5t28 -23.5t43.5 -8.5q33 0 58 13.5t43 36t29 51t16 59.5q2 14 3.5 27t1.5 26z" />
    <glyph glyph-name="egrave" unicode="&#xe8;" horiz-adv-x="530" 
d="M503 330q0 -8 -1 -19.5t-2 -24.5t-3 -25t-3 -20q-3 -18 -11 -22t-27 -4h-292q0 -3 -0.5 -7.5t-0.5 -9.5q0 -54 31.5 -83.5t86.5 -29.5q32 0 65 6.5t64 17.5q8 3 15 3t9 -12l5 -55q1 -11 -3.5 -15.5t-15.5 -9.5q-40 -16 -84.5 -24t-83.5 -8q-102 0 -159 51.5t-57 142.5
q0 65 21.5 122.5t60.5 100.5t93.5 68t120.5 25q81 0 126 -45t45 -123zM387 325q0 36 -15 58t-56 22q-24 0 -46 -10t-39.5 -26t-30.5 -36t-19 -39h203q3 15 3 31zM414 557q-6 -8 -13 -8t-18 6l-128 77q-11 6 -9.5 14t8.5 16l30 35q10 11 16.5 11t17.5 -9l111 -91
q10 -8 10 -13.5t-8 -15.5z" />
    <glyph glyph-name="eacute" unicode="&#xe9;" horiz-adv-x="530" 
d="M503 330q0 -8 -1 -19.5t-2 -24.5t-3 -25t-3 -20q-3 -18 -11 -22t-27 -4h-292q0 -3 -0.5 -7.5t-0.5 -9.5q0 -54 31.5 -83.5t86.5 -29.5q32 0 65 6.5t64 17.5q8 3 15 3t9 -12l5 -55q1 -11 -3.5 -15.5t-15.5 -9.5q-40 -16 -84.5 -24t-83.5 -8q-102 0 -159 51.5t-57 142.5
q0 65 21.5 122.5t60.5 100.5t93.5 68t120.5 25q81 0 126 -45t45 -123zM387 325q0 36 -15 58t-56 22q-24 0 -46 -10t-39.5 -26t-30.5 -36t-19 -39h203q3 15 3 31zM439 645q0 -8 -9 -13l-128 -77q-11 -6 -17 -6q-9 0 -14 8l-17 22q-8 10 -8 15t10 14l111 91q10 9 17 9
q8 0 17 -11l30 -35q8 -10 8 -17z" />
    <glyph glyph-name="ecircumflex" unicode="&#xea;" horiz-adv-x="530" 
d="M503 330q0 -8 -1 -19.5t-2 -24.5t-3 -25t-3 -20q-3 -18 -11 -22t-27 -4h-292q0 -3 -0.5 -7.5t-0.5 -9.5q0 -54 31.5 -83.5t86.5 -29.5q32 0 65 6.5t64 17.5q8 3 15 3t9 -12l5 -55q1 -11 -3.5 -15.5t-15.5 -9.5q-40 -16 -84.5 -24t-83.5 -8q-102 0 -159 51.5t-57 142.5
q0 65 21.5 122.5t60.5 100.5t93.5 68t120.5 25q81 0 126 -45t45 -123zM387 325q0 36 -15 58t-56 22q-24 0 -46 -10t-39.5 -26t-30.5 -36t-19 -39h203q3 15 3 31zM481 591q0 -9 -10 -17l-23 -18q-8 -6 -14 -6q-7 0 -14 7l-80 73l-96 -71q-11 -8 -19 -8q-7 0 -15 8l-17 18
q-5 5 -5 9q0 5 3.5 9t8.5 8l114 91q8 6 14 8.5t17 2.5h19q8 0 14 -1.5t11 -7.5l87 -94q5 -7 5 -11z" />
    <glyph glyph-name="ecaron" unicode="&#x11b;" horiz-adv-x="530" 
d="M503 330q0 -8 -1 -19.5t-2 -24.5t-3 -25t-3 -20q-3 -18 -11 -22t-27 -4h-292q0 -3 -0.5 -7.5t-0.5 -9.5q0 -54 31.5 -83.5t86.5 -29.5q32 0 65 6.5t64 17.5q8 3 15 3t9 -12l5 -55q1 -11 -3.5 -15.5t-15.5 -9.5q-40 -16 -84.5 -24t-83.5 -8q-102 0 -159 51.5t-57 142.5
q0 65 21.5 122.5t60.5 100.5t93.5 68t120.5 25q81 0 126 -45t45 -123zM387 325q0 36 -15 58t-56 22q-24 0 -46 -10t-39.5 -26t-30.5 -36t-19 -39h203q3 15 3 31zM477 671q0 -7 -11 -16l-112 -92q-8 -6 -14.5 -9t-17.5 -3h-18q-8 0 -14 1.5t-11 7.5l-84 96q-6 7 -6 12
q0 7 11 15l23 18q5 5 13 5q6 0 14 -6l76 -65l99 62q11 8 19 8q7 0 14 -8l14 -16q5 -7 5 -10z" />
    <glyph glyph-name="edieresis" unicode="&#xeb;" horiz-adv-x="530" 
d="M503 330q0 -8 -1 -19.5t-2 -24.5t-3 -25t-3 -20q-3 -18 -11 -22t-27 -4h-292q0 -3 -0.5 -7.5t-0.5 -9.5q0 -54 31.5 -83.5t86.5 -29.5q32 0 65 6.5t64 17.5q8 3 15 3t9 -12l5 -55q1 -11 -3.5 -15.5t-15.5 -9.5q-40 -16 -84.5 -24t-83.5 -8q-102 0 -159 51.5t-57 142.5
q0 65 21.5 122.5t60.5 100.5t93.5 68t120.5 25q81 0 126 -45t45 -123zM387 325q0 36 -15 58t-56 22q-24 0 -46 -10t-39.5 -26t-30.5 -36t-19 -39h203q3 15 3 31zM483 641q0 -27 -21 -46.5t-47 -19.5q-20 0 -35.5 11.5t-15.5 33.5q0 28 22 46.5t49 18.5q20 0 34 -11.5
t14 -32.5zM300 640q0 -27 -21.5 -46t-47.5 -19q-20 0 -35 11.5t-15 32.5q0 29 21.5 47.5t48.5 18.5q20 0 34.5 -12t14.5 -33z" />
    <glyph glyph-name="emacron" unicode="&#x113;" horiz-adv-x="530" 
d="M503 330q0 -8 -1 -19.5t-2 -24.5t-3 -25t-3 -20q-3 -18 -11 -22t-27 -4h-292q0 -3 -0.5 -7.5t-0.5 -9.5q0 -54 31.5 -83.5t86.5 -29.5q32 0 65 6.5t64 17.5q8 3 15 3t9 -12l5 -55q1 -11 -3.5 -15.5t-15.5 -9.5q-40 -16 -84.5 -24t-83.5 -8q-102 0 -159 51.5t-57 142.5
q0 65 21.5 122.5t60.5 100.5t93.5 68t120.5 25q81 0 126 -45t45 -123zM387 325q0 36 -15 58t-56 22q-24 0 -46 -10t-39.5 -26t-30.5 -36t-19 -39h203q3 15 3 31zM483 627q-2 -14 -9.5 -21t-24.5 -7h-226q-15 0 -19 7.5t-2 20.5l4 23q2 13 8 19t22 6h226q17 0 22 -5.5
t3 -19.5z" />
    <glyph glyph-name="ebreve" unicode="&#x115;" horiz-adv-x="530" 
d="M503 330q0 -8 -1 -19.5t-2 -24.5t-3 -25t-3 -20q-3 -18 -11 -22t-27 -4h-292q0 -3 -0.5 -7.5t-0.5 -9.5q0 -54 31.5 -83.5t86.5 -29.5q32 0 65 6.5t64 17.5q8 3 15 3t9 -12l5 -55q1 -11 -3.5 -15.5t-15.5 -9.5q-40 -16 -84.5 -24t-83.5 -8q-102 0 -159 51.5t-57 142.5
q0 65 21.5 122.5t60.5 100.5t93.5 68t120.5 25q81 0 126 -45t45 -123zM387 325q0 36 -15 58t-56 22q-24 0 -46 -10t-39.5 -26t-30.5 -36t-19 -39h203q3 15 3 31zM477 685q0 -4 -4 -14q-18 -48 -60 -74.5t-92 -26.5q-46 0 -77.5 26t-33.5 74v4q0 11 4 16t19 5h28q14 0 17 -4
t7 -14q5 -15 16.5 -25.5t34.5 -10.5q17 0 34.5 10.5t28.5 27.5q6 9 11.5 12.5t16.5 3.5h33q17 0 17 -10z" />
    <glyph glyph-name="edotaccent" unicode="&#x117;" horiz-adv-x="530" 
d="M503 330q0 -8 -1 -19.5t-2 -24.5t-3 -25t-3 -20q-3 -18 -11 -22t-27 -4h-292q0 -3 -0.5 -7.5t-0.5 -9.5q0 -54 31.5 -83.5t86.5 -29.5q32 0 65 6.5t64 17.5q8 3 15 3t9 -12l5 -55q1 -11 -3.5 -15.5t-15.5 -9.5q-40 -16 -84.5 -24t-83.5 -8q-102 0 -159 51.5t-57 142.5
q0 65 21.5 122.5t60.5 100.5t93.5 68t120.5 25q81 0 126 -45t45 -123zM387 325q0 36 -15 58t-56 22q-24 0 -46 -10t-39.5 -26t-30.5 -36t-19 -39h203q3 15 3 31zM396 637q0 -15 -6 -28.5t-16.5 -23t-24 -15.5t-28.5 -6q-22 0 -38.5 13t-16.5 36q0 15 6.5 28.5t17.5 23
t24.5 15t28.5 5.5q22 0 37.5 -12.5t15.5 -35.5z" />
    <glyph glyph-name="eogonek" unicode="&#x119;" horiz-adv-x="530" 
d="M353 -178q-2 -11 -16 -15q-17 -6 -40 -10.5t-43 -4.5q-45 0 -72 17.5t-27 49.5q0 23 9 41.5t23.5 34t33.5 27.5t39 22v4h-8q-102 0 -158.5 51.5t-57.5 142.5q0 65 21 122.5t60 100.5t94 68t121 25q81 0 126 -45t45 -123q0 -8 -1 -19.5t-2 -24.5t-3 -25t-3 -20
q-3 -18 -11 -22t-27 -4h-292q0 -3 -0.5 -7.5t-0.5 -9.5q0 -54 31.5 -83.5t86.5 -29.5q32 0 66 6.5t63 17.5l6 2t6 1q10 0 12 -12l5 -55v-3q0 -16 -19 -22q-17 -6 -32.5 -11t-30.5 -11q-12 -5 -24.5 -11.5t-24.5 -14.5q-26 -19 -46 -42.5t-20 -51.5q0 -16 11.5 -22.5
t29.5 -6.5q10 0 26.5 2.5t28.5 6.5q1 0 2 0.5t2 0.5q7 0 8 -7l3 -24v-6zM387 325q0 36 -15 58t-56 22q-24 0 -46 -10t-39.5 -26t-30.5 -36t-19 -39h203q3 15 3 31z" />
    <glyph glyph-name="gcircumflex" unicode="&#x11d;" horiz-adv-x="574" 
d="M524 450q14 -5 18 -11t2 -17l-71 -389q-23 -122 -89 -187t-192 -65q-37 0 -73 7.5t-70 23.5q-13 6 -13 16q0 6 4 13l26 52q7 14 15 14q7 0 15 -4q26 -11 54 -18.5t54 -7.5q35 0 60 10.5t41.5 28.5t26 42t15.5 52l8 40q-13 -11 -30 -20.5t-36 -16t-38 -10.5t-35 -4
q-92 0 -137 57q-19 24 -27.5 57t-8.5 68q0 66 21.5 123.5t61 100.5t95 67.5t124.5 24.5q18 0 41 -3.5t47 -10t47.5 -15t43.5 -18.5zM412 374q-16 13 -41 19.5t-50 6.5q-36 0 -64 -18t-47 -46.5t-28.5 -62.5t-9.5 -66q0 -22 4 -44.5t18 -38.5q11 -14 29 -20.5t38 -6.5
q29 0 60.5 14.5t50.5 33.5zM496 591q0 -9 -10 -17l-23 -18q-8 -6 -14 -6q-7 0 -14 7l-80 73l-96 -71q-11 -8 -19 -8q-7 0 -15 8l-17 18q-5 5 -5 9q0 5 3.5 9t8.5 8l114 91q8 6 14 8.5t17 2.5h19q8 0 14 -1.5t11 -7.5l87 -94q5 -7 5 -11z" />
    <glyph glyph-name="gbreve" unicode="&#x11f;" horiz-adv-x="574" 
d="M524 450q14 -5 18 -11t2 -17l-71 -389q-23 -122 -89 -187t-192 -65q-37 0 -73 7.5t-70 23.5q-13 6 -13 16q0 6 4 13l26 52q7 14 15 14q7 0 15 -4q26 -11 54 -18.5t54 -7.5q35 0 60 10.5t41.5 28.5t26 42t15.5 52l8 40q-13 -11 -30 -20.5t-36 -16t-38 -10.5t-35 -4
q-92 0 -137 57q-19 24 -27.5 57t-8.5 68q0 66 21.5 123.5t61 100.5t95 67.5t124.5 24.5q18 0 41 -3.5t47 -10t47.5 -15t43.5 -18.5zM412 374q-16 13 -41 19.5t-50 6.5q-36 0 -64 -18t-47 -46.5t-28.5 -62.5t-9.5 -66q0 -22 4 -44.5t18 -38.5q11 -14 29 -20.5t38 -6.5
q29 0 60.5 14.5t50.5 33.5zM496 685q0 -4 -4 -14q-18 -48 -60 -74.5t-92 -26.5q-46 0 -77.5 26t-33.5 74v4q0 11 4 16t19 5h28q14 0 17 -4t7 -14q5 -15 16.5 -25.5t34.5 -10.5q17 0 34.5 10.5t28.5 27.5q6 9 11.5 12.5t16.5 3.5h33q17 0 17 -10z" />
    <glyph glyph-name="gdotaccent" unicode="&#x121;" horiz-adv-x="574" 
d="M524 450q14 -5 18 -11t2 -17l-71 -389q-23 -122 -89 -187t-192 -65q-37 0 -73 7.5t-70 23.5q-13 6 -13 16q0 6 4 13l26 52q7 14 15 14q7 0 15 -4q26 -11 54 -18.5t54 -7.5q35 0 60 10.5t41.5 28.5t26 42t15.5 52l8 40q-13 -11 -30 -20.5t-36 -16t-38 -10.5t-35 -4
q-92 0 -137 57q-19 24 -27.5 57t-8.5 68q0 66 21.5 123.5t61 100.5t95 67.5t124.5 24.5q18 0 41 -3.5t47 -10t47.5 -15t43.5 -18.5zM412 374q-16 13 -41 19.5t-50 6.5q-36 0 -64 -18t-47 -46.5t-28.5 -62.5t-9.5 -66q0 -22 4 -44.5t18 -38.5q11 -14 29 -20.5t38 -6.5
q29 0 60.5 14.5t50.5 33.5zM414 637q0 -15 -6 -28.5t-16.5 -23t-24 -15.5t-28.5 -6q-22 0 -38.5 13t-16.5 36q0 15 6.5 28.5t17.5 23t24.5 15t28.5 5.5q22 0 37.5 -12.5t15.5 -35.5z" />
    <glyph glyph-name="gcommaaccent" unicode="&#x123;" horiz-adv-x="574" 
d="M524 450q14 -5 18 -11t2 -17l-71 -389q-23 -122 -89 -187t-192 -65q-37 0 -73 7.5t-70 23.5q-13 6 -13 16q0 6 4 13l26 52q7 14 15 14q7 0 15 -4q26 -11 54 -18.5t54 -7.5q35 0 60 10.5t41.5 28.5t26 42t15.5 52l8 40q-13 -11 -30 -20.5t-36 -16t-38 -10.5t-35 -4
q-92 0 -137 57q-19 24 -27.5 57t-8.5 68q0 66 21.5 123.5t61 100.5t95 67.5t124.5 24.5q18 0 41 -3.5t47 -10t47.5 -15t43.5 -18.5zM412 374q-16 13 -41 19.5t-50 6.5q-36 0 -64 -18t-47 -46.5t-28.5 -62.5t-9.5 -66q0 -22 4 -44.5t18 -38.5q11 -14 29 -20.5t38 -6.5
q29 0 60.5 14.5t50.5 33.5zM306 605q0 23 9.5 46t25 44t34.5 38t37 29q9 6 16 6q5 0 10 -8l7 -10q2 -4 1 -8q0 -4 -7 -9q-10 -8 -19 -18t-16 -21q-3 -5 -5.5 -11t-2.5 -13q0 -14 11 -27.5t11 -29.5q0 -26 -20 -44t-44 -18q-23 0 -35.5 16t-12.5 38z" />
    <glyph glyph-name="hcircumflex" unicode="&#x125;" horiz-adv-x="581" 
d="M532 376q0 -14 -2 -35t-7 -45l-49 -276q-2 -11 -5.5 -15.5t-13.5 -4.5h-88q-15 0 -15 11v4.5t1 4.5l49 278q2 9 3 17t1 16q0 28 -13.5 44.5t-48.5 16.5q-29 0 -65.5 -14t-63.5 -34l-57 -324q-2 -11 -6.5 -15.5t-15.5 -4.5h-86q-14 0 -14 11q0 2 0.5 3.5t0.5 3.5l117 661
q2 14 8.5 18.5t17.5 6.5l84 10q11 1 13 -5t0 -14l-44 -251q36 26 82 40t86 14q69 0 100 -32.5t31 -89.5zM375 752q0 -9 -10 -17l-23 -18q-8 -6 -14 -6q-7 0 -14 7l-80 73l-96 -71q-11 -8 -19 -8q-7 0 -15 8l-17 18q-5 5 -5 9q0 5 3.5 9t8.5 8l114 91q8 6 14 8.5t17 2.5h19
q8 0 14 -1.5t11 -7.5l87 -94q5 -7 5 -11z" />
    <glyph glyph-name="hbar" unicode="&#x127;" horiz-adv-x="581" 
d="M532 376q0 -14 -2 -35t-7 -45l-49 -276q-2 -11 -5.5 -15.5t-13.5 -4.5h-88q-15 0 -15 11v4.5t1 4.5l49 278q2 9 3 17t1 16q0 28 -13.5 44.5t-48.5 16.5q-29 0 -65.5 -14t-63.5 -34l-57 -324q-2 -11 -6.5 -15.5t-15.5 -4.5h-86q-14 0 -14 11q0 2 0.5 3.5t0.5 3.5l98 557
h-38q-19 0 -19 12q0 2 0.5 3.5t0.5 3.5l5 30q2 12 7 15.5t17 3.5h39l7 36q2 14 8.5 18.5t17.5 6.5l84 10q11 1 13 -5t0 -14l-9 -52h146q17 0 20.5 -4.5t1.5 -14.5l-5 -29q-2 -13 -7 -16.5t-18 -3.5h-150l-23 -131q36 26 82 40t86 14q69 0 100 -32.5t31 -89.5z" />
    <glyph glyph-name="dotlessi" unicode="&#x131;" horiz-adv-x="279" 
d="M235 469q0 -2 -0.5 -3.5t-0.5 -3.5l-77 -437q-4 -25 -30 -25h-70q-22 0 -22 17q0 5 1 8l77 437q4 23 30 23h70q22 0 22 -16z" />
    <glyph glyph-name="igrave" unicode="&#xec;" horiz-adv-x="279" 
d="M235 469q0 -2 -0.5 -3.5t-0.5 -3.5l-77 -437q-4 -25 -30 -25h-70q-22 0 -22 17q0 5 1 8l77 437q4 23 30 23h70q22 0 22 -16zM256 557q-6 -8 -13 -8t-18 6l-128 77q-11 6 -9.5 14t8.5 16l30 35q10 11 16.5 11t17.5 -9l111 -91q10 -8 10 -13.5t-8 -15.5z" />
    <glyph glyph-name="iacute" unicode="&#xed;" horiz-adv-x="279" 
d="M235 469q0 -2 -0.5 -3.5t-0.5 -3.5l-77 -437q-4 -25 -30 -25h-70q-22 0 -22 17q0 5 1 8l77 437q4 23 30 23h70q22 0 22 -16zM300 645q0 -8 -9 -13l-128 -77q-11 -6 -17 -6q-9 0 -14 8l-17 22q-8 10 -8 15t10 14l111 91q10 9 17 9q8 0 17 -11l30 -35q8 -10 8 -17z" />
    <glyph glyph-name="icircumflex" unicode="&#xee;" horiz-adv-x="289" 
d="M227 469q0 -2 -0.5 -3.5t-0.5 -3.5l-77 -437q-4 -25 -30 -25h-70q-22 0 -22 17q0 5 1 8l77 437q4 23 30 23h70q22 0 22 -16zM327 591q0 -9 -10 -17l-23 -18q-8 -6 -14 -6q-7 0 -14 7l-80 73l-96 -71q-11 -8 -19 -8q-7 0 -15 8l-17 18q-5 5 -5 9q0 5 3.5 9t8.5 8l114 91
q8 6 14 8.5t17 2.5h19q8 0 14 -1.5t11 -7.5l87 -94q5 -7 5 -11z" />
    <glyph glyph-name="itilde" unicode="&#x129;" horiz-adv-x="299" 
d="M230 469q0 -2 -0.5 -3.5t-0.5 -3.5l-77 -437q-4 -25 -30 -25h-70q-22 0 -22 17q0 5 1 8l77 437q4 23 30 23h70q22 0 22 -16zM353 623q0 -10 -10 -17q-26 -17 -55 -29t-58 -12q-15 0 -28 6.5t-25.5 14t-25.5 14t-26 6.5q-14 0 -31 -8t-33 -16q-5 -2 -9 -4t-8 -2
q-7 0 -10 10l-10 35q-2 8 -2 10q0 6 4.5 9.5t12.5 8.5q22 13 48 22.5t49 9.5q15 0 30 -6.5t28.5 -14t26 -14t23.5 -6.5q14 0 30 7.5t36 18.5q8 5 16 5t12 -9l13 -29q2 -3 2 -10z" />
    <glyph glyph-name="idieresis" unicode="&#xef;" horiz-adv-x="292" 
d="M227 469q0 -2 -0.5 -3.5t-0.5 -3.5l-77 -437q-4 -25 -30 -25h-70q-22 0 -22 17q0 5 1 8l77 437q4 23 30 23h70q22 0 22 -16zM336 641q0 -27 -21 -46.5t-47 -19.5q-20 0 -35.5 11.5t-15.5 33.5q0 28 22 46.5t49 18.5q20 0 34 -11.5t14 -32.5zM153 640q0 -27 -21.5 -46
t-47.5 -19q-20 0 -35 11.5t-15 32.5q0 29 21.5 47.5t48.5 18.5q20 0 34.5 -12t14.5 -33z" />
    <glyph glyph-name="imacron" unicode="&#x12b;" horiz-adv-x="292" 
d="M227 469q0 -2 -0.5 -3.5t-0.5 -3.5l-77 -437q-4 -25 -30 -25h-70q-22 0 -22 17q0 5 1 8l77 437q4 23 30 23h70q22 0 22 -16zM331 627q-2 -14 -9.5 -21t-24.5 -7h-226q-15 0 -19 7.5t-2 20.5l4 23q2 13 8 19t22 6h226q17 0 22 -5.5t3 -19.5z" />
    <glyph glyph-name="ibreve" unicode="&#x12d;" horiz-adv-x="290" 
d="M227 469q0 -2 -0.5 -3.5t-0.5 -3.5l-77 -437q-4 -25 -30 -25h-70q-22 0 -22 17q0 5 1 8l77 437q4 23 30 23h70q22 0 22 -16zM328 685q0 -4 -4 -14q-18 -48 -60 -74.5t-92 -26.5q-46 0 -77.5 26t-33.5 74v4q0 11 4 16t19 5h28q14 0 17 -4t7 -14q5 -15 16.5 -25.5
t34.5 -10.5q17 0 34.5 10.5t28.5 27.5q6 9 11.5 12.5t16.5 3.5h33q17 0 17 -10z" />
    <glyph glyph-name="iogonek" unicode="&#x12f;" horiz-adv-x="279" 
d="M120 -178q-2 -11 -16 -15q-17 -6 -40 -10.5t-43 -4.5q-45 0 -72 22.5t-27 54.5q0 25 9.5 45.5t25 37t35.5 29t40 21.5l81 460q4 23 30 23h70q22 0 22 -16q0 -2 -0.5 -3.5t-0.5 -3.5l-77 -437q-2 -14 -9.5 -19.5t-20.5 -7.5q-22 -2 -40 -10t-32 -19q-21 -17 -33.5 -37.5
t-12.5 -43.5q0 -21 11.5 -30t29.5 -9q10 0 26.5 2.5t28.5 6.5q1 0 2 0.5t2 0.5q7 0 8 -7l3 -24v-6zM267 624q0 -16 -6.5 -29.5t-18 -23.5t-25.5 -16t-29 -6q-23 0 -40.5 13.5t-17.5 37.5q0 16 7 30t18 24t26 15.5t30 5.5q23 0 39.5 -13.5t16.5 -37.5z" />
    <glyph glyph-name="ij" unicode="&#x133;" horiz-adv-x="575" 
d="M268 624q0 -16 -6.5 -29.5t-18 -23.5t-25.5 -16t-29 -6q-23 0 -40.5 13.5t-17.5 37.5q0 16 7 30t18 24t26 15.5t30 5.5q23 0 39.5 -13.5t16.5 -37.5zM214 485q16 1 19.5 -5.5t1.5 -17.5l-77 -437q-4 -25 -30 -25h-70q-25 0 -21 25l77 437q4 23 30 23h70zM563 623
q0 -32 -24.5 -53.5t-55.5 -21.5q-23 0 -40 13.5t-17 37.5q0 32 24.5 54t55.5 22q23 0 40 -14t17 -38zM508 485q14 1 17.5 -5.5t1.5 -16.5l-77 -440q-12 -69 -36 -118t-65 -79q-29 -22 -66 -33t-88 -11q-14 0 -31 2t-34 5q-14 3 -14 14q0 3 2 11l20 56q5 13 15 13h3
q7 -1 13.5 -2t13.5 -1q35 0 66.5 12t48.5 37q19 29 28 77l80 457q2 11 9.5 16.5t18.5 5.5h74z" />
    <glyph glyph-name="jcircumflex" unicode="&#x135;" horiz-adv-x="315" 
d="M268 469q0 -2 -0.5 -3t-0.5 -3l-77 -440q-12 -69 -36 -118t-65 -79q-29 -22 -66 -33t-88 -11q-14 0 -31 2t-34 5q-14 3 -14 14q0 3 2 11l20 56q5 13 15 13h3q7 -1 13.5 -2t13.5 -1q35 0 66.5 12t48.5 37q19 29 28 77l80 457q2 11 9.5 16.5t18.5 5.5h74q20 0 20 -16z
M363 591q0 -9 -10 -17l-23 -18q-8 -6 -14 -6q-7 0 -14 7l-80 73l-96 -71q-11 -8 -19 -8q-7 0 -15 8l-17 18q-5 5 -5 9q0 5 3.5 9t8.5 8l114 91q8 6 14 8.5t17 2.5h19q8 0 14 -1.5t11 -7.5l87 -94q5 -7 5 -11z" />
    <glyph glyph-name="kcommaaccent" unicode="&#x137;" horiz-adv-x="497" 
d="M499 476q0 -6 -6 -12l-175 -180l117 -253q4 -8 4 -16q0 -15 -21 -15h-86q-14 0 -22.5 4.5t-13.5 16.5l-91 210l-13 -10l-35 -196q-4 -25 -27 -25h-75q-14 0 -17.5 7t-1.5 17l116 656q2 12 8 17t17 7l84 11q10 2 13 -5.5t1 -16.5l-71 -402h2l163 180q8 8 13.5 11t15.5 3
h89q12 0 12 -9zM268 -94q0 -23 -9.5 -46t-25 -44t-34.5 -38t-37 -29q-9 -6 -16 -6q-5 0 -10 8l-7 10q-2 4 -1 8q0 4 7 9q10 8 19 18t16 21q3 5 5.5 11t2.5 13t-3.5 14t-7.5 13.5t-7.5 14t-3.5 15.5q0 26 20 44t44 18q23 0 35.5 -16t12.5 -38z" />
    <glyph glyph-name="kgreenlandic" unicode="&#x138;" horiz-adv-x="519" 
d="M530 476q0 -6 -6 -12l-200 -188l152 -245q7 -11 4 -21t-19 -10h-81q-15 0 -23.5 5t-15.5 16l-118 191l-36 -27l-29 -160q-4 -25 -27 -25h-75q-14 0 -17.5 7t-1.5 17l77 437q2 12 7.5 18t17.5 6h83q11 0 13.5 -6.5t0.5 -15.5l-31 -172h2l194 180q14 14 31 14h86
q12 0 12 -9z" />
    <glyph glyph-name="lacute" unicode="&#x13a;" horiz-adv-x="264" 
d="M261 714q12 1 14.5 -6t0.5 -15l-118 -668q-4 -25 -26 -25h-76q-20 0 -20 18q0 2 0.5 3t0.5 3l116 656q2 13 7.5 17.5t16.5 6.5zM331 845q0 -8 -9 -13l-128 -77q-11 -6 -17 -6q-9 0 -14 8l-17 22q-8 10 -8 15t10 14l111 91q10 9 17 9q8 0 17 -11l30 -35q8 -10 8 -17z" />
    <glyph glyph-name="lcaron" unicode="&#x13e;" horiz-adv-x="358" 
d="M261 714q12 1 14.5 -6t0.5 -15l-118 -668q-4 -25 -26 -25h-76q-20 0 -20 18q0 2 0.5 3t0.5 3l116 656q2 13 7.5 17.5t16.5 6.5zM437 660q0 -23 -9.5 -46t-25 -44t-34.5 -38t-37 -29q-9 -6 -16 -6q-5 0 -10 8l-7 10q-2 4 -1 8q0 4 7 9q10 8 19 18t16 21q3 5 5.5 11t2.5 13
t-3.5 14t-7.5 13.5t-7.5 14t-3.5 15.5q0 26 20 44t44 18q23 0 35.5 -16t12.5 -38z" />
    <glyph glyph-name="lcommaaccent" unicode="&#x13c;" horiz-adv-x="264" 
d="M261 714q12 1 14.5 -6t0.5 -15l-118 -668q-4 -25 -26 -25h-76q-20 0 -20 18q0 2 0.5 3t0.5 3l116 656q2 13 7.5 17.5t16.5 6.5zM128 -94q0 -23 -9.5 -46t-25 -44t-34.5 -38t-37 -29q-9 -6 -16 -6q-5 0 -10 8l-7 10q-2 4 -1 8q0 4 7 9q10 8 19 18t16 21q3 5 5.5 11t2.5 13
t-3.5 14t-7.5 13.5t-7.5 14t-3.5 15.5q0 26 20 44t44 18q23 0 35.5 -16t12.5 -38z" />
    <glyph glyph-name="lslash" unicode="&#x142;" horiz-adv-x="350" 
d="M377 502l-6 -30q-2 -13 -9 -19.5t-18 -14.5l-111 -81l-59 -332q-4 -25 -26 -25h-76q-20 0 -20 18q0 2 0.5 3t0.5 3l41 232l-80 -58q-8 -6 -13 -6q-8 0 -8 11v5l5 31q2 12 8 16.5t17 12.5l84 61l62 351q2 13 7.5 17.5t16.5 6.5l77 10h9q14 0 14 -14q0 -2 -0.5 -3.5
t-0.5 -3.5l-46 -263l107 78q11 8 17 8q7 0 7 -10v-4z" />
    <glyph glyph-name="longs" unicode="&#x17f;" horiz-adv-x="308" 
d="M133 -169q-2 -14 -9 -21t-21 -7h-72q-24 0 -19 26l103 573h-52q-14 0 -17.5 6t-1.5 19l7 38q3 20 22 20h56l6 28q10 45 23 85.5t46 74.5q26 26 61.5 40.5t82.5 14.5q25 0 53.5 -5t48.5 -16q15 -8 9 -25l-18 -53q-7 -19 -27 -13q-14 5 -29.5 9t-33.5 4q-45 0 -65 -29.5
t-28 -72.5z" />
    <glyph glyph-name="ldot" unicode="&#x140;" horiz-adv-x="376" 
d="M261 714q12 1 14.5 -6t0.5 -15l-118 -668q-4 -25 -26 -25h-76q-20 0 -20 18q0 2 0.5 3t0.5 3l116 656q2 13 7.5 17.5t16.5 6.5zM401 359q0 -15 -6 -28.5t-16.5 -23t-24 -15.5t-28.5 -6q-22 0 -38.5 13t-16.5 36q0 15 6.5 28.5t17.5 23t24.5 15t28.5 5.5q22 0 37.5 -12.5
t15.5 -35.5z" />
    <glyph glyph-name="nacute" unicode="&#x144;" horiz-adv-x="577" 
d="M528 365q0 -5 -1 -14t-2 -19.5t-2.5 -20.5t-2.5 -17l-48 -268q-2 -13 -8 -19.5t-20 -6.5h-72q-17 0 -19.5 7.5t-0.5 18.5l48 272q2 10 3 21t1 19q0 27 -14 40.5t-49 13.5q-29 0 -64.5 -14t-62.5 -34l-56 -319q-4 -25 -28 -25h-73q-14 0 -18 6.5t-2 17.5l77 436
q2 12 8.5 18.5t20.5 6.5h65q24 0 21 -19l-4 -26q39 28 84 43t89 15q70 0 100 -35.5t30 -97.5zM458 645q0 -8 -9 -13l-128 -77q-11 -6 -17 -6q-9 0 -14 8l-17 22q-8 10 -8 15t10 14l111 91q10 9 17 9q8 0 17 -11l30 -35q8 -10 8 -17z" />
    <glyph glyph-name="ncaron" unicode="&#x148;" horiz-adv-x="577" 
d="M528 365q0 -5 -1 -14t-2 -19.5t-2.5 -20.5t-2.5 -17l-48 -268q-2 -13 -8 -19.5t-20 -6.5h-72q-17 0 -19.5 7.5t-0.5 18.5l48 272q2 10 3 21t1 19q0 27 -14 40.5t-49 13.5q-29 0 -64.5 -14t-62.5 -34l-56 -319q-4 -25 -28 -25h-73q-14 0 -18 6.5t-2 17.5l77 436
q2 12 8.5 18.5t20.5 6.5h65q24 0 21 -19l-4 -26q39 28 84 43t89 15q70 0 100 -35.5t30 -97.5zM487 671q0 -7 -11 -16l-112 -92q-8 -6 -14.5 -9t-17.5 -3h-18q-8 0 -14 1.5t-11 7.5l-84 96q-6 7 -6 12q0 7 11 15l23 18q5 5 13 5q6 0 14 -6l76 -65l99 62q11 8 19 8q7 0 14 -8
l14 -16q5 -7 5 -10z" />
    <glyph glyph-name="ntilde" unicode="&#xf1;" horiz-adv-x="577" 
d="M528 365q0 -5 -1 -14t-2 -19.5t-2.5 -20.5t-2.5 -17l-48 -268q-2 -13 -8 -19.5t-20 -6.5h-72q-17 0 -19.5 7.5t-0.5 18.5l48 272q2 10 3 21t1 19q0 27 -14 40.5t-49 13.5q-29 0 -64.5 -14t-62.5 -34l-56 -319q-4 -25 -28 -25h-73q-14 0 -18 6.5t-2 17.5l77 436
q2 12 8.5 18.5t20.5 6.5h65q24 0 21 -19l-4 -26q39 28 84 43t89 15q70 0 100 -35.5t30 -97.5zM527 623q0 -10 -10 -17q-26 -17 -55 -29t-58 -12q-15 0 -28 6.5t-25.5 14t-25.5 14t-26 6.5q-14 0 -31 -8t-33 -16q-5 -2 -9 -4t-8 -2q-7 0 -10 10l-10 35q-2 8 -2 10
q0 6 4.5 9.5t12.5 8.5q22 13 48 22.5t49 9.5q15 0 30 -6.5t28.5 -14t26 -14t23.5 -6.5q14 0 30 7.5t36 18.5q8 5 16 5t12 -9l13 -29q2 -3 2 -10z" />
    <glyph glyph-name="ncommaaccent" unicode="&#x146;" horiz-adv-x="577" 
d="M528 365q0 -5 -1 -14t-2 -19.5t-2.5 -20.5t-2.5 -17l-48 -268q-2 -13 -8 -19.5t-20 -6.5h-72q-17 0 -19.5 7.5t-0.5 18.5l48 272q2 10 3 21t1 19q0 27 -14 40.5t-49 13.5q-29 0 -64.5 -14t-62.5 -34l-56 -319q-4 -25 -28 -25h-73q-14 0 -18 6.5t-2 17.5l77 436
q2 12 8.5 18.5t20.5 6.5h65q24 0 21 -19l-4 -26q39 28 84 43t89 15q70 0 100 -35.5t30 -97.5zM296 -94q0 -23 -9.5 -46t-25 -44t-34.5 -38t-37 -29q-9 -6 -16 -6q-5 0 -10 8l-7 10q-2 4 -1 8q0 4 7 9q10 8 19 18t16 21q3 5 5.5 11t2.5 13t-3.5 14t-7.5 13.5t-7.5 14
t-3.5 15.5q0 26 20 44t44 18q23 0 35.5 -16t12.5 -38z" />
    <glyph glyph-name="napostrophe" unicode="&#x149;" horiz-adv-x="577" 
d="M528 365q0 -5 -1 -14t-2 -19.5t-2.5 -20.5t-2.5 -17l-48 -268q-2 -13 -8 -19.5t-20 -6.5h-72q-17 0 -19.5 7.5t-0.5 18.5l48 272q2 10 3 21t1 19q0 27 -14 40.5t-49 13.5q-29 0 -64.5 -14t-62.5 -34l-56 -319q-4 -25 -28 -25h-73q-14 0 -18 6.5t-2 17.5l77 436
q2 12 8.5 18.5t20.5 6.5h65q24 0 21 -19l-4 -26q39 28 84 43t89 15q70 0 100 -35.5t30 -97.5zM120 662q0 -23 -9.5 -46t-25 -43.5t-34.5 -38t-37 -28.5q-17 -11 -26 2l-6 9q-4 6 -2.5 9.5t7.5 8.5q13 10 28 27t15 35q0 7 -3.5 14t-7 13.5t-7 14t-3.5 15.5q0 26 20 43.5
t43 17.5t35.5 -16t12.5 -37z" />
    <glyph glyph-name="eng" unicode="&#x14b;" horiz-adv-x="577" 
d="M158 25q-4 -25 -28 -25h-73q-14 0 -18 6.5t-2 17.5l77 436q2 12 8.5 18.5t20.5 6.5h65q24 0 21 -19l-4 -26q39 28 84 43t89 15q70 0 100 -35.5t30 -97.5q0 -5 -1 -14t-2 -19.5t-2.5 -20.5t-2.5 -17l-43 -242q-9 -50 -24 -92.5t-40.5 -73.5t-62.5 -48t-88 -17
q-13 0 -29.5 2t-26.5 5t-11.5 8.5t1.5 16.5l13 52q2 9 6 12t13 3q5 0 10.5 -0.5t11.5 -0.5q45 0 69 28t35 88l46 263q2 10 3 21t1 19q0 27 -14 40.5t-49 13.5q-29 0 -64.5 -14t-62.5 -34z" />
    <glyph glyph-name="ograve" unicode="&#xf2;" horiz-adv-x="565" 
d="M530 302q0 -64 -21 -121t-59.5 -100t-93.5 -68t-123 -25q-50 0 -87 15.5t-61.5 42.5t-36.5 64t-12 79q0 63 21 119t60 98t93.5 67t120.5 25q50 0 87.5 -15t62 -41.5t37 -62.5t12.5 -77zM404 293q0 22 -4 42t-14.5 35t-27.5 24t-42 9q-35 0 -63.5 -17.5t-48.5 -47t-31 -67
t-11 -76.5q0 -23 4 -43t13.5 -35.5t26 -24.5t42.5 -9q40 0 69.5 20t48.5 51t28.5 68t9.5 71zM410 557q-6 -8 -13 -8t-18 6l-128 77q-11 6 -9.5 14t8.5 16l30 35q10 11 16.5 11t17.5 -9l111 -91q10 -8 10 -13.5t-8 -15.5z" />
    <glyph glyph-name="oacute" unicode="&#xf3;" horiz-adv-x="565" 
d="M530 302q0 -64 -21 -121t-59.5 -100t-93.5 -68t-123 -25q-50 0 -87 15.5t-61.5 42.5t-36.5 64t-12 79q0 63 21 119t60 98t93.5 67t120.5 25q50 0 87.5 -15t62 -41.5t37 -62.5t12.5 -77zM404 293q0 22 -4 42t-14.5 35t-27.5 24t-42 9q-35 0 -63.5 -17.5t-48.5 -47t-31 -67
t-11 -76.5q0 -23 4 -43t13.5 -35.5t26 -24.5t42.5 -9q40 0 69.5 20t48.5 51t28.5 68t9.5 71zM443 645q0 -8 -9 -13l-128 -77q-11 -6 -17 -6q-9 0 -14 8l-17 22q-8 10 -8 15t10 14l111 91q10 9 17 9q8 0 17 -11l30 -35q8 -10 8 -17z" />
    <glyph glyph-name="ocircumflex" unicode="&#xf4;" horiz-adv-x="565" 
d="M530 302q0 -64 -21 -121t-59.5 -100t-93.5 -68t-123 -25q-50 0 -87 15.5t-61.5 42.5t-36.5 64t-12 79q0 63 21 119t60 98t93.5 67t120.5 25q50 0 87.5 -15t62 -41.5t37 -62.5t12.5 -77zM404 293q0 22 -4 42t-14.5 35t-27.5 24t-42 9q-35 0 -63.5 -17.5t-48.5 -47t-31 -67
t-11 -76.5q0 -23 4 -43t13.5 -35.5t26 -24.5t42.5 -9q40 0 69.5 20t48.5 51t28.5 68t9.5 71zM479 591q0 -9 -10 -17l-23 -18q-8 -6 -14 -6q-7 0 -14 7l-80 73l-96 -71q-11 -8 -19 -8q-7 0 -15 8l-17 18q-5 5 -5 9q0 5 3.5 9t8.5 8l114 91q8 6 14 8.5t17 2.5h19q8 0 14 -1.5
t11 -7.5l87 -94q5 -7 5 -11z" />
    <glyph glyph-name="otilde" unicode="&#xf5;" horiz-adv-x="565" 
d="M530 302q0 -64 -21 -121t-59.5 -100t-93.5 -68t-123 -25q-50 0 -87 15.5t-61.5 42.5t-36.5 64t-12 79q0 63 21 119t60 98t93.5 67t120.5 25q50 0 87.5 -15t62 -41.5t37 -62.5t12.5 -77zM404 293q0 22 -4 42t-14.5 35t-27.5 24t-42 9q-35 0 -63.5 -17.5t-48.5 -47t-31 -67
t-11 -76.5q0 -23 4 -43t13.5 -35.5t26 -24.5t42.5 -9q40 0 69.5 20t48.5 51t28.5 68t9.5 71zM513 623q0 -10 -10 -17q-26 -17 -55 -29t-58 -12q-15 0 -28 6.5t-25.5 14t-25.5 14t-26 6.5q-14 0 -31 -8t-33 -16q-5 -2 -9 -4t-8 -2q-7 0 -10 10l-10 35q-2 8 -2 10q0 6 4.5 9.5
t12.5 8.5q22 13 48 22.5t49 9.5q15 0 30 -6.5t28.5 -14t26 -14t23.5 -6.5q14 0 30 7.5t36 18.5q8 5 16 5t12 -9l13 -29q2 -3 2 -10z" />
    <glyph glyph-name="odieresis" unicode="&#xf6;" horiz-adv-x="565" 
d="M530 302q0 -64 -21 -121t-59.5 -100t-93.5 -68t-123 -25q-50 0 -87 15.5t-61.5 42.5t-36.5 64t-12 79q0 63 21 119t60 98t93.5 67t120.5 25q50 0 87.5 -15t62 -41.5t37 -62.5t12.5 -77zM404 293q0 22 -4 42t-14.5 35t-27.5 24t-42 9q-35 0 -63.5 -17.5t-48.5 -47t-31 -67
t-11 -76.5q0 -23 4 -43t13.5 -35.5t26 -24.5t42.5 -9q40 0 69.5 20t48.5 51t28.5 68t9.5 71zM496 641q0 -27 -21 -46.5t-47 -19.5q-20 0 -35.5 11.5t-15.5 33.5q0 28 22 46.5t49 18.5q20 0 34 -11.5t14 -32.5zM313 640q0 -27 -21.5 -46t-47.5 -19q-20 0 -35 11.5t-15 32.5
q0 29 21.5 47.5t48.5 18.5q20 0 34.5 -12t14.5 -33z" />
    <glyph glyph-name="omacron" unicode="&#x14d;" horiz-adv-x="565" 
d="M530 302q0 -64 -21 -121t-59.5 -100t-93.5 -68t-123 -25q-50 0 -87 15.5t-61.5 42.5t-36.5 64t-12 79q0 63 21 119t60 98t93.5 67t120.5 25q50 0 87.5 -15t62 -41.5t37 -62.5t12.5 -77zM404 293q0 22 -4 42t-14.5 35t-27.5 24t-42 9q-35 0 -63.5 -17.5t-48.5 -47t-31 -67
t-11 -76.5q0 -23 4 -43t13.5 -35.5t26 -24.5t42.5 -9q40 0 69.5 20t48.5 51t28.5 68t9.5 71zM491 627q-2 -14 -9.5 -21t-24.5 -7h-226q-15 0 -19 7.5t-2 20.5l4 23q2 13 8 19t22 6h226q17 0 22 -5.5t3 -19.5z" />
    <glyph glyph-name="obreve" unicode="&#x14f;" horiz-adv-x="565" 
d="M530 302q0 -64 -21 -121t-59.5 -100t-93.5 -68t-123 -25q-50 0 -87 15.5t-61.5 42.5t-36.5 64t-12 79q0 63 21 119t60 98t93.5 67t120.5 25q50 0 87.5 -15t62 -41.5t37 -62.5t12.5 -77zM404 293q0 22 -4 42t-14.5 35t-27.5 24t-42 9q-35 0 -63.5 -17.5t-48.5 -47t-31 -67
t-11 -76.5q0 -23 4 -43t13.5 -35.5t26 -24.5t42.5 -9q40 0 69.5 20t48.5 51t28.5 68t9.5 71zM489 685q0 -4 -4 -14q-18 -48 -60 -74.5t-92 -26.5q-46 0 -77.5 26t-33.5 74v4q0 11 4 16t19 5h28q14 0 17 -4t7 -14q5 -15 16.5 -25.5t34.5 -10.5q17 0 34.5 10.5t28.5 27.5
q6 9 11.5 12.5t16.5 3.5h33q17 0 17 -10z" />
    <glyph glyph-name="ohungarumlaut" unicode="&#x151;" horiz-adv-x="565" 
d="M530 302q0 -64 -21 -121t-59.5 -100t-93.5 -68t-123 -25q-50 0 -87 15.5t-61.5 42.5t-36.5 64t-12 79q0 63 21 119t60 98t93.5 67t120.5 25q50 0 87.5 -15t62 -41.5t37 -62.5t12.5 -77zM404 293q0 22 -4 42t-14.5 35t-27.5 24t-42 9q-35 0 -63.5 -17.5t-48.5 -47t-31 -67
t-11 -76.5q0 -23 4 -43t13.5 -35.5t26 -24.5t42.5 -9q40 0 69.5 20t48.5 51t28.5 68t9.5 71zM609 647q0 -11 -14 -17l-155 -75q-5 -2 -9.5 -4t-8.5 -2q-10 0 -15 11l-9 18q-3 6 -3 10q0 8 15 18l144 91q14 9 19 9q8 0 15 -13l18 -35q3 -6 3 -11zM390 645q0 -8 -15 -15
l-154 -75q-5 -2 -9.5 -4t-8.5 -2q-10 0 -15 11l-9 18q-3 6 -3 10q0 8 15 18l143 91q6 4 10.5 6.5t9.5 2.5q8 0 15 -13l17 -35q4 -7 4 -13z" />
    <glyph glyph-name="oslash" unicode="&#xf8;" horiz-adv-x="565" 
d="M530 302q0 -64 -21 -121t-59.5 -100t-93.5 -68t-123 -25q-54 0 -95 19l-18 -23q-8 -10 -17 -18.5t-19 -0.5l-25 20q-9 8 -11 12t3 11l32 40q-24 27 -35.5 63t-11.5 78q0 63 21 119t60 98t93.5 67t120.5 25q55 0 94 -18l24 31q11 13 16.5 15.5t16.5 -4.5l21 -14
q16 -11 15 -16t-9 -14l-29 -36q26 -27 38 -62.5t12 -77.5zM357 395q-18 8 -41 8q-35 0 -63.5 -17.5t-48.5 -47t-31 -67t-11 -76.5q0 -25 4 -42zM404 293q0 12 -1 23t-4 22l-194 -246q18 -9 43 -9q40 0 69.5 20t48.5 51t28.5 68t9.5 71z" />
    <glyph glyph-name="oslashacute" unicode="&#x1ff;" horiz-adv-x="565" 
d="M530 302q0 -64 -21 -121t-59.5 -100t-93.5 -68t-123 -25q-54 0 -95 19l-18 -23q-8 -10 -17 -18.5t-19 -0.5l-25 20q-9 8 -11 12t3 11l32 40q-24 27 -35.5 63t-11.5 78q0 63 21 119t60 98t93.5 67t120.5 25q55 0 94 -18l24 31q11 13 16.5 15.5t16.5 -4.5l21 -14
q16 -11 15 -16t-9 -14l-29 -36q26 -27 38 -62.5t12 -77.5zM357 395q-18 8 -41 8q-35 0 -63.5 -17.5t-48.5 -47t-31 -67t-11 -76.5q0 -25 4 -42zM404 293q0 12 -1 23t-4 22l-194 -246q18 -9 43 -9q40 0 69.5 20t48.5 51t28.5 68t9.5 71zM449 645q0 -8 -9 -13l-128 -77
q-11 -6 -17 -6q-9 0 -14 8l-17 22q-8 10 -8 15t10 14l111 91q10 9 17 9q8 0 17 -11l30 -35q8 -10 8 -17z" />
    <glyph glyph-name="oe" unicode="&#x153;" horiz-adv-x="875" 
d="M849 328q0 -22 -3.5 -44.5t-6.5 -39.5q-4 -18 -11.5 -23.5t-26.5 -5.5h-292v-16q0 -51 32 -82.5t87 -31.5q32 0 63.5 6.5t60.5 17.5q8 3 15.5 2.5t9.5 -11.5l8 -56q2 -11 -3.5 -15.5t-15.5 -9.5q-39 -17 -87.5 -24t-87.5 -7q-63 0 -104.5 22t-63.5 60
q-34 -37 -80.5 -59.5t-106.5 -22.5q-52 0 -89.5 14t-62 39.5t-36 60.5t-11.5 77q0 64 20.5 121.5t59 101.5t93 70t122.5 26q63 0 100.5 -22t56.5 -58q35 37 83 58.5t107 21.5q46 0 80 -16t56 -44q18 -23 26 -51t8 -59zM732 327q0 32 -18.5 55t-57.5 23q-24 0 -45 -9
t-38 -24.5t-29 -35.5t-19 -42h204q3 16 3 33zM405 298q0 22 -5 41.5t-15.5 33.5t-28 22.5t-42.5 8.5q-41 0 -69.5 -20.5t-46.5 -52t-26.5 -69.5t-8.5 -72q0 -45 20 -76.5t71 -31.5q41 0 69.5 21t46.5 53t26.5 70t8.5 72z" />
    <glyph glyph-name="thorn" unicode="&#xfe;" horiz-adv-x="568" 
d="M534 311q0 -31 -6 -62q-10 -57 -35.5 -107.5t-63.5 -86.5q-33 -32 -74.5 -50t-90.5 -18q-35 0 -65.5 12t-47.5 35l-39 -224q-2 -15 -10.5 -20.5t-21.5 -5.5h-70q-20 0 -20 18q0 5 1 8l159 876q3 17 19 18l76 9q2 0 3 0.5t3 0.5q16 0 16 -15q0 -1 -0.5 -2.5t-0.5 -3.5
l-43 -247q26 23 64.5 37t76.5 14q49 0 81.5 -17t52.5 -44q18 -24 27 -56t9 -69zM406 296q0 37 -13 63q-11 22 -30.5 31.5t-44.5 9.5q-28 0 -60 -15t-51 -34l-38 -218q11 -20 35.5 -34.5t53.5 -14.5q26 0 47.5 10.5t37.5 26.5q22 23 36.5 52.5t21.5 69.5q2 15 3.5 28t1.5 25z
" />
    <glyph glyph-name="racute" unicode="&#x155;" horiz-adv-x="360" 
d="M356 498q6 0 13 -1t14 -3q11 -4 7 -16l-25 -77q-4 -13 -15 -13q-8 0 -16 1.5t-16 1.5q-26 0 -53.5 -12.5t-50.5 -35.5l-56 -318q-5 -25 -29 -25h-73q-20 0 -20 18q0 2 0.5 3.5t0.5 3.5l76 435q2 15 10.5 20t19.5 5h64q24 0 21 -19l-4 -32q28 29 59 46.5t73 17.5zM389 645
q0 -8 -9 -13l-128 -77q-11 -6 -17 -6q-9 0 -14 8l-17 22q-8 10 -8 15t10 14l111 91q10 9 17 9q8 0 17 -11l30 -35q8 -10 8 -17z" />
    <glyph glyph-name="rcaron" unicode="&#x159;" horiz-adv-x="360" 
d="M356 498q6 0 13 -1t14 -3q11 -4 7 -16l-25 -77q-4 -13 -15 -13q-8 0 -16 1.5t-16 1.5q-26 0 -53.5 -12.5t-50.5 -35.5l-56 -318q-5 -25 -29 -25h-73q-20 0 -20 18q0 2 0.5 3.5t0.5 3.5l76 435q2 15 10.5 20t19.5 5h64q24 0 21 -19l-4 -32q28 29 59 46.5t73 17.5zM406 671
q0 -7 -11 -16l-112 -92q-8 -6 -14.5 -9t-17.5 -3h-18q-8 0 -14 1.5t-11 7.5l-84 96q-6 7 -6 12q0 7 11 15l23 18q5 5 13 5q6 0 14 -6l76 -65l99 62q11 8 19 8q7 0 14 -8l14 -16q5 -7 5 -10z" />
    <glyph glyph-name="rcommaaccent" unicode="&#x157;" horiz-adv-x="360" 
d="M356 498q6 0 13 -1t14 -3q11 -4 7 -16l-25 -77q-4 -13 -15 -13q-8 0 -16 1.5t-16 1.5q-26 0 -53.5 -12.5t-50.5 -35.5l-56 -318q-5 -25 -29 -25h-73q-20 0 -20 18q0 2 0.5 3.5t0.5 3.5l76 435q2 15 10.5 20t19.5 5h64q24 0 21 -19l-4 -32q28 29 59 46.5t73 17.5zM139 -94
q0 -23 -9.5 -46t-25 -44t-34.5 -38t-37 -29q-9 -6 -16 -6q-5 0 -10 8l-7 10q-2 4 -1 8q0 4 7 9q10 8 19 18t16 21q3 5 5.5 11t2.5 13t-3.5 14t-7.5 13.5t-7.5 14t-3.5 15.5q0 26 20 44t44 18q23 0 35.5 -16t12.5 -38z" />
    <glyph glyph-name="sacute" unicode="&#x15b;" horiz-adv-x="431" 
d="M420 456q0 -4 -4 -12l-22 -54q-5 -11 -16 -11q-4 0 -10 2q-25 10 -52.5 17t-54.5 7q-12 0 -25 -3.5t-23.5 -10t-17 -17t-6.5 -24.5q0 -12 7.5 -20.5t20 -15.5t28.5 -13.5t33 -13.5q20 -8 39.5 -18t35.5 -24t25.5 -33t9.5 -45q0 -34 -15.5 -65.5t-39.5 -54.5
q-32 -30 -76 -44.5t-92 -14.5q-16 0 -35.5 2.5t-39 7t-37.5 11t-32 14.5q-9 5 -9 13q0 4 4 12l21 51q2 5 6 9.5t10 4.5q3 0 5.5 -0.5t5.5 -1.5q29 -12 58.5 -21.5t61.5 -9.5q14 0 29 3.5t27 11t20 19t8 28.5q0 13 -8.5 23t-22 17.5t-31 14t-35.5 13.5q-20 8 -39.5 17.5
t-34.5 23.5t-24.5 33.5t-9.5 46.5q0 41 19 72.5t49 52.5t67 31.5t73 10.5q34 0 72 -6.5t68 -23.5q9 -5 9 -12zM380 645q0 -8 -9 -13l-128 -77q-11 -6 -17 -6q-9 0 -14 8l-17 22q-8 10 -8 15t10 14l111 91q10 9 17 9q8 0 17 -11l30 -35q8 -10 8 -17z" />
    <glyph glyph-name="scircumflex" unicode="&#x15d;" horiz-adv-x="431" 
d="M420 456q0 -4 -4 -12l-22 -54q-5 -11 -16 -11q-4 0 -10 2q-25 10 -52.5 17t-54.5 7q-12 0 -25 -3.5t-23.5 -10t-17 -17t-6.5 -24.5q0 -12 7.5 -20.5t20 -15.5t28.5 -13.5t33 -13.5q20 -8 39.5 -18t35.5 -24t25.5 -33t9.5 -45q0 -34 -15.5 -65.5t-39.5 -54.5
q-32 -30 -76 -44.5t-92 -14.5q-16 0 -35.5 2.5t-39 7t-37.5 11t-32 14.5q-9 5 -9 13q0 4 4 12l21 51q2 5 6 9.5t10 4.5q3 0 5.5 -0.5t5.5 -1.5q29 -12 58.5 -21.5t61.5 -9.5q14 0 29 3.5t27 11t20 19t8 28.5q0 13 -8.5 23t-22 17.5t-31 14t-35.5 13.5q-20 8 -39.5 17.5
t-34.5 23.5t-24.5 33.5t-9.5 46.5q0 41 19 72.5t49 52.5t67 31.5t73 10.5q34 0 72 -6.5t68 -23.5q9 -5 9 -12zM421 591q0 -9 -10 -17l-23 -18q-8 -6 -14 -6q-7 0 -14 7l-80 73l-96 -71q-11 -8 -19 -8q-7 0 -15 8l-17 18q-5 5 -5 9q0 5 3.5 9t8.5 8l114 91q8 6 14 8.5t17 2.5
h19q8 0 14 -1.5t11 -7.5l87 -94q5 -7 5 -11z" />
    <glyph glyph-name="scaron" unicode="&#x161;" horiz-adv-x="431" 
d="M420 456q0 -4 -4 -12l-22 -54q-5 -11 -16 -11q-4 0 -10 2q-25 10 -52.5 17t-54.5 7q-12 0 -25 -3.5t-23.5 -10t-17 -17t-6.5 -24.5q0 -12 7.5 -20.5t20 -15.5t28.5 -13.5t33 -13.5q20 -8 39.5 -18t35.5 -24t25.5 -33t9.5 -45q0 -34 -15.5 -65.5t-39.5 -54.5
q-32 -30 -76 -44.5t-92 -14.5q-16 0 -35.5 2.5t-39 7t-37.5 11t-32 14.5q-9 5 -9 13q0 4 4 12l21 51q2 5 6 9.5t10 4.5q3 0 5.5 -0.5t5.5 -1.5q29 -12 58.5 -21.5t61.5 -9.5q14 0 29 3.5t27 11t20 19t8 28.5q0 13 -8.5 23t-22 17.5t-31 14t-35.5 13.5q-20 8 -39.5 17.5
t-34.5 23.5t-24.5 33.5t-9.5 46.5q0 41 19 72.5t49 52.5t67 31.5t73 10.5q34 0 72 -6.5t68 -23.5q9 -5 9 -12zM419 671q0 -7 -11 -16l-112 -92q-8 -6 -14.5 -9t-17.5 -3h-18q-8 0 -14 1.5t-11 7.5l-84 96q-6 7 -6 12q0 7 11 15l23 18q5 5 13 5q6 0 14 -6l76 -65l99 62
q11 8 19 8q7 0 14 -8l14 -16q5 -7 5 -10z" />
    <glyph glyph-name="scedilla" unicode="&#x15f;" horiz-adv-x="431" 
d="M280 -106q0 -39 -28 -66q-17 -17 -43.5 -26t-58.5 -9q-20 0 -37 4t-32 10t-9 19l11 23q5 9 9.5 9t12.5 -3q11 -4 24.5 -6.5t23.5 -2.5q25 0 38 14q9 7 9 21t-12.5 20t-35.5 6h-20q-15 0 -19 6t-2 17q1 3 1.5 7t2.5 8l13 46q-28 4 -57.5 12t-49.5 20q-9 5 -9 13q0 4 4 12
l21 51q2 5 6 9.5t10 4.5q3 0 5.5 -0.5t5.5 -1.5q29 -12 58.5 -21.5t61.5 -9.5q14 0 29 3.5t27 11t20 19t8 28.5q0 13 -8.5 23t-22 17.5t-31 14t-35.5 13.5q-20 8 -39.5 17.5t-34.5 23.5t-24.5 33.5t-9.5 46.5q0 41 19 72.5t49 52.5t67 31.5t73 10.5q34 0 72 -6.5t68 -23.5
q9 -5 9 -12q0 -4 -4 -12l-22 -54q-5 -11 -16 -11q-4 0 -10 2q-25 10 -52.5 17t-54.5 7q-12 0 -25 -3.5t-23.5 -10t-17 -17t-6.5 -24.5q0 -12 7.5 -20.5t20 -15.5t28.5 -13.5t33 -13.5q20 -8 39.5 -18t35.5 -24t25.5 -33t9.5 -45q0 -34 -15.5 -65.5t-39.5 -54.5
q-28 -26 -64 -39.5t-77 -17.5l-8 -34h8q40 0 64 -15.5t24 -46.5z" />
    <glyph glyph-name="scommaaccent" unicode="&#x219;" horiz-adv-x="431" 
d="M420 456q0 -4 -4 -12l-22 -54q-5 -11 -16 -11q-4 0 -10 2q-25 10 -52.5 17t-54.5 7q-12 0 -25 -3.5t-23.5 -10t-17 -17t-6.5 -24.5q0 -12 7.5 -20.5t20 -15.5t28.5 -13.5t33 -13.5q20 -8 39.5 -18t35.5 -24t25.5 -33t9.5 -45q0 -34 -15.5 -65.5t-39.5 -54.5
q-32 -30 -76 -44.5t-92 -14.5q-16 0 -35.5 2.5t-39 7t-37.5 11t-32 14.5q-9 5 -9 13q0 4 4 12l21 51q2 5 6 9.5t10 4.5q3 0 5.5 -0.5t5.5 -1.5q29 -12 58.5 -21.5t61.5 -9.5q14 0 29 3.5t27 11t20 19t8 28.5q0 13 -8.5 23t-22 17.5t-31 14t-35.5 13.5q-20 8 -39.5 17.5
t-34.5 23.5t-24.5 33.5t-9.5 46.5q0 41 19 72.5t49 52.5t67 31.5t73 10.5q34 0 72 -6.5t68 -23.5q9 -5 9 -12zM217 -94q0 -23 -9.5 -46t-25 -44t-34.5 -38t-37 -29q-9 -6 -16 -6q-5 0 -10 8l-7 10q-2 4 -1 8q0 4 7 9q10 8 19 18t16 21q3 5 5.5 11t2.5 13t-3.5 14t-7.5 13.5
t-7.5 14t-3.5 15.5q0 26 20 44t44 18q23 0 35.5 -16t12.5 -38z" />
    <glyph glyph-name="germandbls" unicode="&#xdf;" horiz-adv-x="615" 
d="M566 585q0 -32 -10.5 -63.5t-29 -58.5t-45 -46.5t-58.5 -27.5v-1q60 -8 97.5 -44.5t37.5 -96.5q0 -47 -19 -94t-51 -80q-46 -46 -106 -63t-123 -17q-11 0 -21.5 0.5t-16.5 1.5q-13 2 -16 6t0 21l7 43q2 15 7 20t16 5q10 0 20.5 -0.5t20.5 -0.5q33 0 62 10.5t50.5 30
t34 47t12.5 61.5q0 25 -10 42.5t-27.5 28.5t-40.5 16.5t-49 5.5h-28q-14 0 -17 2t-1 12l10 58q2 10 5.5 13t13.5 3h13q30 0 55 10t43 28t28 42.5t10 54.5q1 38 -21.5 58.5t-67.5 20.5q-41 0 -74.5 -27t-44.5 -90l-23 -131l-80 -451q-2 -14 -8 -20.5t-20 -6.5h-73
q-25 0 -20 26l94 534q10 57 28.5 105t50 82.5t78 54t112.5 19.5q38 0 73 -7.5t62 -24t43.5 -44t16.5 -67.5z" />
    <glyph glyph-name="tcaron" unicode="&#x165;" horiz-adv-x="394" 
d="M373 421q-3 -19 -23 -19h-112l-38 -215q-5 -25 -6 -37t-1 -23q0 -25 12 -34t37 -9q17 0 33 3.5t33 8.5q6 2 10 2q11 0 11 -12l1 -55v-1q0 -13 -13 -18q-32 -13 -62 -18.5t-59 -5.5q-26 0 -49.5 6.5t-41 20t-28 34.5t-10.5 50q0 21 3 39.5t7 40.5l40 223h-48q-8 0 -15 4
t-5 13l9 46q3 20 22 20h51l20 109q2 13 9.5 17.5t19.5 6.5q16 2 38.5 5.5t36.5 3.5q13 0 16.5 -5t1.5 -17l-21 -120h113q7 0 12.5 -4.5t3.5 -12.5zM457 679q0 -23 -9.5 -46t-25 -44t-34.5 -38t-37 -29q-9 -6 -16 -6q-5 0 -10 8l-7 10q-2 4 -1 8q0 4 7 9q10 8 19 18t16 21
q3 5 5.5 11t2.5 13t-3.5 14t-7.5 13.5t-7.5 14t-3.5 15.5q0 26 20 44t44 18q23 0 35.5 -16t12.5 -38z" />
    <glyph glyph-name="tcommaaccent" unicode="&#x163;" horiz-adv-x="394" 
d="M373 421q-3 -19 -23 -19h-112l-38 -215q-5 -25 -6 -37t-1 -23q0 -25 12 -34t37 -9q17 0 33 3.5t33 8.5q6 2 10 2q11 0 11 -12l1 -55v-1q0 -13 -13 -18q-32 -13 -62 -18.5t-59 -5.5q-26 0 -49.5 6.5t-41 20t-28 34.5t-10.5 50q0 21 3 39.5t7 40.5l40 223h-48q-8 0 -15 4
t-5 13l9 46q3 20 22 20h51l20 109q2 13 9.5 17.5t19.5 6.5q16 2 38.5 5.5t36.5 3.5q13 0 16.5 -5t1.5 -17l-21 -120h113q7 0 12.5 -4.5t3.5 -12.5zM223 -94q0 -23 -9.5 -46t-25 -44t-34.5 -38t-37 -29q-9 -6 -16 -6q-5 0 -10 8l-7 10q-2 4 -1 8q0 4 7 9q10 8 19 18t16 21
q3 5 5.5 11t2.5 13t-3.5 14t-7.5 13.5t-7.5 14t-3.5 15.5q0 26 20 44t44 18q23 0 35.5 -16t12.5 -38z" />
    <glyph glyph-name="uni021B" unicode="&#x21b;" horiz-adv-x="394" 
d="M373 421q-3 -19 -23 -19h-112l-38 -215q-5 -25 -6 -37t-1 -23q0 -25 12 -34t37 -9q17 0 33 3.5t33 8.5q6 2 10 2q11 0 11 -12l1 -55v-1q0 -13 -13 -18q-32 -13 -62 -18.5t-59 -5.5q-26 0 -49.5 6.5t-41 20t-28 34.5t-10.5 50q0 21 3 39.5t7 40.5l40 223h-48q-8 0 -15 4
t-5 13l9 46q3 20 22 20h51l20 109q2 13 9.5 17.5t19.5 6.5q16 2 38.5 5.5t36.5 3.5q13 0 16.5 -5t1.5 -17l-21 -120h113q7 0 12.5 -4.5t3.5 -12.5zM223 -94q0 -23 -9.5 -46t-25 -44t-34.5 -38t-37 -29q-9 -6 -16 -6q-5 0 -10 8l-7 10q-2 4 -1 8q0 4 7 9q10 8 19 18t16 21
q3 5 5.5 11t2.5 13t-3.5 14t-7.5 13.5t-7.5 14t-3.5 15.5q0 26 20 44t44 18q23 0 35.5 -16t12.5 -38z" />
    <glyph glyph-name="tbar" unicode="&#x167;" horiz-adv-x="394" 
d="M373 421q-3 -19 -23 -19h-112l-20 -109h110q17 0 20.5 -4.5t1.5 -14.5l-5 -29q-2 -13 -7 -16.5t-18 -3.5h-114l-6 -38q-5 -25 -6 -37t-1 -23q0 -25 12 -34t37 -9q17 0 33 3.5t33 8.5q6 2 10 2q11 0 11 -12l1 -55v-1q0 -13 -13 -18q-32 -13 -62 -18.5t-59 -5.5
q-26 0 -49.5 6.5t-41 20t-28 34.5t-10.5 50q0 21 3 39.5t7 40.5l8 46h-44q-19 0 -19 12q0 2 0.5 3.5t0.5 3.5l5 30q2 12 7 15.5t17 3.5h45l20 109h-48q-8 0 -15 4t-5 13l9 46q3 20 22 20h51l20 109q2 13 9.5 17.5t19.5 6.5q16 2 38.5 5.5t36.5 3.5q13 0 16.5 -5t1.5 -17
l-21 -120h113q7 0 12.5 -4.5t3.5 -12.5z" />
    <glyph glyph-name="ugrave" unicode="&#xf9;" horiz-adv-x="574" 
d="M462 28q-2 -14 -9 -21t-22 -7h-64q-8 0 -14 4t-6 13q0 7 1 14l2 14q-37 -26 -80 -41.5t-89 -15.5q-63 0 -97 30.5t-34 95.5q0 25 5 53l52 295q4 23 30 23h70q25 0 21 -23l-49 -274q-3 -18 -3 -35q0 -31 15.5 -44.5t45.5 -13.5q31 0 66 14.5t59 33.5l56 319q4 23 29 23h71
q25 0 21 -23zM394 557q-6 -8 -13 -8t-18 6l-128 77q-11 6 -9.5 14t8.5 16l30 35q10 11 16.5 11t17.5 -9l111 -91q10 -8 10 -13.5t-8 -15.5z" />
    <glyph glyph-name="uacute" unicode="&#xfa;" horiz-adv-x="574" 
d="M462 28q-2 -14 -9 -21t-22 -7h-64q-8 0 -14 4t-6 13q0 7 1 14l2 14q-37 -26 -80 -41.5t-89 -15.5q-63 0 -97 30.5t-34 95.5q0 25 5 53l52 295q4 23 30 23h70q25 0 21 -23l-49 -274q-3 -18 -3 -35q0 -31 15.5 -44.5t45.5 -13.5q31 0 66 14.5t59 33.5l56 319q4 23 29 23h71
q25 0 21 -23zM434 645q0 -8 -9 -13l-128 -77q-11 -6 -17 -6q-9 0 -14 8l-17 22q-8 10 -8 15t10 14l111 91q10 9 17 9q8 0 17 -11l30 -35q8 -10 8 -17z" />
    <glyph glyph-name="ucircumflex" unicode="&#xfb;" horiz-adv-x="574" 
d="M462 28q-2 -14 -9 -21t-22 -7h-64q-8 0 -14 4t-6 13q0 7 1 14l2 14q-37 -26 -80 -41.5t-89 -15.5q-63 0 -97 30.5t-34 95.5q0 25 5 53l52 295q4 23 30 23h70q25 0 21 -23l-49 -274q-3 -18 -3 -35q0 -31 15.5 -44.5t45.5 -13.5q31 0 66 14.5t59 33.5l56 319q4 23 29 23h71
q25 0 21 -23zM485 591q0 -9 -10 -17l-23 -18q-8 -6 -14 -6q-7 0 -14 7l-80 73l-96 -71q-11 -8 -19 -8q-7 0 -15 8l-17 18q-5 5 -5 9q0 5 3.5 9t8.5 8l114 91q8 6 14 8.5t17 2.5h19q8 0 14 -1.5t11 -7.5l87 -94q5 -7 5 -11z" />
    <glyph glyph-name="utilde" unicode="&#x169;" horiz-adv-x="574" 
d="M462 28q-2 -14 -9 -21t-22 -7h-64q-8 0 -14 4t-6 13q0 7 1 14l2 14q-37 -26 -80 -41.5t-89 -15.5q-63 0 -97 30.5t-34 95.5q0 25 5 53l52 295q4 23 30 23h70q25 0 21 -23l-49 -274q-3 -18 -3 -35q0 -31 15.5 -44.5t45.5 -13.5q31 0 66 14.5t59 33.5l56 319q4 23 29 23h71
q25 0 21 -23zM520 623q0 -10 -10 -17q-26 -17 -55 -29t-58 -12q-15 0 -28 6.5t-25.5 14t-25.5 14t-26 6.5q-14 0 -31 -8t-33 -16q-5 -2 -9 -4t-8 -2q-7 0 -10 10l-10 35q-2 8 -2 10q0 6 4.5 9.5t12.5 8.5q22 13 48 22.5t49 9.5q15 0 30 -6.5t28.5 -14t26 -14t23.5 -6.5
q14 0 30 7.5t36 18.5q8 5 16 5t12 -9l13 -29q2 -3 2 -10z" />
    <glyph glyph-name="udieresis" unicode="&#xfc;" horiz-adv-x="574" 
d="M462 28q-2 -14 -9 -21t-22 -7h-64q-8 0 -14 4t-6 13q0 7 1 14l2 14q-37 -26 -80 -41.5t-89 -15.5q-63 0 -97 30.5t-34 95.5q0 25 5 53l52 295q4 23 30 23h70q25 0 21 -23l-49 -274q-3 -18 -3 -35q0 -31 15.5 -44.5t45.5 -13.5q31 0 66 14.5t59 33.5l56 319q4 23 29 23h71
q25 0 21 -23zM498 641q0 -27 -21 -46.5t-47 -19.5q-20 0 -35.5 11.5t-15.5 33.5q0 28 22 46.5t49 18.5q20 0 34 -11.5t14 -32.5zM315 640q0 -27 -21.5 -46t-47.5 -19q-20 0 -35 11.5t-15 32.5q0 29 21.5 47.5t48.5 18.5q20 0 34.5 -12t14.5 -33z" />
    <glyph glyph-name="umacron" unicode="&#x16b;" horiz-adv-x="574" 
d="M462 28q-2 -14 -9 -21t-22 -7h-64q-8 0 -14 4t-6 13q0 7 1 14l2 14q-37 -26 -80 -41.5t-89 -15.5q-63 0 -97 30.5t-34 95.5q0 25 5 53l52 295q4 23 30 23h70q25 0 21 -23l-49 -274q-3 -18 -3 -35q0 -31 15.5 -44.5t45.5 -13.5q31 0 66 14.5t59 33.5l56 319q4 23 29 23h71
q25 0 21 -23zM482 627q-2 -14 -9.5 -21t-24.5 -7h-226q-15 0 -19 7.5t-2 20.5l4 23q2 13 8 19t22 6h226q17 0 22 -5.5t3 -19.5z" />
    <glyph glyph-name="ubreve" unicode="&#x16d;" horiz-adv-x="574" 
d="M462 28q-2 -14 -9 -21t-22 -7h-64q-8 0 -14 4t-6 13q0 7 1 14l2 14q-37 -26 -80 -41.5t-89 -15.5q-63 0 -97 30.5t-34 95.5q0 25 5 53l52 295q4 23 30 23h70q25 0 21 -23l-49 -274q-3 -18 -3 -35q0 -31 15.5 -44.5t45.5 -13.5q31 0 66 14.5t59 33.5l56 319q4 23 29 23h71
q25 0 21 -23zM482 685q0 -4 -4 -14q-18 -48 -60 -74.5t-92 -26.5q-46 0 -77.5 26t-33.5 74v4q0 11 4 16t19 5h28q14 0 17 -4t7 -14q5 -15 16.5 -25.5t34.5 -10.5q17 0 34.5 10.5t28.5 27.5q6 9 11.5 12.5t16.5 3.5h33q17 0 17 -10z" />
    <glyph glyph-name="uring" unicode="&#x16f;" horiz-adv-x="574" 
d="M462 28q-2 -14 -9 -21t-22 -7h-64q-8 0 -14 4t-6 13q0 7 1 14l2 14q-37 -26 -80 -41.5t-89 -15.5q-63 0 -97 30.5t-34 95.5q0 25 5 53l52 295q4 23 30 23h70q25 0 21 -23l-49 -274q-3 -18 -3 -35q0 -31 15.5 -44.5t45.5 -13.5q31 0 66 14.5t59 33.5l56 319q4 23 29 23h71
q25 0 21 -23zM422 639q0 -19 -8 -36t-21 -30t-30.5 -20.5t-35.5 -7.5q-29 0 -48.5 19t-19.5 48q0 18 8 35t21.5 30t31 20.5t35.5 7.5q29 0 48 -18.5t19 -47.5zM368 630q0 22 -22 22q-13 0 -23 -9t-10 -23q0 -10 6.5 -16t16.5 -6q13 0 22.5 9.5t9.5 22.5z" />
    <glyph glyph-name="uhungarumlaut" unicode="&#x171;" horiz-adv-x="574" 
d="M462 28q-2 -14 -9 -21t-22 -7h-64q-8 0 -14 4t-6 13q0 7 1 14l2 14q-37 -26 -80 -41.5t-89 -15.5q-63 0 -97 30.5t-34 95.5q0 25 5 53l52 295q4 23 30 23h70q25 0 21 -23l-49 -274q-3 -18 -3 -35q0 -31 15.5 -44.5t45.5 -13.5q31 0 66 14.5t59 33.5l56 319q4 23 29 23h71
q25 0 21 -23zM608 647q0 -11 -14 -17l-155 -75q-5 -2 -9.5 -4t-8.5 -2q-10 0 -15 11l-9 18q-3 6 -3 10q0 8 15 18l144 91q14 9 19 9q8 0 15 -13l18 -35q3 -6 3 -11zM389 645q0 -8 -15 -15l-154 -75q-5 -2 -9.5 -4t-8.5 -2q-10 0 -15 11l-9 18q-3 6 -3 10q0 8 15 18l143 91
q6 4 10.5 6.5t9.5 2.5q8 0 15 -13l17 -35q4 -7 4 -13z" />
    <glyph glyph-name="uogonek" unicode="&#x173;" horiz-adv-x="574" 
d="M462 28q-3 -15 -9 -21q-8 -8 -22 -9q-22 -2 -40 -10t-32 -19q-21 -17 -33.5 -37.5t-12.5 -43.5q0 -21 11.5 -30t29.5 -9q10 0 26.5 2.5t28.5 6.5q1 0 2 0.5t2 0.5q7 0 8 -7l3 -24v-6q-2 -11 -16 -15q-17 -6 -40 -10.5t-43 -4.5q-45 0 -72 22.5t-27 54.5q0 25 10.5 46
t27 38t38 30t42.5 22l6 40q-37 -26 -80 -41.5t-89 -15.5q-63 0 -97 30.5t-34 95.5q0 25 5 53l52 295q4 23 30 23h70q25 0 21 -23l-49 -274q-3 -18 -3 -35q0 -31 15.5 -44.5t45.5 -13.5q31 0 66 14.5t59 33.5l56 319q4 23 29 23h71q25 0 21 -23z" />
    <glyph glyph-name="wgrave" unicode="&#x1e81;" horiz-adv-x="734" 
d="M755 475q0 -5 -3 -11l-212 -440q-5 -11 -13 -17.5t-22 -6.5h-68q-14 0 -19 6.5t-7 18.5l-33 285h-2l-133 -287q-6 -12 -14 -17.5t-22 -5.5h-67q-12 0 -18.5 6.5t-8.5 17.5l-53 440q-3 21 23 21h82q14 0 18.5 -5t5.5 -14l17 -316h1l148 315q5 11 13 15.5t18 4.5h56
q23 0 24 -17l34 -320h1l131 315q5 11 12 16.5t21 5.5h77q13 0 13 -10zM483 557q-6 -8 -13 -8t-18 6l-128 77q-11 6 -9.5 14t8.5 16l30 35q10 11 16.5 11t17.5 -9l111 -91q10 -8 10 -13.5t-8 -15.5z" />
    <glyph glyph-name="wacute" unicode="&#x1e83;" horiz-adv-x="734" 
d="M755 475q0 -5 -3 -11l-212 -440q-5 -11 -13 -17.5t-22 -6.5h-68q-14 0 -19 6.5t-7 18.5l-33 285h-2l-133 -287q-6 -12 -14 -17.5t-22 -5.5h-67q-12 0 -18.5 6.5t-8.5 17.5l-53 440q-3 21 23 21h82q14 0 18.5 -5t5.5 -14l17 -316h1l148 315q5 11 13 15.5t18 4.5h56
q23 0 24 -17l34 -320h1l131 315q5 11 12 16.5t21 5.5h77q13 0 13 -10zM536 645q0 -8 -9 -13l-128 -77q-11 -6 -17 -6q-9 0 -14 8l-17 22q-8 10 -8 15t10 14l111 91q10 9 17 9q8 0 17 -11l30 -35q8 -10 8 -17z" />
    <glyph glyph-name="wcircumflex" unicode="&#x175;" horiz-adv-x="734" 
d="M755 475q0 -5 -3 -11l-212 -440q-5 -11 -13 -17.5t-22 -6.5h-68q-14 0 -19 6.5t-7 18.5l-33 285h-2l-133 -287q-6 -12 -14 -17.5t-22 -5.5h-67q-12 0 -18.5 6.5t-8.5 17.5l-53 440q-3 21 23 21h82q14 0 18.5 -5t5.5 -14l17 -316h1l148 315q5 11 13 15.5t18 4.5h56
q23 0 24 -17l34 -320h1l131 315q5 11 12 16.5t21 5.5h77q13 0 13 -10zM571 591q0 -9 -10 -17l-23 -18q-8 -6 -14 -6q-7 0 -14 7l-80 73l-96 -71q-11 -8 -19 -8q-7 0 -15 8l-17 18q-5 5 -5 9q0 5 3.5 9t8.5 8l114 91q8 6 14 8.5t17 2.5h19q8 0 14 -1.5t11 -7.5l87 -94
q5 -7 5 -11z" />
    <glyph glyph-name="wdieresis" unicode="&#x1e85;" horiz-adv-x="734" 
d="M755 475q0 -5 -3 -11l-212 -440q-5 -11 -13 -17.5t-22 -6.5h-68q-14 0 -19 6.5t-7 18.5l-33 285h-2l-133 -287q-6 -12 -14 -17.5t-22 -5.5h-67q-12 0 -18.5 6.5t-8.5 17.5l-53 440q-3 21 23 21h82q14 0 18.5 -5t5.5 -14l17 -316h1l148 315q5 11 13 15.5t18 4.5h56
q23 0 24 -17l34 -320h1l131 315q5 11 12 16.5t21 5.5h77q13 0 13 -10zM580 641q0 -27 -21 -46.5t-47 -19.5q-20 0 -35.5 11.5t-15.5 33.5q0 28 22 46.5t49 18.5q20 0 34 -11.5t14 -32.5zM397 640q0 -27 -21.5 -46t-47.5 -19q-20 0 -35 11.5t-15 32.5q0 29 21.5 47.5
t48.5 18.5q20 0 34.5 -12t14.5 -33z" />
    <glyph glyph-name="ygrave" unicode="&#x1ef3;" horiz-adv-x="529" 
d="M558 474q0 -5 -4 -13l-289 -518q-25 -44 -50 -75t-54.5 -50t-64.5 -27.5t-80 -8.5q-14 0 -26.5 1t-25.5 4q-14 3 -13.5 10t3.5 16l17 54q4 11 8 13.5t12 2.5q11 0 20 -1.5t20 -1.5q47 0 73 17t47 52l27 45l-99 469q-2 9 1.5 15.5t15.5 6.5h96q19 0 22 -17l53 -331
l162 325q11 23 34 23h81q14 0 14 -11zM404 557q-6 -8 -13 -8t-18 6l-128 77q-11 6 -9.5 14t8.5 16l30 35q10 11 16.5 11t17.5 -9l111 -91q10 -8 10 -13.5t-8 -15.5z" />
    <glyph glyph-name="yacute" unicode="&#xfd;" horiz-adv-x="529" 
d="M558 474q0 -5 -4 -13l-289 -518q-25 -44 -50 -75t-54.5 -50t-64.5 -27.5t-80 -8.5q-14 0 -26.5 1t-25.5 4q-14 3 -13.5 10t3.5 16l17 54q4 11 8 13.5t12 2.5q11 0 20 -1.5t20 -1.5q47 0 73 17t47 52l27 45l-99 469q-2 9 1.5 15.5t15.5 6.5h96q19 0 22 -17l53 -331
l162 325q11 23 34 23h81q14 0 14 -11zM445 645q0 -8 -9 -13l-128 -77q-11 -6 -17 -6q-9 0 -14 8l-17 22q-8 10 -8 15t10 14l111 91q10 9 17 9q8 0 17 -11l30 -35q8 -10 8 -17z" />
    <glyph glyph-name="ycircumflex" unicode="&#x177;" horiz-adv-x="529" 
d="M558 474q0 -5 -4 -13l-289 -518q-25 -44 -50 -75t-54.5 -50t-64.5 -27.5t-80 -8.5q-14 0 -26.5 1t-25.5 4q-14 3 -13.5 10t3.5 16l17 54q4 11 8 13.5t12 2.5q11 0 20 -1.5t20 -1.5q47 0 73 17t47 52l27 45l-99 469q-2 9 1.5 15.5t15.5 6.5h96q19 0 22 -17l53 -331
l162 325q11 23 34 23h81q14 0 14 -11zM479 591q0 -9 -10 -17l-23 -18q-8 -6 -14 -6q-7 0 -14 7l-80 73l-96 -71q-11 -8 -19 -8q-7 0 -15 8l-17 18q-5 5 -5 9q0 5 3.5 9t8.5 8l114 91q8 6 14 8.5t17 2.5h19q8 0 14 -1.5t11 -7.5l87 -94q5 -7 5 -11z" />
    <glyph glyph-name="ydieresis" unicode="&#xff;" horiz-adv-x="529" 
d="M558 474q0 -5 -4 -13l-289 -518q-25 -44 -50 -75t-54.5 -50t-64.5 -27.5t-80 -8.5q-14 0 -26.5 1t-25.5 4q-14 3 -13.5 10t3.5 16l17 54q4 11 8 13.5t12 2.5q11 0 20 -1.5t20 -1.5q47 0 73 17t47 52l27 45l-99 469q-2 9 1.5 15.5t15.5 6.5h96q19 0 22 -17l53 -331
l162 325q11 23 34 23h81q14 0 14 -11zM493 641q0 -27 -21 -46.5t-47 -19.5q-20 0 -35.5 11.5t-15.5 33.5q0 28 22 46.5t49 18.5q20 0 34 -11.5t14 -32.5zM310 640q0 -27 -21.5 -46t-47.5 -19q-20 0 -35 11.5t-15 32.5q0 29 21.5 47.5t48.5 18.5q20 0 34.5 -12t14.5 -33z" />
    <glyph glyph-name="zacute" unicode="&#x17a;" horiz-adv-x="447" 
d="M434 485q11 0 16 -4.5t4 -10.5l-6 -34q-2 -9 -5 -17t-11 -16l-276 -318v-2h216q20 0 17 -17l-8 -47q-3 -19 -23 -19h-339q-11 0 -16 5t-5 13q0 2 1 6.5t5 24.5q2 11 5 17.5t11 16.5l272 318v1h-185q-19 0 -19 14q0 2 1 9.5t6 38.5q2 9 7.5 15t15.5 6h316zM401 645
q0 -8 -9 -13l-128 -77q-11 -6 -17 -6q-9 0 -14 8l-17 22q-8 10 -8 15t10 14l111 91q10 9 17 9q8 0 17 -11l30 -35q8 -10 8 -17z" />
    <glyph glyph-name="zcaron" unicode="&#x17e;" horiz-adv-x="447" 
d="M434 485q11 0 16 -4.5t4 -10.5l-6 -34q-2 -9 -5 -17t-11 -16l-276 -318v-2h216q20 0 17 -17l-8 -47q-3 -19 -23 -19h-339q-11 0 -16 5t-5 13q0 2 1 6.5t5 24.5q2 11 5 17.5t11 16.5l272 318v1h-185q-19 0 -19 14q0 2 1 9.5t6 38.5q2 9 7.5 15t15.5 6h316zM446 671
q0 -7 -11 -16l-112 -92q-8 -6 -14.5 -9t-17.5 -3h-18q-8 0 -14 1.5t-11 7.5l-84 96q-6 7 -6 12q0 7 11 15l23 18q5 5 13 5q6 0 14 -6l76 -65l99 62q11 8 19 8q7 0 14 -8l14 -16q5 -7 5 -10z" />
    <glyph glyph-name="zdotaccent" unicode="&#x17c;" horiz-adv-x="447" 
d="M434 485q11 0 16 -4.5t4 -10.5l-6 -34q-2 -9 -5 -17t-11 -16l-276 -318v-2h216q20 0 17 -17l-8 -47q-3 -19 -23 -19h-339q-11 0 -16 5t-5 13q0 2 1 6.5t5 24.5q2 11 5 17.5t11 16.5l272 318v1h-185q-19 0 -19 14q0 2 1 9.5t6 38.5q2 9 7.5 15t15.5 6h316zM354 637
q0 -15 -6 -28.5t-16.5 -23t-24 -15.5t-28.5 -6q-22 0 -38.5 13t-16.5 36q0 15 6.5 28.5t17.5 23t24.5 15t28.5 5.5q22 0 37.5 -12.5t15.5 -35.5z" />
    <glyph glyph-name="apple" unicode="&#xf8ff;" horiz-adv-x="606" 
d="M238 202v65h196v66h-196v195h261v-65h-196v-65h196v-196h-261zM173 594v-529h73v-65h-138v659h391v-65h-326z" />
    <glyph glyph-name="published" horiz-adv-x="846" 
d="M793 410q0 -84 -36.5 -160.5t-96.5 -135t-138 -93t-161 -34.5q-66 0 -122 21.5t-97 60.5t-64 93.5t-23 121.5q0 85 36 162t96 135t138 92t162 34q64 0 120 -22t97.5 -61t65 -93.5t23.5 -120.5zM701 399q0 50 -17 91.5t-47 71.5t-72 46.5t-92 16.5q-65 0 -124.5 -27
t-104.5 -72.5t-71.5 -105.5t-26.5 -125q0 -50 17 -91.5t47.5 -71.5t72.5 -46.5t92 -16.5q65 0 124 27t104 72.5t71.5 105.5t26.5 125zM388 298l-20 -113q-1 -6 -3.5 -10t-10.5 -4h-44q-15 0 -12 14l57 321q2 9 5 13t14 4h48q21 0 47.5 -1.5t49.5 -10.5t39 -27t16 -51
q0 -5 -0.5 -10.5t-1.5 -10.5q-10 -57 -49.5 -85.5t-99.5 -28.5h-35zM501 422q0 25 -15.5 35.5t-44.5 10.5h-23l-20 -116h20q31 0 54 12.5t28 46.5q1 4 1 11z" />
  </font>
</defs>
</svg>
